G04 #@! TF.GenerationSoftware,KiCad,Pcbnew,9.0.0*
G04 #@! TF.CreationDate,2025-04-18T11:45:22+02:00*
G04 #@! TF.ProjectId,WakeBand,57616b65-4261-46e6-942e-6b696361645f,rev?*
G04 #@! TF.SameCoordinates,Original*
G04 #@! TF.FileFunction,Copper,L2,Bot*
G04 #@! TF.FilePolarity,Positive*
%FSLAX46Y46*%
G04 Gerber Fmt 4.6, Leading zero omitted, Abs format (unit mm)*
G04 Created by KiCad (PCBNEW 9.0.0) date 2025-04-18 11:45:22*
%MOMM*%
%LPD*%
G01*
G04 APERTURE LIST*
G04 #@! TA.AperFunction,Conductor*
%ADD10C,0.200000*%
G04 #@! TD*
G04 #@! TA.AperFunction,SMDPad,CuDef*
%ADD11R,5.200000X5.200000*%
G04 #@! TD*
G04 #@! TA.AperFunction,SMDPad,CuDef*
%ADD12R,4.000000X4.000000*%
G04 #@! TD*
G04 #@! TA.AperFunction,ViaPad*
%ADD13C,0.800000*%
G04 #@! TD*
G04 #@! TA.AperFunction,ViaPad*
%ADD14C,0.600000*%
G04 #@! TD*
G04 #@! TA.AperFunction,ViaPad*
%ADD15C,1.200000*%
G04 #@! TD*
G04 #@! TA.AperFunction,Conductor*
%ADD16C,0.300000*%
G04 #@! TD*
G04 #@! TA.AperFunction,Conductor*
%ADD17C,0.500000*%
G04 #@! TD*
G04 #@! TA.AperFunction,Conductor*
%ADD18C,0.400000*%
G04 #@! TD*
G04 APERTURE END LIST*
D10*
X249800000Y-111100000D02*
X243800000Y-111100000D01*
X243800000Y-105100000D01*
X249800000Y-105100000D01*
X249800000Y-111100000D01*
G04 #@! TA.AperFunction,Conductor*
G36*
X249800000Y-111100000D02*
G01*
X243800000Y-111100000D01*
X243800000Y-105100000D01*
X249800000Y-105100000D01*
X249800000Y-111100000D01*
G37*
G04 #@! TD.AperFunction*
D11*
X246690000Y-95170000D03*
X246690000Y-121070000D03*
D12*
X246690000Y-108120000D03*
D13*
X251950000Y-94500000D03*
X255300000Y-117100000D03*
X253800000Y-96050000D03*
X240600000Y-105890000D03*
X241250000Y-113200000D03*
X251770000Y-113410000D03*
D14*
X254490000Y-106790000D03*
D13*
X256300000Y-98900000D03*
D15*
X245270000Y-106730000D03*
X248300000Y-106700000D03*
D13*
X257300000Y-98900000D03*
D15*
X246820000Y-109490000D03*
D13*
X251530000Y-122220000D03*
X257300000Y-117100000D03*
D15*
X245310000Y-108150000D03*
X246780000Y-106690000D03*
X248350000Y-108150000D03*
X246800000Y-108100000D03*
D13*
X258300000Y-117100000D03*
X244600000Y-100360000D03*
X255100000Y-96150000D03*
X238420000Y-110410000D03*
D14*
X251370000Y-102870000D03*
D13*
X255300000Y-98900000D03*
D14*
X252450000Y-106010000D03*
D13*
X256300000Y-117100000D03*
D14*
X249460000Y-101240000D03*
D13*
X239690000Y-113180000D03*
X255300000Y-119780000D03*
X254300000Y-98900000D03*
X239510000Y-104430000D03*
D15*
X245330000Y-109470000D03*
D13*
X242650000Y-102550000D03*
X258300000Y-98900000D03*
D15*
X248230000Y-109500000D03*
D13*
X247020000Y-113290000D03*
X247130000Y-101770000D03*
X250090000Y-117940000D03*
D15*
X234200000Y-115100000D03*
X232750000Y-111650000D03*
D13*
X245090000Y-112490000D03*
X240900000Y-110400000D03*
X243560000Y-103880000D03*
X248160000Y-102370000D03*
X253740000Y-108740000D03*
D14*
X246090000Y-101680000D03*
X245550000Y-103500000D03*
D13*
X246930000Y-103150000D03*
X253850000Y-110990000D03*
X249140000Y-114230000D03*
X249250000Y-113030000D03*
X247720000Y-114510000D03*
X242860000Y-113100000D03*
X242850000Y-108700000D03*
D16*
X253710000Y-106010000D02*
X252450000Y-106010000D01*
D17*
X249460000Y-101240000D02*
X249460000Y-105270000D01*
X240600000Y-105890000D02*
X244590000Y-105890000D01*
D18*
X240600000Y-104600000D02*
X242650000Y-102550000D01*
D16*
X249720000Y-100980000D02*
X249460000Y-101240000D01*
D17*
X250360000Y-108100000D02*
X246800000Y-108100000D01*
X238420000Y-110410000D02*
X238420000Y-108070000D01*
X244650000Y-106380000D02*
X246860000Y-108590000D01*
X251140000Y-113410000D02*
X248170000Y-110440000D01*
X251770000Y-113410000D02*
X251140000Y-113410000D01*
D16*
X254490000Y-106790000D02*
X253710000Y-106010000D01*
D17*
X252450000Y-106010000D02*
X250360000Y-108100000D01*
D18*
X240600000Y-105890000D02*
X240600000Y-104600000D01*
D17*
X238420000Y-108070000D02*
X240600000Y-105890000D01*
D18*
X240900000Y-110700000D02*
X239860000Y-111740000D01*
D17*
X244910000Y-117380000D02*
X245470000Y-117940000D01*
X244910000Y-112670000D02*
X244910000Y-117380000D01*
D18*
X239860000Y-111740000D02*
X236780000Y-111740000D01*
X236780000Y-111740000D02*
X236770000Y-111730000D01*
D17*
X245090000Y-112490000D02*
X244910000Y-112670000D01*
X245470000Y-117940000D02*
X250090000Y-117940000D01*
D18*
X248160000Y-99260000D02*
X247820000Y-98920000D01*
X240900000Y-110400000D02*
X240900000Y-110700000D01*
X243560000Y-99180000D02*
X243550000Y-99170000D01*
X243560000Y-103880000D02*
X243560000Y-99180000D01*
X248160000Y-102370000D02*
X248160000Y-99260000D01*
D16*
X246090000Y-102960000D02*
X246090000Y-101680000D01*
X245550000Y-103500000D02*
X246090000Y-102960000D01*
D17*
X242850000Y-112630000D02*
X242860000Y-112640000D01*
X242860000Y-112640000D02*
X242860000Y-113100000D01*
D18*
X243090000Y-108940000D02*
X243090000Y-112390000D01*
D17*
X242850000Y-108700000D02*
X242760000Y-108610000D01*
D18*
X242850000Y-108700000D02*
X243090000Y-108940000D01*
X243090000Y-112390000D02*
X242850000Y-112630000D01*
G04 #@! TA.AperFunction,Conductor*
G36*
X251302136Y-93534822D02*
G01*
X251580600Y-93619293D01*
X251586364Y-93621198D01*
X252285349Y-93871299D01*
X252291012Y-93873483D01*
X252976919Y-94157595D01*
X252982462Y-94160051D01*
X253419111Y-94366571D01*
X253653608Y-94477480D01*
X253659044Y-94480217D01*
X254313763Y-94830171D01*
X254319053Y-94833167D01*
X254955857Y-95214854D01*
X254960951Y-95218080D01*
X255578249Y-95630544D01*
X255583225Y-95634048D01*
X256179536Y-96076303D01*
X256184334Y-96080048D01*
X256758207Y-96551014D01*
X256762815Y-96554989D01*
X257312896Y-97053552D01*
X257317304Y-97057749D01*
X257842250Y-97582695D01*
X257846447Y-97587103D01*
X258345010Y-98137184D01*
X258348985Y-98141792D01*
X258819951Y-98715665D01*
X258823696Y-98720463D01*
X259196611Y-99223280D01*
X259220735Y-99288852D01*
X259205579Y-99357058D01*
X259155954Y-99406242D01*
X259096436Y-99421145D01*
X254573252Y-99400108D01*
X254550000Y-99400000D01*
X254549999Y-99400000D01*
X254546818Y-100402212D01*
X254526921Y-100469188D01*
X254510501Y-100489498D01*
X254500000Y-100499999D01*
X254500000Y-108068559D01*
X254480315Y-108135598D01*
X254427511Y-108181353D01*
X254358353Y-108191297D01*
X254294797Y-108162272D01*
X254288319Y-108156240D01*
X254250292Y-108118213D01*
X254250288Y-108118210D01*
X254119185Y-108030609D01*
X254119172Y-108030602D01*
X253973501Y-107970264D01*
X253973489Y-107970261D01*
X253818845Y-107939500D01*
X253818842Y-107939500D01*
X253661158Y-107939500D01*
X253661155Y-107939500D01*
X253506510Y-107970261D01*
X253506498Y-107970264D01*
X253360827Y-108030602D01*
X253360814Y-108030609D01*
X253229711Y-108118210D01*
X253229707Y-108118213D01*
X253118213Y-108229707D01*
X253118210Y-108229711D01*
X253030609Y-108360814D01*
X253030602Y-108360827D01*
X252970264Y-108506498D01*
X252970261Y-108506510D01*
X252939500Y-108661153D01*
X252939500Y-108818846D01*
X252970261Y-108973489D01*
X252970264Y-108973501D01*
X253030602Y-109119172D01*
X253030609Y-109119185D01*
X253118210Y-109250288D01*
X253118213Y-109250292D01*
X253229707Y-109361786D01*
X253229711Y-109361789D01*
X253360814Y-109449390D01*
X253360827Y-109449397D01*
X253506498Y-109509735D01*
X253506503Y-109509737D01*
X253661153Y-109540499D01*
X253661156Y-109540500D01*
X253661158Y-109540500D01*
X253818844Y-109540500D01*
X253818845Y-109540499D01*
X253973497Y-109509737D01*
X254119179Y-109449394D01*
X254250289Y-109361789D01*
X254250292Y-109361786D01*
X254288319Y-109323760D01*
X254349642Y-109290275D01*
X254419334Y-109295259D01*
X254475267Y-109337131D01*
X254499684Y-109402595D01*
X254500000Y-109411441D01*
X254500000Y-110229574D01*
X254480315Y-110296613D01*
X254427511Y-110342368D01*
X254358353Y-110352312D01*
X254307110Y-110332677D01*
X254229183Y-110280608D01*
X254229172Y-110280602D01*
X254083501Y-110220264D01*
X254083489Y-110220261D01*
X253928845Y-110189500D01*
X253928842Y-110189500D01*
X253771158Y-110189500D01*
X253771155Y-110189500D01*
X253616510Y-110220261D01*
X253616498Y-110220264D01*
X253470827Y-110280602D01*
X253470814Y-110280609D01*
X253339711Y-110368210D01*
X253339707Y-110368213D01*
X253228213Y-110479707D01*
X253228210Y-110479711D01*
X253140609Y-110610814D01*
X253140602Y-110610827D01*
X253080264Y-110756498D01*
X253080261Y-110756510D01*
X253049500Y-110911153D01*
X253049500Y-111068846D01*
X253080261Y-111223489D01*
X253080264Y-111223501D01*
X253140602Y-111369172D01*
X253140609Y-111369185D01*
X253228210Y-111500288D01*
X253228213Y-111500292D01*
X253339707Y-111611786D01*
X253339711Y-111611789D01*
X253470814Y-111699390D01*
X253470827Y-111699397D01*
X253616498Y-111759735D01*
X253616503Y-111759737D01*
X253771153Y-111790499D01*
X253771156Y-111790500D01*
X253771158Y-111790500D01*
X253928844Y-111790500D01*
X253928845Y-111790499D01*
X254083497Y-111759737D01*
X254229179Y-111699394D01*
X254307109Y-111647323D01*
X254373786Y-111626445D01*
X254441166Y-111644929D01*
X254487857Y-111696908D01*
X254500000Y-111750425D01*
X254500000Y-116000000D01*
X254500000Y-116750000D01*
X259118412Y-116750000D01*
X259185451Y-116769685D01*
X259231206Y-116822489D01*
X259241150Y-116891647D01*
X259218010Y-116947867D01*
X258823696Y-117479536D01*
X258819951Y-117484334D01*
X258348985Y-118058207D01*
X258345010Y-118062815D01*
X257846447Y-118612896D01*
X257842250Y-118617304D01*
X257317304Y-119142250D01*
X257312896Y-119146447D01*
X256762815Y-119645010D01*
X256758207Y-119648985D01*
X256184334Y-120119951D01*
X256179536Y-120123696D01*
X255583225Y-120565951D01*
X255578249Y-120569455D01*
X254960975Y-120981904D01*
X254955838Y-120985156D01*
X254953523Y-120986545D01*
X254817087Y-121068321D01*
X254749466Y-121085901D01*
X254683074Y-121064133D01*
X254638991Y-121009925D01*
X254631723Y-120986159D01*
X254603140Y-120842458D01*
X254546920Y-120706731D01*
X254546919Y-120706730D01*
X254546916Y-120706724D01*
X254465301Y-120584580D01*
X254465298Y-120584576D01*
X254361423Y-120480701D01*
X254361419Y-120480698D01*
X254239275Y-120399083D01*
X254239266Y-120399078D01*
X254103544Y-120342861D01*
X254103545Y-120342861D01*
X254103542Y-120342860D01*
X254103538Y-120342859D01*
X254103534Y-120342858D01*
X253959459Y-120314200D01*
X253959455Y-120314200D01*
X253812545Y-120314200D01*
X253812540Y-120314200D01*
X253668465Y-120342858D01*
X253668455Y-120342861D01*
X253532733Y-120399078D01*
X253532724Y-120399083D01*
X253410580Y-120480698D01*
X253410576Y-120480701D01*
X253306701Y-120584576D01*
X253306698Y-120584580D01*
X253225083Y-120706724D01*
X253225078Y-120706733D01*
X253168861Y-120842455D01*
X253168858Y-120842465D01*
X253140200Y-120986540D01*
X253140200Y-121133459D01*
X253168858Y-121277534D01*
X253168861Y-121277544D01*
X253225078Y-121413266D01*
X253225083Y-121413275D01*
X253306698Y-121535419D01*
X253306701Y-121535423D01*
X253410574Y-121639296D01*
X253412386Y-121640783D01*
X253413080Y-121641802D01*
X253414887Y-121643609D01*
X253414544Y-121643951D01*
X253451724Y-121698526D01*
X253453599Y-121768371D01*
X253417415Y-121828141D01*
X253386744Y-121848736D01*
X252982472Y-122039943D01*
X252976908Y-122042409D01*
X252291020Y-122326513D01*
X252285341Y-122328703D01*
X251586372Y-122578798D01*
X251580593Y-122580708D01*
X251205495Y-122694493D01*
X251135628Y-122695116D01*
X251076516Y-122657868D01*
X251046925Y-122594574D01*
X251045500Y-122575832D01*
X251045500Y-121601173D01*
X251065185Y-121534134D01*
X251117989Y-121488379D01*
X251187147Y-121478435D01*
X251250703Y-121507460D01*
X251272603Y-121532283D01*
X251274700Y-121535422D01*
X251378576Y-121639298D01*
X251378580Y-121639301D01*
X251500724Y-121720916D01*
X251500730Y-121720919D01*
X251500731Y-121720920D01*
X251636458Y-121777140D01*
X251780540Y-121805799D01*
X251780544Y-121805800D01*
X251780545Y-121805800D01*
X251927456Y-121805800D01*
X251927457Y-121805799D01*
X252071542Y-121777140D01*
X252207269Y-121720920D01*
X252329420Y-121639301D01*
X252433301Y-121535420D01*
X252514920Y-121413269D01*
X252571140Y-121277542D01*
X252599800Y-121133455D01*
X252599800Y-120986545D01*
X252571140Y-120842458D01*
X252514920Y-120706731D01*
X252514919Y-120706730D01*
X252514916Y-120706724D01*
X252433301Y-120584580D01*
X252433298Y-120584576D01*
X252329423Y-120480701D01*
X252329419Y-120480698D01*
X252207275Y-120399083D01*
X252207266Y-120399078D01*
X252071544Y-120342861D01*
X252071545Y-120342861D01*
X252071542Y-120342860D01*
X252071538Y-120342859D01*
X252071534Y-120342858D01*
X251927459Y-120314200D01*
X251927455Y-120314200D01*
X251780545Y-120314200D01*
X251780540Y-120314200D01*
X251636465Y-120342858D01*
X251636455Y-120342861D01*
X251500733Y-120399078D01*
X251500724Y-120399083D01*
X251378580Y-120480698D01*
X251378576Y-120480701D01*
X251274701Y-120584576D01*
X251274698Y-120584580D01*
X251272599Y-120587722D01*
X251271075Y-120588995D01*
X251270835Y-120589288D01*
X251270779Y-120589242D01*
X251218984Y-120632524D01*
X251149659Y-120641228D01*
X251086633Y-120611070D01*
X251049917Y-120551626D01*
X251045500Y-120518826D01*
X251045500Y-117347486D01*
X251036101Y-117260688D01*
X251024738Y-117208833D01*
X251001669Y-117136642D01*
X250934281Y-117029150D01*
X250888365Y-116976486D01*
X250810581Y-116907542D01*
X250753696Y-116880787D01*
X250695780Y-116853547D01*
X250695772Y-116853544D01*
X250628679Y-116834066D01*
X250628682Y-116834066D01*
X250514380Y-116817988D01*
X245684878Y-116832711D01*
X245617779Y-116813231D01*
X245571863Y-116760567D01*
X245560500Y-116708712D01*
X245560500Y-115906540D01*
X252124200Y-115906540D01*
X252124200Y-116053459D01*
X252152858Y-116197534D01*
X252152861Y-116197544D01*
X252209078Y-116333266D01*
X252209083Y-116333275D01*
X252290698Y-116455419D01*
X252290701Y-116455423D01*
X252394576Y-116559298D01*
X252394580Y-116559301D01*
X252516724Y-116640916D01*
X252516730Y-116640919D01*
X252516731Y-116640920D01*
X252652458Y-116697140D01*
X252796540Y-116725799D01*
X252796544Y-116725800D01*
X252796545Y-116725800D01*
X252943456Y-116725800D01*
X252943457Y-116725799D01*
X253087542Y-116697140D01*
X253223269Y-116640920D01*
X253345420Y-116559301D01*
X253449301Y-116455420D01*
X253530920Y-116333269D01*
X253587140Y-116197542D01*
X253615800Y-116053455D01*
X253615800Y-115906545D01*
X253587140Y-115762458D01*
X253530920Y-115626731D01*
X253530919Y-115626730D01*
X253530916Y-115626724D01*
X253449301Y-115504580D01*
X253449298Y-115504576D01*
X253345423Y-115400701D01*
X253345419Y-115400698D01*
X253223275Y-115319083D01*
X253223266Y-115319078D01*
X253087544Y-115262861D01*
X253087545Y-115262861D01*
X253087542Y-115262860D01*
X253087538Y-115262859D01*
X253087534Y-115262858D01*
X252943459Y-115234200D01*
X252943455Y-115234200D01*
X252796545Y-115234200D01*
X252796540Y-115234200D01*
X252652465Y-115262858D01*
X252652455Y-115262861D01*
X252516733Y-115319078D01*
X252516724Y-115319083D01*
X252394580Y-115400698D01*
X252394576Y-115400701D01*
X252290701Y-115504576D01*
X252290698Y-115504580D01*
X252209083Y-115626724D01*
X252209078Y-115626733D01*
X252152861Y-115762455D01*
X252152858Y-115762465D01*
X252124200Y-115906540D01*
X245560500Y-115906540D01*
X245560500Y-113211153D01*
X246219500Y-113211153D01*
X246219500Y-113368846D01*
X246250261Y-113523489D01*
X246250264Y-113523501D01*
X246310602Y-113669172D01*
X246310609Y-113669185D01*
X246398210Y-113800288D01*
X246398213Y-113800292D01*
X246509707Y-113911786D01*
X246509711Y-113911789D01*
X246640814Y-113999390D01*
X246640827Y-113999397D01*
X246786498Y-114059735D01*
X246786503Y-114059737D01*
X246825187Y-114067431D01*
X246872558Y-114076855D01*
X246934469Y-114109240D01*
X246969043Y-114169956D01*
X246965304Y-114239725D01*
X246962929Y-114245922D01*
X246950264Y-114276498D01*
X246950261Y-114276510D01*
X246919500Y-114431153D01*
X246919500Y-114588846D01*
X246950261Y-114743489D01*
X246950264Y-114743501D01*
X247010602Y-114889172D01*
X247010609Y-114889185D01*
X247098210Y-115020288D01*
X247098213Y-115020292D01*
X247209707Y-115131786D01*
X247209711Y-115131789D01*
X247340814Y-115219390D01*
X247340827Y-115219397D01*
X247445753Y-115262858D01*
X247486503Y-115279737D01*
X247641153Y-115310499D01*
X247641156Y-115310500D01*
X247641158Y-115310500D01*
X247798844Y-115310500D01*
X247798845Y-115310499D01*
X247953497Y-115279737D01*
X248099179Y-115219394D01*
X248230289Y-115131789D01*
X248341789Y-115020289D01*
X248429394Y-114889179D01*
X248429396Y-114889172D01*
X248432264Y-114883809D01*
X248434213Y-114884851D01*
X248471796Y-114838174D01*
X248538081Y-114816081D01*
X248605787Y-114833331D01*
X248624837Y-114848123D01*
X248625001Y-114847924D01*
X248629711Y-114851789D01*
X248760814Y-114939390D01*
X248760827Y-114939397D01*
X248906498Y-114999735D01*
X248906503Y-114999737D01*
X249061153Y-115030499D01*
X249061156Y-115030500D01*
X249061158Y-115030500D01*
X249218844Y-115030500D01*
X249218845Y-115030499D01*
X249373497Y-114999737D01*
X249519179Y-114939394D01*
X249650289Y-114851789D01*
X249761789Y-114740289D01*
X249849394Y-114609179D01*
X249909737Y-114463497D01*
X249940500Y-114308842D01*
X249940500Y-114151158D01*
X249940500Y-114151155D01*
X249940499Y-114151153D01*
X249922315Y-114059737D01*
X249909737Y-113996503D01*
X249890573Y-113950236D01*
X249849397Y-113850827D01*
X249849390Y-113850814D01*
X249790520Y-113762709D01*
X249769642Y-113696031D01*
X249788127Y-113628651D01*
X249805937Y-113606140D01*
X249871789Y-113540289D01*
X249959394Y-113409179D01*
X250019737Y-113263497D01*
X250050500Y-113108842D01*
X250050500Y-112951158D01*
X250050500Y-112951155D01*
X250050499Y-112951153D01*
X250019738Y-112796510D01*
X250019737Y-112796503D01*
X250012780Y-112779707D01*
X249959397Y-112650827D01*
X249959390Y-112650814D01*
X249871789Y-112519711D01*
X249871786Y-112519707D01*
X249760292Y-112408213D01*
X249760288Y-112408210D01*
X249629185Y-112320609D01*
X249629172Y-112320602D01*
X249483501Y-112260264D01*
X249483489Y-112260261D01*
X249328845Y-112229500D01*
X249328842Y-112229500D01*
X249171158Y-112229500D01*
X249171155Y-112229500D01*
X249016510Y-112260261D01*
X249016498Y-112260264D01*
X248870827Y-112320602D01*
X248870814Y-112320609D01*
X248739711Y-112408210D01*
X248739707Y-112408213D01*
X248628213Y-112519707D01*
X248628210Y-112519711D01*
X248540609Y-112650814D01*
X248540602Y-112650827D01*
X248480264Y-112796498D01*
X248480261Y-112796510D01*
X248449500Y-112951153D01*
X248449500Y-113108846D01*
X248480261Y-113263489D01*
X248480264Y-113263501D01*
X248540602Y-113409172D01*
X248540609Y-113409185D01*
X248599479Y-113497290D01*
X248620357Y-113563968D01*
X248601872Y-113631348D01*
X248584059Y-113653862D01*
X248518210Y-113719711D01*
X248430609Y-113850814D01*
X248427736Y-113856191D01*
X248425797Y-113855154D01*
X248388149Y-113901863D01*
X248321852Y-113923920D01*
X248254155Y-113906634D01*
X248235161Y-113891877D01*
X248234999Y-113892076D01*
X248230288Y-113888210D01*
X248099185Y-113800609D01*
X248099172Y-113800602D01*
X247953501Y-113740264D01*
X247953491Y-113740261D01*
X247867440Y-113723144D01*
X247805529Y-113690758D01*
X247770955Y-113630042D01*
X247774696Y-113560273D01*
X247777057Y-113554108D01*
X247789737Y-113523497D01*
X247820500Y-113368842D01*
X247820500Y-113211158D01*
X247820500Y-113211155D01*
X247820499Y-113211153D01*
X247806022Y-113138375D01*
X247789737Y-113056503D01*
X247775097Y-113021158D01*
X247729397Y-112910827D01*
X247729390Y-112910814D01*
X247641789Y-112779711D01*
X247641786Y-112779707D01*
X247530292Y-112668213D01*
X247530288Y-112668210D01*
X247399185Y-112580609D01*
X247399172Y-112580602D01*
X247253501Y-112520264D01*
X247253489Y-112520261D01*
X247098845Y-112489500D01*
X247098842Y-112489500D01*
X246941158Y-112489500D01*
X246941155Y-112489500D01*
X246786510Y-112520261D01*
X246786498Y-112520264D01*
X246640827Y-112580602D01*
X246640814Y-112580609D01*
X246509711Y-112668210D01*
X246509707Y-112668213D01*
X246398213Y-112779707D01*
X246398210Y-112779711D01*
X246310609Y-112910814D01*
X246310602Y-112910827D01*
X246250264Y-113056498D01*
X246250261Y-113056510D01*
X246219500Y-113211153D01*
X245560500Y-113211153D01*
X245560500Y-113202941D01*
X245580185Y-113135902D01*
X245596819Y-113115260D01*
X245711786Y-113000292D01*
X245711789Y-113000289D01*
X245799394Y-112869179D01*
X245800503Y-112866503D01*
X245813067Y-112836166D01*
X245859737Y-112723497D01*
X245890500Y-112568842D01*
X245890500Y-112411158D01*
X245890500Y-112411155D01*
X245890499Y-112411153D01*
X245887646Y-112396809D01*
X245859737Y-112256503D01*
X245848552Y-112229500D01*
X245799397Y-112110827D01*
X245799390Y-112110814D01*
X245711789Y-111979711D01*
X245711786Y-111979707D01*
X245600292Y-111868213D01*
X245600288Y-111868210D01*
X245469185Y-111780609D01*
X245469172Y-111780602D01*
X245323501Y-111720264D01*
X245323489Y-111720261D01*
X245168845Y-111689500D01*
X245168842Y-111689500D01*
X245011158Y-111689500D01*
X245011155Y-111689500D01*
X244856510Y-111720261D01*
X244856498Y-111720264D01*
X244710827Y-111780602D01*
X244710814Y-111780609D01*
X244579711Y-111868210D01*
X244579707Y-111868213D01*
X244468213Y-111979707D01*
X244468210Y-111979711D01*
X244380609Y-112110814D01*
X244380602Y-112110827D01*
X244320264Y-112256498D01*
X244320261Y-112256510D01*
X244289500Y-112411153D01*
X244289500Y-112445375D01*
X244285226Y-112474190D01*
X244285687Y-112474282D01*
X244259500Y-112605928D01*
X244259500Y-116713435D01*
X244239815Y-116780474D01*
X244187011Y-116826229D01*
X244135878Y-116837434D01*
X242329267Y-116842943D01*
X242262168Y-116823463D01*
X242239406Y-116804785D01*
X238181334Y-112574311D01*
X238167588Y-112547844D01*
X238151628Y-112522664D01*
X238150590Y-112515113D01*
X238149133Y-112512307D01*
X238146823Y-112487708D01*
X238146973Y-112463724D01*
X238167077Y-112396809D01*
X238220166Y-112351386D01*
X238270971Y-112340500D01*
X239773331Y-112340500D01*
X239773347Y-112340501D01*
X239780943Y-112340501D01*
X239939054Y-112340501D01*
X239939057Y-112340501D01*
X240091785Y-112299577D01*
X240166391Y-112256503D01*
X240228716Y-112220520D01*
X240340520Y-112108716D01*
X240340520Y-112108714D01*
X240350724Y-112098511D01*
X240350728Y-112098506D01*
X241268713Y-111180521D01*
X241268716Y-111180520D01*
X241380520Y-111068716D01*
X241402329Y-111030938D01*
X241411081Y-111021231D01*
X241412687Y-111020242D01*
X241415497Y-111016580D01*
X241521789Y-110910289D01*
X241609394Y-110779179D01*
X241669737Y-110633497D01*
X241700500Y-110478842D01*
X241700500Y-110321158D01*
X241700500Y-110321155D01*
X241700499Y-110321153D01*
X241684265Y-110239540D01*
X241669737Y-110166503D01*
X241637980Y-110089834D01*
X241609397Y-110020827D01*
X241609390Y-110020814D01*
X241521789Y-109889711D01*
X241521786Y-109889707D01*
X241410292Y-109778213D01*
X241410288Y-109778210D01*
X241279185Y-109690609D01*
X241279172Y-109690602D01*
X241133501Y-109630264D01*
X241133489Y-109630261D01*
X240978845Y-109599500D01*
X240978842Y-109599500D01*
X240821158Y-109599500D01*
X240821155Y-109599500D01*
X240666510Y-109630261D01*
X240666498Y-109630264D01*
X240520827Y-109690602D01*
X240520814Y-109690609D01*
X240389711Y-109778210D01*
X240389707Y-109778213D01*
X240278213Y-109889707D01*
X240278210Y-109889711D01*
X240190609Y-110020814D01*
X240190602Y-110020827D01*
X240130264Y-110166498D01*
X240130261Y-110166510D01*
X240099500Y-110321153D01*
X240099500Y-110321158D01*
X240099500Y-110478842D01*
X240099501Y-110478846D01*
X240115176Y-110557653D01*
X240108947Y-110627244D01*
X240081239Y-110669524D01*
X239647584Y-111103181D01*
X239586261Y-111136666D01*
X239559903Y-111139500D01*
X238279961Y-111139500D01*
X238212922Y-111119815D01*
X238167167Y-111067011D01*
X238155963Y-111014731D01*
X238156605Y-110911158D01*
X238158184Y-110656693D01*
X238153990Y-110595950D01*
X238148658Y-110559202D01*
X238143348Y-110535369D01*
X238144128Y-110535214D01*
X238127251Y-110450373D01*
X238127119Y-110449667D01*
X238127184Y-110449018D01*
X238125000Y-110426843D01*
X238125000Y-110393156D01*
X238127383Y-110368965D01*
X238130696Y-110352312D01*
X238144128Y-110284782D01*
X238144127Y-110284781D01*
X238146735Y-110271675D01*
X238146809Y-110271304D01*
X238147112Y-110269804D01*
X238153230Y-110239528D01*
X238155218Y-110220263D01*
X238161255Y-110161737D01*
X238161255Y-110161736D01*
X238161256Y-110161727D01*
X238170815Y-108621153D01*
X242049500Y-108621153D01*
X242049500Y-108778846D01*
X242080261Y-108933489D01*
X242080264Y-108933501D01*
X242140602Y-109079172D01*
X242140609Y-109079185D01*
X242228210Y-109210288D01*
X242228213Y-109210292D01*
X242339707Y-109321786D01*
X242339715Y-109321792D01*
X242434390Y-109385052D01*
X242479196Y-109438664D01*
X242489500Y-109488154D01*
X242489500Y-112022248D01*
X242469815Y-112089287D01*
X242439477Y-112120175D01*
X242440039Y-112120859D01*
X242435327Y-112124725D01*
X242344726Y-112215326D01*
X242273534Y-112321874D01*
X242224499Y-112440255D01*
X242224497Y-112440263D01*
X242199501Y-112565926D01*
X242199501Y-112610029D01*
X242179816Y-112677068D01*
X242178604Y-112678919D01*
X242150608Y-112720817D01*
X242150602Y-112720828D01*
X242090264Y-112866498D01*
X242090261Y-112866510D01*
X242059500Y-113021153D01*
X242059500Y-113178846D01*
X242090261Y-113333489D01*
X242090264Y-113333501D01*
X242150602Y-113479172D01*
X242150609Y-113479185D01*
X242238210Y-113610288D01*
X242238213Y-113610292D01*
X242349707Y-113721786D01*
X242349711Y-113721789D01*
X242480814Y-113809390D01*
X242480827Y-113809397D01*
X242626498Y-113869735D01*
X242626503Y-113869737D01*
X242781153Y-113900499D01*
X242781156Y-113900500D01*
X242781158Y-113900500D01*
X242938844Y-113900500D01*
X242938845Y-113900499D01*
X243093497Y-113869737D01*
X243239179Y-113809394D01*
X243370289Y-113721789D01*
X243481789Y-113610289D01*
X243569394Y-113479179D01*
X243629737Y-113333497D01*
X243660500Y-113178842D01*
X243660500Y-113021158D01*
X243660500Y-113021155D01*
X243660499Y-113021153D01*
X243646575Y-112951153D01*
X243629737Y-112866503D01*
X243602403Y-112800515D01*
X243594935Y-112731048D01*
X243609579Y-112691062D01*
X243632999Y-112650499D01*
X243635717Y-112645790D01*
X243649577Y-112621785D01*
X243690500Y-112469058D01*
X243690500Y-112310943D01*
X243690500Y-108860943D01*
X243654725Y-108727428D01*
X243650500Y-108695335D01*
X243650500Y-108621155D01*
X243650499Y-108621153D01*
X243627695Y-108506510D01*
X243619737Y-108466503D01*
X243575965Y-108360827D01*
X243559397Y-108320827D01*
X243559390Y-108320814D01*
X243471789Y-108189711D01*
X243471786Y-108189707D01*
X243360292Y-108078213D01*
X243360288Y-108078210D01*
X243229185Y-107990609D01*
X243229172Y-107990602D01*
X243083501Y-107930264D01*
X243083489Y-107930261D01*
X242928845Y-107899500D01*
X242928842Y-107899500D01*
X242771158Y-107899500D01*
X242771155Y-107899500D01*
X242616510Y-107930261D01*
X242616498Y-107930264D01*
X242470827Y-107990602D01*
X242470814Y-107990609D01*
X242339711Y-108078210D01*
X242339707Y-108078213D01*
X242228213Y-108189707D01*
X242228210Y-108189711D01*
X242140609Y-108320814D01*
X242140602Y-108320827D01*
X242080264Y-108466498D01*
X242080261Y-108466510D01*
X242049500Y-108621153D01*
X238170815Y-108621153D01*
X238204002Y-103272493D01*
X238224103Y-103205579D01*
X238246839Y-103179515D01*
X241937466Y-99984643D01*
X242001032Y-99955651D01*
X242017913Y-99954400D01*
X242834809Y-99949835D01*
X242901956Y-99969145D01*
X242948005Y-100021692D01*
X242959500Y-100073833D01*
X242959500Y-103300234D01*
X242939815Y-103367273D01*
X242938602Y-103369125D01*
X242850609Y-103500814D01*
X242850602Y-103500827D01*
X242790264Y-103646498D01*
X242790261Y-103646510D01*
X242759500Y-103801153D01*
X242759500Y-103958846D01*
X242790261Y-104113489D01*
X242790264Y-104113501D01*
X242850602Y-104259172D01*
X242850609Y-104259185D01*
X242938210Y-104390288D01*
X242938213Y-104390292D01*
X243049707Y-104501786D01*
X243049711Y-104501789D01*
X243180814Y-104589390D01*
X243180827Y-104589397D01*
X243326498Y-104649735D01*
X243326503Y-104649737D01*
X243481153Y-104680499D01*
X243481156Y-104680500D01*
X243481158Y-104680500D01*
X243638844Y-104680500D01*
X243638845Y-104680499D01*
X243793497Y-104649737D01*
X243939179Y-104589394D01*
X244070289Y-104501789D01*
X244181789Y-104390289D01*
X244269394Y-104259179D01*
X244329737Y-104113497D01*
X244360500Y-103958842D01*
X244360500Y-103801158D01*
X244360500Y-103801155D01*
X244360499Y-103801153D01*
X244354658Y-103771789D01*
X244329737Y-103646503D01*
X244329735Y-103646498D01*
X244269397Y-103500827D01*
X244269390Y-103500814D01*
X244181398Y-103369125D01*
X244160520Y-103302447D01*
X244160500Y-103300234D01*
X244160500Y-100065739D01*
X244180185Y-99998700D01*
X244232989Y-99952945D01*
X244283806Y-99941741D01*
X247434809Y-99924137D01*
X247501956Y-99943447D01*
X247548005Y-99995994D01*
X247559500Y-100048135D01*
X247559500Y-100895871D01*
X247539815Y-100962910D01*
X247487011Y-101008665D01*
X247417853Y-101018609D01*
X247388048Y-101010432D01*
X247363501Y-101000264D01*
X247363489Y-101000261D01*
X247208845Y-100969500D01*
X247208842Y-100969500D01*
X247051158Y-100969500D01*
X247051155Y-100969500D01*
X246896510Y-101000261D01*
X246896498Y-101000264D01*
X246750827Y-101060602D01*
X246750809Y-101060612D01*
X246656239Y-101123802D01*
X246589562Y-101144680D01*
X246522182Y-101126195D01*
X246518458Y-101123802D01*
X246421817Y-101059228D01*
X246421804Y-101059221D01*
X246294332Y-101006421D01*
X246294322Y-101006418D01*
X246158995Y-100979500D01*
X246158993Y-100979500D01*
X246021007Y-100979500D01*
X246021005Y-100979500D01*
X245885677Y-101006418D01*
X245885667Y-101006421D01*
X245758195Y-101059221D01*
X245758182Y-101059228D01*
X245643458Y-101135885D01*
X245643454Y-101135888D01*
X245545888Y-101233454D01*
X245545885Y-101233458D01*
X245469228Y-101348182D01*
X245469221Y-101348195D01*
X245416421Y-101475667D01*
X245416418Y-101475677D01*
X245389500Y-101611004D01*
X245389500Y-101611007D01*
X245389500Y-101748993D01*
X245389500Y-101748995D01*
X245389499Y-101748995D01*
X245416418Y-101884322D01*
X245416421Y-101884332D01*
X245469222Y-102011806D01*
X245469223Y-102011807D01*
X245469225Y-102011811D01*
X245518602Y-102085708D01*
X245539480Y-102152385D01*
X245539500Y-102154599D01*
X245539500Y-102680611D01*
X245530855Y-102710051D01*
X245524328Y-102740046D01*
X245520576Y-102745056D01*
X245519815Y-102747650D01*
X245503175Y-102768299D01*
X245496322Y-102775151D01*
X245434996Y-102808631D01*
X245432840Y-102809080D01*
X245345676Y-102826419D01*
X245345667Y-102826421D01*
X245218195Y-102879221D01*
X245218182Y-102879228D01*
X245103458Y-102955885D01*
X245103454Y-102955888D01*
X245005888Y-103053454D01*
X245005885Y-103053458D01*
X244929228Y-103168182D01*
X244929221Y-103168195D01*
X244876421Y-103295667D01*
X244876418Y-103295677D01*
X244849500Y-103431004D01*
X244849500Y-103431007D01*
X244849500Y-103568993D01*
X244849500Y-103568995D01*
X244849499Y-103568995D01*
X244876418Y-103704322D01*
X244876421Y-103704332D01*
X244929221Y-103831804D01*
X244929228Y-103831817D01*
X245005885Y-103946541D01*
X245005888Y-103946545D01*
X245103454Y-104044111D01*
X245103458Y-104044114D01*
X245218182Y-104120771D01*
X245218195Y-104120778D01*
X245345667Y-104173578D01*
X245345672Y-104173580D01*
X245345676Y-104173580D01*
X245345677Y-104173581D01*
X245481004Y-104200500D01*
X245481007Y-104200500D01*
X245618995Y-104200500D01*
X245710041Y-104182389D01*
X245754328Y-104173580D01*
X245881811Y-104120775D01*
X245996542Y-104044114D01*
X246094114Y-103946542D01*
X246170775Y-103831811D01*
X246190248Y-103784796D01*
X246234087Y-103730395D01*
X246300381Y-103708329D01*
X246368081Y-103725607D01*
X246392490Y-103744569D01*
X246419707Y-103771786D01*
X246419711Y-103771789D01*
X246550814Y-103859390D01*
X246550827Y-103859397D01*
X246696498Y-103919735D01*
X246696503Y-103919737D01*
X246831255Y-103946541D01*
X246851153Y-103950499D01*
X246851156Y-103950500D01*
X246851158Y-103950500D01*
X247008844Y-103950500D01*
X247008845Y-103950499D01*
X247163497Y-103919737D01*
X247309179Y-103859394D01*
X247440289Y-103771789D01*
X247551789Y-103660289D01*
X247639394Y-103529179D01*
X247699737Y-103383497D01*
X247721817Y-103272495D01*
X247731689Y-103222868D01*
X247733606Y-103223249D01*
X247756385Y-103166831D01*
X247813418Y-103126469D01*
X247883218Y-103123350D01*
X247901084Y-103129208D01*
X247926497Y-103139735D01*
X247926499Y-103139735D01*
X247926503Y-103139737D01*
X248062713Y-103166831D01*
X248081153Y-103170499D01*
X248081156Y-103170500D01*
X248081158Y-103170500D01*
X248238844Y-103170500D01*
X248238845Y-103170499D01*
X248393497Y-103139737D01*
X248539179Y-103079394D01*
X248670289Y-102991789D01*
X248781789Y-102880289D01*
X248869394Y-102749179D01*
X248929737Y-102603497D01*
X248960500Y-102448842D01*
X248960500Y-102291158D01*
X248960500Y-102291155D01*
X248960499Y-102291153D01*
X248952266Y-102249764D01*
X248929737Y-102136503D01*
X248908697Y-102085708D01*
X248869397Y-101990827D01*
X248869390Y-101990814D01*
X248781398Y-101859125D01*
X248760520Y-101792447D01*
X248760500Y-101790234D01*
X248760500Y-100040041D01*
X248780185Y-99973002D01*
X248832989Y-99927247D01*
X248883806Y-99916043D01*
X250648252Y-99906186D01*
X250734416Y-99896433D01*
X250785877Y-99884934D01*
X250857428Y-99861801D01*
X250964740Y-99794128D01*
X251017282Y-99748072D01*
X251086019Y-99670106D01*
X251139710Y-99555159D01*
X251159012Y-99488008D01*
X251174785Y-99373672D01*
X251142146Y-93654189D01*
X251161448Y-93587041D01*
X251213990Y-93540985D01*
X251283090Y-93530647D01*
X251302136Y-93534822D01*
G37*
G04 #@! TD.AperFunction*
G04 #@! TA.AperFunction,Conductor*
G36*
X247177273Y-92855241D02*
G01*
X247918821Y-92891671D01*
X247924823Y-92892114D01*
X248663685Y-92964885D01*
X248669697Y-92965627D01*
X249380649Y-93071087D01*
X249404083Y-93074564D01*
X249410081Y-93075605D01*
X250138203Y-93220437D01*
X250144107Y-93221762D01*
X250641701Y-93346403D01*
X250701946Y-93381786D01*
X250733499Y-93444125D01*
X250735567Y-93465978D01*
X250769292Y-99375986D01*
X250749990Y-99443137D01*
X250697448Y-99489193D01*
X250645987Y-99500692D01*
X241880452Y-99549662D01*
X241820000Y-99550000D01*
X237800000Y-103030000D01*
X237755764Y-110159211D01*
X237747590Y-110199662D01*
X237748188Y-110199844D01*
X237746419Y-110205674D01*
X237719500Y-110341004D01*
X237719500Y-110341007D01*
X237719500Y-110478993D01*
X237719500Y-110478995D01*
X237719499Y-110478995D01*
X237746420Y-110614328D01*
X237747360Y-110617429D01*
X237752692Y-110654177D01*
X237740000Y-112699999D01*
X237740000Y-112700000D01*
X242103745Y-117249133D01*
X242103745Y-117249132D01*
X242103746Y-117249133D01*
X242230815Y-117248745D01*
X250515622Y-117223487D01*
X250582721Y-117242967D01*
X250628637Y-117295631D01*
X250640000Y-117347486D01*
X250640000Y-122757251D01*
X250620315Y-122824290D01*
X250567511Y-122870045D01*
X250546130Y-122877535D01*
X250144124Y-122978233D01*
X250138185Y-122979566D01*
X249410079Y-123124394D01*
X249404083Y-123125435D01*
X248669711Y-123234370D01*
X248663670Y-123235115D01*
X247924857Y-123307882D01*
X247918787Y-123308330D01*
X247177274Y-123344758D01*
X247171190Y-123344907D01*
X246428810Y-123344907D01*
X246422726Y-123344758D01*
X245681212Y-123308330D01*
X245675142Y-123307882D01*
X244936329Y-123235115D01*
X244930288Y-123234370D01*
X244195916Y-123125435D01*
X244189920Y-123124394D01*
X243461814Y-122979566D01*
X243455875Y-122978233D01*
X242735717Y-122797842D01*
X242729852Y-122796219D01*
X242019406Y-122580708D01*
X242013627Y-122578798D01*
X241314658Y-122328703D01*
X241308979Y-122326513D01*
X240623091Y-122042409D01*
X240617527Y-122039943D01*
X239946391Y-121722519D01*
X239940955Y-121719782D01*
X239286236Y-121369828D01*
X239280940Y-121366828D01*
X239062220Y-121235732D01*
X238644153Y-120985152D01*
X238639037Y-120981912D01*
X238021750Y-120569455D01*
X238016774Y-120565951D01*
X237420463Y-120123696D01*
X237415665Y-120119951D01*
X236841792Y-119648985D01*
X236837184Y-119645010D01*
X236287103Y-119146447D01*
X236282695Y-119142250D01*
X235757749Y-118617304D01*
X235753552Y-118612896D01*
X235254989Y-118062815D01*
X235251014Y-118058207D01*
X234780048Y-117484334D01*
X234776303Y-117479536D01*
X234334048Y-116883225D01*
X234330544Y-116878249D01*
X234275987Y-116796598D01*
X233918080Y-116260951D01*
X233914854Y-116255857D01*
X233533167Y-115619053D01*
X233530171Y-115613763D01*
X233180217Y-114959044D01*
X233177480Y-114953608D01*
X233166551Y-114930500D01*
X232860051Y-114282462D01*
X232857590Y-114276908D01*
X232816699Y-114178189D01*
X232573483Y-113591012D01*
X232571296Y-113585341D01*
X232499372Y-113384328D01*
X232321198Y-112886364D01*
X232319291Y-112880593D01*
X232309461Y-112848189D01*
X232103779Y-112170145D01*
X232102157Y-112164282D01*
X232097261Y-112144737D01*
X231921762Y-111444107D01*
X231920433Y-111438185D01*
X231918418Y-111428056D01*
X231775605Y-110710079D01*
X231774564Y-110704083D01*
X231700631Y-110205672D01*
X231665627Y-109969697D01*
X231664884Y-109963670D01*
X231592114Y-109224823D01*
X231591671Y-109218821D01*
X231555242Y-108477273D01*
X231555093Y-108471189D01*
X231555093Y-107728810D01*
X231555242Y-107722726D01*
X231567364Y-107475975D01*
X231591671Y-106981175D01*
X231592114Y-106975179D01*
X231664886Y-106236309D01*
X231665629Y-106230288D01*
X231666787Y-106222485D01*
X231774564Y-105495910D01*
X231775605Y-105489920D01*
X231809216Y-105320947D01*
X231920438Y-104761788D01*
X231921760Y-104755901D01*
X232102160Y-104035705D01*
X232103780Y-104029852D01*
X232319297Y-103319387D01*
X232321194Y-103313647D01*
X232571304Y-102614636D01*
X232573477Y-102609000D01*
X232857601Y-101923065D01*
X232860044Y-101917552D01*
X233177489Y-101246373D01*
X233180207Y-101240973D01*
X233530184Y-100586211D01*
X233533157Y-100580963D01*
X233914865Y-99944123D01*
X233918068Y-99939066D01*
X234330560Y-99321726D01*
X234334031Y-99316797D01*
X234776314Y-98720447D01*
X234780035Y-98715680D01*
X235251025Y-98141778D01*
X235254976Y-98137198D01*
X235753570Y-97587083D01*
X235757729Y-97582715D01*
X236282715Y-97057729D01*
X236287083Y-97053570D01*
X236837198Y-96554976D01*
X236841778Y-96551025D01*
X237415680Y-96080035D01*
X237420447Y-96076314D01*
X238016797Y-95634031D01*
X238021726Y-95630560D01*
X238639066Y-95218068D01*
X238644123Y-95214865D01*
X239280963Y-94833157D01*
X239286211Y-94830184D01*
X239940973Y-94480207D01*
X239946373Y-94477489D01*
X240617552Y-94160044D01*
X240623065Y-94157601D01*
X241309000Y-93873477D01*
X241314636Y-93871304D01*
X242013647Y-93621194D01*
X242019387Y-93619297D01*
X242729864Y-93403776D01*
X242735705Y-93402160D01*
X243455901Y-93221760D01*
X243461788Y-93220438D01*
X244189925Y-93075604D01*
X244195910Y-93074564D01*
X244930307Y-92965626D01*
X244936309Y-92964886D01*
X245675179Y-92892114D01*
X245681175Y-92891671D01*
X246422726Y-92855241D01*
X246428810Y-92855093D01*
X247171190Y-92855093D01*
X247177273Y-92855241D01*
G37*
G04 #@! TD.AperFunction*
M02*
