G04 #@! TF.GenerationSoftware,KiCad,Pcbnew,9.0.0*
G04 #@! TF.CreationDate,2025-04-18T11:45:23+02:00*
G04 #@! TF.ProjectId,WakeBand,57616b65-4261-46e6-942e-6b696361645f,rev?*
G04 #@! TF.SameCoordinates,Original*
G04 #@! TF.FileFunction,Legend,Bot*
G04 #@! TF.FilePolarity,Positive*
%FSLAX46Y46*%
G04 Gerber Fmt 4.6, Leading zero omitted, Abs format (unit mm)*
G04 Created by KiCad (PCBNEW 9.0.0) date 2025-04-18 11:45:23*
%MOMM*%
%LPD*%
G01*
G04 APERTURE LIST*
%ADD10C,0.254000*%
%ADD11C,0.100000*%
%ADD12C,0.990600*%
%ADD13R,5.200000X5.200000*%
%ADD14R,4.000000X4.000000*%
G04 APERTURE END LIST*
D10*
X246054318Y-107642380D02*
X247082413Y-107642380D01*
X247082413Y-107642380D02*
X247203365Y-107702857D01*
X247203365Y-107702857D02*
X247263842Y-107763333D01*
X247263842Y-107763333D02*
X247324318Y-107884285D01*
X247324318Y-107884285D02*
X247324318Y-108126190D01*
X247324318Y-108126190D02*
X247263842Y-108247142D01*
X247263842Y-108247142D02*
X247203365Y-108307619D01*
X247203365Y-108307619D02*
X247082413Y-108368095D01*
X247082413Y-108368095D02*
X246054318Y-108368095D01*
X246175270Y-108912380D02*
X246114794Y-108972856D01*
X246114794Y-108972856D02*
X246054318Y-109093809D01*
X246054318Y-109093809D02*
X246054318Y-109396190D01*
X246054318Y-109396190D02*
X246114794Y-109517142D01*
X246114794Y-109517142D02*
X246175270Y-109577618D01*
X246175270Y-109577618D02*
X246296222Y-109638095D01*
X246296222Y-109638095D02*
X246417175Y-109638095D01*
X246417175Y-109638095D02*
X246598603Y-109577618D01*
X246598603Y-109577618D02*
X247324318Y-108851904D01*
X247324318Y-108851904D02*
X247324318Y-109638095D01*
D11*
X236790000Y-97760000D02*
X236790000Y-118860000D01*
X236790000Y-118860000D02*
X243690000Y-118860000D01*
X243690000Y-97760000D02*
X236790000Y-97760000D01*
X249690000Y-97760000D02*
X250690000Y-97760000D01*
X250690000Y-97760000D02*
X256690000Y-106310000D01*
X250690000Y-118860000D02*
X249690000Y-118860000D01*
X256590000Y-110310000D02*
X250690000Y-118860000D01*
X256690000Y-106310000D02*
X256590000Y-110310000D01*
%LPC*%
D12*
X252870000Y-115980000D03*
X253886000Y-121060000D03*
X251854000Y-121060000D03*
D13*
X246690000Y-95170000D03*
X246690000Y-121070000D03*
D14*
X246690000Y-108120000D03*
%LPD*%
M02*
