G04 #@! TF.GenerationSoftware,KiCad,Pcbnew,9.0.0*
G04 #@! TF.CreationDate,2025-04-18T11:45:23+02:00*
G04 #@! TF.ProjectId,WakeBand,57616b65-4261-46e6-942e-6b696361645f,rev?*
G04 #@! TF.SameCoordinates,Original*
G04 #@! TF.FileFunction,Legend,Top*
G04 #@! TF.FilePolarity,Positive*
%FSLAX46Y46*%
G04 Gerber Fmt 4.6, Leading zero omitted, Abs format (unit mm)*
G04 Created by KiCad (PCBNEW 9.0.0) date 2025-04-18 11:45:23*
%MOMM*%
%LPD*%
G01*
G04 APERTURE LIST*
G04 Aperture macros list*
%AMRoundRect*
0 Rectangle with rounded corners*
0 $1 Rounding radius*
0 $2 $3 $4 $5 $6 $7 $8 $9 X,Y pos of 4 corners*
0 Add a 4 corners polygon primitive as box body*
4,1,4,$2,$3,$4,$5,$6,$7,$8,$9,$2,$3,0*
0 Add four circle primitives for the rounded corners*
1,1,$1+$1,$2,$3*
1,1,$1+$1,$4,$5*
1,1,$1+$1,$6,$7*
1,1,$1+$1,$8,$9*
0 Add four rect primitives between the rounded corners*
20,1,$1+$1,$2,$3,$4,$5,0*
20,1,$1+$1,$4,$5,$6,$7,0*
20,1,$1+$1,$6,$7,$8,$9,0*
20,1,$1+$1,$8,$9,$2,$3,0*%
G04 Aperture macros list end*
%ADD10C,0.000000*%
%ADD11C,0.200000*%
%ADD12C,0.087500*%
%ADD13C,0.100000*%
%ADD14C,0.150000*%
%ADD15C,0.250000*%
%ADD16C,0.160000*%
%ADD17C,0.254000*%
%ADD18C,0.120000*%
%ADD19RoundRect,0.140000X0.170000X-0.140000X0.170000X0.140000X-0.170000X0.140000X-0.170000X-0.140000X0*%
%ADD20RoundRect,0.140000X-0.170000X0.140000X-0.170000X-0.140000X0.170000X-0.140000X0.170000X0.140000X0*%
%ADD21C,0.990600*%
%ADD22C,0.787400*%
%ADD23R,0.420000X0.660000*%
%ADD24R,0.545000X0.570000*%
%ADD25R,0.420000X0.470000*%
%ADD26R,2.370000X1.830000*%
%ADD27R,0.650000X0.750000*%
%ADD28RoundRect,0.140000X-0.140000X-0.170000X0.140000X-0.170000X0.140000X0.170000X-0.140000X0.170000X0*%
%ADD29R,0.500000X0.630000*%
%ADD30RoundRect,0.190500X0.762000X0.444500X-0.762000X0.444500X-0.762000X-0.444500X0.762000X-0.444500X0*%
%ADD31R,1.000000X1.000000*%
%ADD32R,1.120000X1.220000*%
%ADD33R,0.850000X0.200000*%
%ADD34R,0.200000X0.850000*%
%ADD35R,4.700000X4.700000*%
%ADD36R,0.600000X1.200000*%
%ADD37RoundRect,0.135000X0.185000X-0.135000X0.185000X0.135000X-0.185000X0.135000X-0.185000X-0.135000X0*%
%ADD38RoundRect,0.250000X0.625000X-0.375000X0.625000X0.375000X-0.625000X0.375000X-0.625000X-0.375000X0*%
G04 APERTURE END LIST*
D10*
G36*
X250548657Y-94161776D02*
G01*
X250519150Y-94237012D01*
X250483168Y-94320236D01*
X250440254Y-94410281D01*
X250389949Y-94505982D01*
X250361880Y-94555589D01*
X250331792Y-94606172D01*
X250299626Y-94657587D01*
X250265326Y-94709687D01*
X250228833Y-94762326D01*
X250190091Y-94815359D01*
X250138172Y-94821788D01*
X250086486Y-94829489D01*
X250035166Y-94838343D01*
X249984344Y-94848233D01*
X249934156Y-94859041D01*
X249884733Y-94870648D01*
X249788718Y-94895792D01*
X249697367Y-94922721D01*
X249611745Y-94950494D01*
X249532920Y-94978168D01*
X249461958Y-95004800D01*
X249737968Y-94772562D01*
X250020625Y-94537546D01*
X250301497Y-94308880D01*
X250438628Y-94199781D01*
X250572149Y-94095692D01*
X250548657Y-94161776D01*
G37*
D11*
X244250000Y-100550000D02*
G75*
G02*
X234250000Y-100550000I-5000000J0D01*
G01*
X234250000Y-100550000D02*
G75*
G02*
X244250000Y-100550000I5000000J0D01*
G01*
D10*
G36*
X249048486Y-94695328D02*
G01*
X249033534Y-94771055D01*
X249016456Y-94845167D01*
X248997712Y-94917140D01*
X248977766Y-94986454D01*
X248957078Y-95052584D01*
X248936111Y-95115010D01*
X248915328Y-95173207D01*
X248895189Y-95226655D01*
X248876157Y-95274830D01*
X248843262Y-95353273D01*
X248811082Y-95423900D01*
X248811082Y-95422842D01*
X248810523Y-95424044D01*
X248810034Y-95425270D01*
X248809610Y-95426518D01*
X248809247Y-95427786D01*
X248808939Y-95429073D01*
X248808682Y-95430376D01*
X248808472Y-95431695D01*
X248808304Y-95433028D01*
X248808173Y-95434374D01*
X248808075Y-95435730D01*
X248807957Y-95438469D01*
X248807914Y-95441232D01*
X248807907Y-95444009D01*
X248730235Y-95508187D01*
X248656433Y-95568495D01*
X248587195Y-95624239D01*
X248523215Y-95674725D01*
X248515365Y-95664096D01*
X248508485Y-95652500D01*
X248502579Y-95640011D01*
X248497650Y-95626703D01*
X248493700Y-95612651D01*
X248490733Y-95597930D01*
X248488753Y-95582613D01*
X248487761Y-95566775D01*
X248487761Y-95550491D01*
X248488757Y-95533834D01*
X248490751Y-95516880D01*
X248493747Y-95499703D01*
X248497747Y-95482377D01*
X248502755Y-95464977D01*
X248508774Y-95447576D01*
X248515807Y-95430250D01*
X248612132Y-95206677D01*
X248636550Y-95152706D01*
X248661938Y-95099554D01*
X248688711Y-95047245D01*
X248717287Y-94995804D01*
X248748084Y-94945256D01*
X248781517Y-94895626D01*
X248818004Y-94846939D01*
X248857963Y-94799219D01*
X248901810Y-94752491D01*
X248949961Y-94706780D01*
X249002835Y-94662111D01*
X249031173Y-94640175D01*
X249060848Y-94618508D01*
X249048486Y-94695328D01*
G37*
G36*
X250059614Y-94977323D02*
G01*
X250000682Y-95041561D01*
X249938030Y-95105179D01*
X249905270Y-95136673D01*
X249871533Y-95167916D01*
X249836804Y-95198873D01*
X249801067Y-95229512D01*
X249764307Y-95259801D01*
X249726508Y-95289707D01*
X249687655Y-95319197D01*
X249647733Y-95348240D01*
X249606725Y-95376802D01*
X249564617Y-95404850D01*
X249515003Y-95435714D01*
X249465615Y-95463439D01*
X249416204Y-95488361D01*
X249366526Y-95510816D01*
X249316333Y-95531137D01*
X249265379Y-95549660D01*
X249213417Y-95566719D01*
X249160200Y-95582650D01*
X249049019Y-95612465D01*
X248929864Y-95641785D01*
X248800762Y-95673287D01*
X248659741Y-95709650D01*
X248656380Y-95710594D01*
X248653046Y-95711443D01*
X248649739Y-95712201D01*
X248646462Y-95712875D01*
X248643216Y-95713468D01*
X248640003Y-95713985D01*
X248633680Y-95714810D01*
X248627505Y-95715386D01*
X248621492Y-95715752D01*
X248615653Y-95715945D01*
X248609999Y-95716000D01*
X248731361Y-95617823D01*
X248880007Y-95494941D01*
X249271458Y-95166725D01*
X249272824Y-95167166D01*
X249274451Y-95167668D01*
X249277940Y-95168710D01*
X249282041Y-95169900D01*
X249283100Y-95169900D01*
X249284278Y-95169887D01*
X249285435Y-95169848D01*
X249286574Y-95169781D01*
X249287696Y-95169685D01*
X249288807Y-95169558D01*
X249289908Y-95169398D01*
X249291003Y-95169204D01*
X249292095Y-95168974D01*
X249293187Y-95168707D01*
X249294282Y-95168401D01*
X249295383Y-95168055D01*
X249296494Y-95167667D01*
X249297617Y-95167236D01*
X249298755Y-95166760D01*
X249299912Y-95166237D01*
X249301090Y-95165667D01*
X249372595Y-95134479D01*
X249452003Y-95102005D01*
X249554826Y-95063008D01*
X249676799Y-95021035D01*
X249813655Y-94979631D01*
X249886331Y-94960252D01*
X249961127Y-94942346D01*
X250037511Y-94926356D01*
X250114949Y-94912725D01*
X250059614Y-94977323D01*
G37*
G36*
X247090233Y-93164362D02*
G01*
X247097034Y-93164884D01*
X247103740Y-93165847D01*
X247110343Y-93167240D01*
X247116834Y-93169050D01*
X247123204Y-93171267D01*
X247129447Y-93173878D01*
X247135552Y-93176872D01*
X247141512Y-93180237D01*
X247147319Y-93183962D01*
X247152964Y-93188035D01*
X247158439Y-93192444D01*
X247163735Y-93197179D01*
X247168845Y-93202226D01*
X247173759Y-93207575D01*
X247182969Y-93219131D01*
X247191299Y-93231753D01*
X247198681Y-93245349D01*
X247205049Y-93259826D01*
X247210337Y-93275090D01*
X247214478Y-93291049D01*
X247217404Y-93307609D01*
X247219051Y-93324678D01*
X247219350Y-93342162D01*
X247236283Y-93496678D01*
X247238065Y-93508269D01*
X247240619Y-93519598D01*
X247243924Y-93530630D01*
X247247957Y-93541327D01*
X247252698Y-93551652D01*
X247258123Y-93561568D01*
X247264212Y-93571037D01*
X247270943Y-93580022D01*
X247274542Y-93584322D01*
X247278294Y-93588487D01*
X247282195Y-93592512D01*
X247286244Y-93596393D01*
X247290436Y-93600126D01*
X247294770Y-93603705D01*
X247299242Y-93607125D01*
X247303851Y-93610383D01*
X247308593Y-93613474D01*
X247313465Y-93616392D01*
X247318465Y-93619134D01*
X247323591Y-93621694D01*
X247328839Y-93624068D01*
X247334207Y-93626252D01*
X247339692Y-93628240D01*
X247345291Y-93630028D01*
X247410418Y-93650955D01*
X247474788Y-93674015D01*
X247538339Y-93699159D01*
X247601011Y-93726337D01*
X247662739Y-93755499D01*
X247723463Y-93786595D01*
X247783120Y-93819577D01*
X247841649Y-93854395D01*
X247851737Y-93860300D01*
X247862123Y-93865321D01*
X247872761Y-93869468D01*
X247883602Y-93872750D01*
X247894598Y-93875177D01*
X247905701Y-93876756D01*
X247916863Y-93877499D01*
X247928036Y-93877414D01*
X247939171Y-93876510D01*
X247950221Y-93874797D01*
X247961138Y-93872284D01*
X247971874Y-93868980D01*
X247982380Y-93864895D01*
X247992608Y-93860038D01*
X248002511Y-93854418D01*
X248012041Y-93848045D01*
X248140099Y-93758087D01*
X248146630Y-93752196D01*
X248153314Y-93746629D01*
X248160138Y-93741387D01*
X248167089Y-93736471D01*
X248174151Y-93731884D01*
X248181313Y-93727626D01*
X248188559Y-93723698D01*
X248195877Y-93720102D01*
X248203251Y-93716840D01*
X248210670Y-93713912D01*
X248218118Y-93711321D01*
X248225582Y-93709066D01*
X248233049Y-93707151D01*
X248240504Y-93705575D01*
X248247934Y-93704341D01*
X248255325Y-93703450D01*
X248262663Y-93702903D01*
X248269935Y-93702702D01*
X248277127Y-93702847D01*
X248284225Y-93703341D01*
X248291214Y-93704184D01*
X248298083Y-93705378D01*
X248304816Y-93706925D01*
X248311400Y-93708825D01*
X248317821Y-93711080D01*
X248324066Y-93713691D01*
X248330121Y-93716661D01*
X248335971Y-93719989D01*
X248341604Y-93723678D01*
X248347005Y-93727728D01*
X248352161Y-93732142D01*
X248357057Y-93736920D01*
X248562374Y-93954937D01*
X248813199Y-94220578D01*
X248822953Y-94232043D01*
X248830842Y-94243798D01*
X248836955Y-94255817D01*
X248841381Y-94268073D01*
X248844209Y-94280541D01*
X248845527Y-94293195D01*
X248845425Y-94306008D01*
X248843990Y-94318954D01*
X248841312Y-94332007D01*
X248837479Y-94345140D01*
X248832581Y-94358329D01*
X248826705Y-94371546D01*
X248819941Y-94384765D01*
X248812378Y-94397960D01*
X248795208Y-94424175D01*
X248775904Y-94449980D01*
X248755177Y-94475167D01*
X248733737Y-94499526D01*
X248712294Y-94522848D01*
X248672238Y-94565543D01*
X248655046Y-94584498D01*
X248640691Y-94601578D01*
X248602295Y-94652196D01*
X248565500Y-94703906D01*
X248530019Y-94756508D01*
X248495567Y-94809805D01*
X248428611Y-94917689D01*
X248362350Y-95025970D01*
X248357924Y-95033850D01*
X248353338Y-95041580D01*
X248350964Y-95045374D01*
X248348528Y-95049112D01*
X248346019Y-95052789D01*
X248343432Y-95056397D01*
X248340758Y-95059930D01*
X248337990Y-95063383D01*
X248335119Y-95066750D01*
X248332138Y-95070023D01*
X248329039Y-95073197D01*
X248325814Y-95076265D01*
X248322457Y-95079222D01*
X248318958Y-95082061D01*
X248315314Y-95084751D01*
X248311535Y-95087254D01*
X248307635Y-95089559D01*
X248303629Y-95091653D01*
X248299529Y-95093523D01*
X248295350Y-95095158D01*
X248291106Y-95096545D01*
X248286811Y-95097672D01*
X248282479Y-95098526D01*
X248278123Y-95099094D01*
X248273758Y-95099365D01*
X248269398Y-95099326D01*
X248265057Y-95098964D01*
X248260748Y-95098267D01*
X248256485Y-95097223D01*
X248252283Y-95095820D01*
X248249939Y-95094772D01*
X248247667Y-95093618D01*
X248245466Y-95092359D01*
X248243334Y-95091001D01*
X248241270Y-95089548D01*
X248239272Y-95088004D01*
X248235465Y-95084658D01*
X248231900Y-95080995D01*
X248228563Y-95077049D01*
X248225440Y-95072851D01*
X248222517Y-95068435D01*
X248219780Y-95063833D01*
X248217215Y-95059078D01*
X248214808Y-95054201D01*
X248212546Y-95049236D01*
X248210413Y-95044216D01*
X248208397Y-95039172D01*
X248204658Y-95029145D01*
X248162986Y-94901351D01*
X248151545Y-94869217D01*
X248145440Y-94853377D01*
X248139024Y-94837752D01*
X248132255Y-94822387D01*
X248125090Y-94807329D01*
X248117489Y-94792624D01*
X248109408Y-94778320D01*
X248100844Y-94764293D01*
X248091846Y-94750392D01*
X248082451Y-94736618D01*
X248072697Y-94722972D01*
X248062620Y-94709457D01*
X248052258Y-94696074D01*
X248030826Y-94669708D01*
X248008701Y-94643889D01*
X247986178Y-94618627D01*
X247941133Y-94569828D01*
X247882051Y-94511411D01*
X247819664Y-94457153D01*
X247754214Y-94406968D01*
X247685942Y-94360774D01*
X247615091Y-94318487D01*
X247541901Y-94280022D01*
X247466616Y-94245297D01*
X247389477Y-94214228D01*
X247310725Y-94186730D01*
X247230603Y-94162721D01*
X247149352Y-94142116D01*
X247067214Y-94124832D01*
X246984432Y-94110785D01*
X246901246Y-94099891D01*
X246817899Y-94092066D01*
X246734633Y-94087228D01*
X246731812Y-94087238D01*
X246728928Y-94087311D01*
X246727475Y-94087389D01*
X246726020Y-94087507D01*
X246724568Y-94087671D01*
X246723124Y-94087889D01*
X246721692Y-94088170D01*
X246720277Y-94088520D01*
X246718884Y-94088948D01*
X246717518Y-94089460D01*
X246716182Y-94090066D01*
X246714882Y-94090773D01*
X246713623Y-94091588D01*
X246713009Y-94092039D01*
X246712408Y-94092520D01*
X246711639Y-94093536D01*
X246710918Y-94094597D01*
X246710243Y-94095698D01*
X246709613Y-94096836D01*
X246709027Y-94098004D01*
X246708483Y-94099198D01*
X246707979Y-94100414D01*
X246707513Y-94101648D01*
X246707085Y-94102893D01*
X246706693Y-94104147D01*
X246706334Y-94105403D01*
X246706008Y-94106658D01*
X246705448Y-94109145D01*
X246705000Y-94111570D01*
X246600225Y-94676720D01*
X246598325Y-94686772D01*
X246597478Y-94691875D01*
X246596735Y-94697010D01*
X246596123Y-94702164D01*
X246595667Y-94707322D01*
X246595394Y-94712472D01*
X246595330Y-94717598D01*
X246595502Y-94722687D01*
X246595936Y-94727724D01*
X246596658Y-94732697D01*
X246597695Y-94737590D01*
X246599073Y-94742391D01*
X246600818Y-94747084D01*
X246602957Y-94751657D01*
X246604182Y-94753894D01*
X246605516Y-94756095D01*
X246607469Y-94758985D01*
X246609552Y-94761707D01*
X246611761Y-94764266D01*
X246614090Y-94766666D01*
X246616534Y-94768912D01*
X246619088Y-94771010D01*
X246621745Y-94772965D01*
X246624500Y-94774781D01*
X246630285Y-94778018D01*
X246636398Y-94780763D01*
X246642797Y-94783055D01*
X246649437Y-94784934D01*
X246656276Y-94786441D01*
X246663270Y-94787617D01*
X246670375Y-94788501D01*
X246677549Y-94789134D01*
X246684748Y-94789557D01*
X246691928Y-94789808D01*
X246706058Y-94789961D01*
X247180191Y-94784670D01*
X247243369Y-94784021D01*
X247306596Y-94784041D01*
X247369724Y-94785302D01*
X247432604Y-94788374D01*
X247463904Y-94790767D01*
X247495087Y-94793827D01*
X247526133Y-94797625D01*
X247557024Y-94802231D01*
X247587741Y-94807719D01*
X247618267Y-94814158D01*
X247648581Y-94821621D01*
X247678666Y-94830178D01*
X247707711Y-94839728D01*
X247735901Y-94850493D01*
X247763227Y-94862437D01*
X247789677Y-94875521D01*
X247815242Y-94889709D01*
X247839910Y-94904964D01*
X247863670Y-94921249D01*
X247886513Y-94938525D01*
X247908427Y-94956756D01*
X247929401Y-94975906D01*
X247949426Y-94995935D01*
X247968490Y-95016809D01*
X248003694Y-95060936D01*
X248034927Y-95107991D01*
X248062105Y-95157674D01*
X248085142Y-95209690D01*
X248103953Y-95263739D01*
X248118453Y-95319525D01*
X248128556Y-95376749D01*
X248134177Y-95435115D01*
X248135231Y-95494323D01*
X248131632Y-95554078D01*
X248125391Y-95605611D01*
X248117027Y-95652071D01*
X248106001Y-95693765D01*
X248091780Y-95731002D01*
X248083302Y-95748045D01*
X248073825Y-95764090D01*
X248063280Y-95779175D01*
X248051600Y-95793338D01*
X248038719Y-95806618D01*
X248024570Y-95819055D01*
X248009085Y-95830685D01*
X247992197Y-95841548D01*
X247973840Y-95851682D01*
X247953946Y-95861127D01*
X247909279Y-95878100D01*
X247857661Y-95892775D01*
X247798555Y-95905461D01*
X247731425Y-95916467D01*
X247655734Y-95926101D01*
X247570946Y-95934671D01*
X247476525Y-95942487D01*
X247494252Y-95867742D01*
X247501230Y-95836967D01*
X247504335Y-95822405D01*
X247507216Y-95808078D01*
X247518953Y-95742265D01*
X247527391Y-95683112D01*
X247532256Y-95630284D01*
X247533265Y-95606138D01*
X247533278Y-95583447D01*
X247532261Y-95562170D01*
X247530181Y-95542265D01*
X247527004Y-95523690D01*
X247522694Y-95506403D01*
X247517219Y-95490363D01*
X247510544Y-95475528D01*
X247502635Y-95461855D01*
X247493458Y-95449303D01*
X247482978Y-95437830D01*
X247471162Y-95427394D01*
X247457976Y-95417954D01*
X247443385Y-95409467D01*
X247427356Y-95401891D01*
X247409854Y-95395185D01*
X247390844Y-95389307D01*
X247370294Y-95384215D01*
X247348169Y-95379868D01*
X247324434Y-95376222D01*
X247272001Y-95370870D01*
X247212722Y-95367826D01*
X247146324Y-95366753D01*
X246812949Y-95366753D01*
X246772516Y-95365821D01*
X246727803Y-95364057D01*
X246680585Y-95363014D01*
X246656591Y-95363246D01*
X246632636Y-95364239D01*
X246608941Y-95366188D01*
X246585728Y-95369285D01*
X246563219Y-95373725D01*
X246541636Y-95379701D01*
X246531260Y-95383326D01*
X246521199Y-95387407D01*
X246511481Y-95391970D01*
X246502132Y-95397037D01*
X246493181Y-95402634D01*
X246484655Y-95408785D01*
X246476583Y-95415514D01*
X246468991Y-95422845D01*
X246462698Y-95429808D01*
X246456893Y-95437178D01*
X246451543Y-95444913D01*
X246446617Y-95452974D01*
X246442082Y-95461320D01*
X246437905Y-95469911D01*
X246434053Y-95478707D01*
X246430494Y-95487667D01*
X246427196Y-95496752D01*
X246424126Y-95505919D01*
X246418538Y-95524345D01*
X246408666Y-95560428D01*
X246369375Y-95712034D01*
X246360576Y-95750184D01*
X246352855Y-95788432D01*
X246346549Y-95826781D01*
X246344030Y-95845992D01*
X246341991Y-95865228D01*
X246340451Y-95887852D01*
X246339593Y-95910488D01*
X246338684Y-95955847D01*
X246338012Y-95978595D01*
X246336782Y-96001406D01*
X246335861Y-96012838D01*
X246334684Y-96024290D01*
X246333213Y-96035764D01*
X246331408Y-96047261D01*
X246327132Y-96068830D01*
X246322059Y-96089883D01*
X246316208Y-96110424D01*
X246309600Y-96130460D01*
X246302256Y-96149996D01*
X246294196Y-96169035D01*
X246285441Y-96187584D01*
X246276011Y-96205648D01*
X246265926Y-96223230D01*
X246255208Y-96240337D01*
X246231953Y-96273145D01*
X246206410Y-96304111D01*
X246178743Y-96333276D01*
X246149117Y-96360679D01*
X246117695Y-96386362D01*
X246084642Y-96410364D01*
X246050123Y-96432726D01*
X246014301Y-96453488D01*
X245977342Y-96472691D01*
X245939409Y-96490374D01*
X245900666Y-96506578D01*
X245886133Y-96512118D01*
X245871513Y-96517265D01*
X245842061Y-96526587D01*
X245812411Y-96534967D01*
X245782662Y-96542826D01*
X245752913Y-96550586D01*
X245723263Y-96558668D01*
X245693812Y-96567494D01*
X245679191Y-96572318D01*
X245664658Y-96577486D01*
X245652487Y-96581008D01*
X245643896Y-96583569D01*
X245639344Y-96585033D01*
X245634760Y-96586614D01*
X245630251Y-96588306D01*
X245625921Y-96590105D01*
X245621877Y-96592007D01*
X245618223Y-96594006D01*
X245616576Y-96595040D01*
X245615066Y-96596098D01*
X245613706Y-96597177D01*
X245612510Y-96598278D01*
X245611491Y-96599400D01*
X245610661Y-96600543D01*
X245610035Y-96601705D01*
X245609625Y-96602886D01*
X245862566Y-95401677D01*
X245894846Y-95251840D01*
X245927918Y-95102301D01*
X245994858Y-94803719D01*
X246011494Y-94729751D01*
X246029518Y-94655684D01*
X246048734Y-94581816D01*
X246068941Y-94508444D01*
X246085445Y-94456437D01*
X246094205Y-94427277D01*
X246098202Y-94412293D01*
X246101749Y-94397186D01*
X246104702Y-94382068D01*
X246106913Y-94367047D01*
X246108237Y-94352233D01*
X246108529Y-94337738D01*
X246107643Y-94323670D01*
X246106713Y-94316831D01*
X246105433Y-94310141D01*
X246103786Y-94303612D01*
X246101753Y-94297259D01*
X246099317Y-94291095D01*
X246096458Y-94285135D01*
X246086938Y-94271212D01*
X246075152Y-94261817D01*
X246061259Y-94256698D01*
X246045418Y-94255603D01*
X246027788Y-94258279D01*
X246008528Y-94264474D01*
X245987797Y-94273934D01*
X245965754Y-94286409D01*
X245942557Y-94301644D01*
X245918365Y-94319388D01*
X245867634Y-94361391D01*
X245814833Y-94410399D01*
X245761231Y-94464391D01*
X245708100Y-94521347D01*
X245656712Y-94579247D01*
X245564248Y-94689799D01*
X245494010Y-94779888D01*
X245456166Y-94833352D01*
X245428552Y-94880471D01*
X245402483Y-94928522D01*
X245377992Y-94977443D01*
X245355112Y-95027176D01*
X245333875Y-95077659D01*
X245314314Y-95128832D01*
X245296462Y-95180634D01*
X245280350Y-95233005D01*
X245266013Y-95285885D01*
X245253481Y-95339213D01*
X245242788Y-95392928D01*
X245233966Y-95446970D01*
X245227048Y-95501279D01*
X245222066Y-95555795D01*
X245219053Y-95610456D01*
X245218041Y-95665202D01*
X245218561Y-95705481D01*
X245220118Y-95745735D01*
X245222708Y-95785939D01*
X245226326Y-95826069D01*
X245230967Y-95866099D01*
X245236626Y-95906006D01*
X245243299Y-95945764D01*
X245250982Y-95985348D01*
X245259669Y-96024734D01*
X245269356Y-96063896D01*
X245280038Y-96102811D01*
X245291711Y-96141452D01*
X245304370Y-96179796D01*
X245318010Y-96217817D01*
X245332627Y-96255492D01*
X245348216Y-96292794D01*
X245358998Y-96316835D01*
X245370278Y-96340559D01*
X245382007Y-96363999D01*
X245394138Y-96387184D01*
X245419412Y-96432915D01*
X245445715Y-96478002D01*
X245499872Y-96567233D01*
X245526956Y-96611873D01*
X245553533Y-96656860D01*
X245558023Y-96664568D01*
X245562762Y-96672191D01*
X245567753Y-96679693D01*
X245572996Y-96687039D01*
X245578494Y-96694192D01*
X245584247Y-96701118D01*
X245590258Y-96707779D01*
X245596528Y-96714142D01*
X245603058Y-96720170D01*
X245609850Y-96725827D01*
X245616905Y-96731078D01*
X245624226Y-96735888D01*
X245631814Y-96740219D01*
X245639669Y-96744038D01*
X245647794Y-96747308D01*
X245651959Y-96748726D01*
X245656191Y-96749993D01*
X245661386Y-96751248D01*
X245666646Y-96752242D01*
X245671962Y-96752989D01*
X245677325Y-96753499D01*
X245682725Y-96753786D01*
X245688152Y-96753863D01*
X245693598Y-96753741D01*
X245699054Y-96753433D01*
X245704509Y-96752951D01*
X245709955Y-96752308D01*
X245715383Y-96751517D01*
X245720783Y-96750588D01*
X245726145Y-96749536D01*
X245731461Y-96748373D01*
X245741916Y-96745760D01*
X245763043Y-96739710D01*
X245783981Y-96733130D01*
X245825425Y-96718739D01*
X245907545Y-96687552D01*
X245948766Y-96672193D01*
X245990459Y-96657951D01*
X246011567Y-96651473D01*
X246032896Y-96645545D01*
X246054478Y-96640254D01*
X246076350Y-96635693D01*
X246111539Y-96629078D01*
X246121081Y-96626929D01*
X246125827Y-96625711D01*
X246130523Y-96624382D01*
X246135145Y-96622929D01*
X246139668Y-96621339D01*
X246144066Y-96619601D01*
X246148316Y-96617701D01*
X246149879Y-96617053D01*
X246151391Y-96616497D01*
X246152852Y-96616032D01*
X246154261Y-96615657D01*
X246155617Y-96615371D01*
X246156920Y-96615174D01*
X246158169Y-96615063D01*
X246159363Y-96615039D01*
X246160500Y-96615100D01*
X246161582Y-96615246D01*
X246162605Y-96615474D01*
X246163571Y-96615785D01*
X246164478Y-96616178D01*
X246165325Y-96616651D01*
X246166112Y-96617203D01*
X246166837Y-96617834D01*
X246167501Y-96618542D01*
X246168101Y-96619327D01*
X246168638Y-96620188D01*
X246169111Y-96621123D01*
X246169519Y-96622131D01*
X246169860Y-96623213D01*
X246170135Y-96624366D01*
X246170343Y-96625590D01*
X246170482Y-96626883D01*
X246170553Y-96628246D01*
X246170553Y-96629676D01*
X246170484Y-96631173D01*
X246170342Y-96632736D01*
X246170129Y-96634364D01*
X246169843Y-96636055D01*
X246169483Y-96637810D01*
X246164156Y-96664490D01*
X246159214Y-96691305D01*
X246150036Y-96745098D01*
X246141057Y-96798693D01*
X246136363Y-96825261D01*
X246131383Y-96851593D01*
X246124479Y-96883649D01*
X246117228Y-96913969D01*
X246109580Y-96942601D01*
X246101485Y-96969597D01*
X246097255Y-96982497D01*
X246092894Y-96995005D01*
X246088398Y-97007130D01*
X246083758Y-97018876D01*
X246078970Y-97030250D01*
X246074026Y-97041258D01*
X246068922Y-97051906D01*
X246063650Y-97062201D01*
X246105070Y-97083244D01*
X246147165Y-97103098D01*
X246189914Y-97121739D01*
X246233297Y-97139145D01*
X246277294Y-97155292D01*
X246321885Y-97170157D01*
X246367049Y-97183717D01*
X246412767Y-97195948D01*
X246459018Y-97206827D01*
X246505783Y-97216331D01*
X246553040Y-97224437D01*
X246600770Y-97231121D01*
X246648953Y-97236360D01*
X246697568Y-97240131D01*
X246746596Y-97242411D01*
X246796016Y-97243176D01*
X246824764Y-97242858D01*
X246853462Y-97241925D01*
X246910696Y-97238331D01*
X246967708Y-97232628D01*
X247024484Y-97225052D01*
X247081011Y-97215840D01*
X247137279Y-97205225D01*
X247193273Y-97193445D01*
X247248982Y-97180735D01*
X247250963Y-97180332D01*
X247252918Y-97179892D01*
X247253879Y-97179646D01*
X247254824Y-97179377D01*
X247255751Y-97179080D01*
X247256656Y-97178751D01*
X247257536Y-97178384D01*
X247258388Y-97177976D01*
X247259209Y-97177521D01*
X247259996Y-97177015D01*
X247260376Y-97176741D01*
X247260746Y-97176453D01*
X247261106Y-97176149D01*
X247261455Y-97175830D01*
X247261794Y-97175495D01*
X247262121Y-97175143D01*
X247262437Y-97174773D01*
X247262741Y-97174385D01*
X247263300Y-97173556D01*
X247263789Y-97172659D01*
X247264213Y-97171704D01*
X247264576Y-97170698D01*
X247264884Y-97169648D01*
X247265141Y-97168562D01*
X247265351Y-97167449D01*
X247265519Y-97166315D01*
X247265650Y-97165169D01*
X247265748Y-97164019D01*
X247265866Y-97161735D01*
X247265910Y-97159525D01*
X247265916Y-97157451D01*
X247262162Y-97089850D01*
X247260912Y-97056397D01*
X247260492Y-97023043D01*
X247261213Y-96989689D01*
X247262099Y-96972981D01*
X247263386Y-96956236D01*
X247265113Y-96939441D01*
X247267319Y-96922584D01*
X247270043Y-96905653D01*
X247273324Y-96888635D01*
X247300179Y-96761105D01*
X247326241Y-96633576D01*
X247341481Y-96561779D01*
X247356633Y-96498047D01*
X247372278Y-96441862D01*
X247388997Y-96392706D01*
X247397941Y-96370602D01*
X247407372Y-96350061D01*
X247417361Y-96331018D01*
X247427983Y-96313409D01*
X247439310Y-96297169D01*
X247451414Y-96282234D01*
X247464368Y-96268537D01*
X247478244Y-96256016D01*
X247493116Y-96244604D01*
X247509055Y-96234238D01*
X247526135Y-96224852D01*
X247544429Y-96216382D01*
X247564009Y-96208763D01*
X247584947Y-96201930D01*
X247607316Y-96195820D01*
X247631190Y-96190366D01*
X247683739Y-96181170D01*
X247743177Y-96173825D01*
X247810083Y-96167814D01*
X247885041Y-96162618D01*
X247895977Y-96161997D01*
X247906179Y-96161717D01*
X247915669Y-96161773D01*
X247924468Y-96162159D01*
X247932599Y-96162869D01*
X247940084Y-96163897D01*
X247946945Y-96165237D01*
X247953204Y-96166884D01*
X247958884Y-96168832D01*
X247964005Y-96171074D01*
X247968591Y-96173606D01*
X247972664Y-96176421D01*
X247976244Y-96179514D01*
X247979356Y-96182878D01*
X247982021Y-96186509D01*
X247984260Y-96190399D01*
X247986096Y-96194543D01*
X247987551Y-96198936D01*
X247988647Y-96203572D01*
X247989407Y-96208444D01*
X247989851Y-96213548D01*
X247990004Y-96218876D01*
X247989518Y-96230186D01*
X247988128Y-96242326D01*
X247986008Y-96255251D01*
X247980291Y-96283268D01*
X247965052Y-96347456D01*
X247947879Y-96412797D01*
X247912293Y-96545602D01*
X247896161Y-96612395D01*
X247889010Y-96645742D01*
X247882659Y-96679002D01*
X247877251Y-96712131D01*
X247872928Y-96745087D01*
X247869832Y-96777830D01*
X247868107Y-96810318D01*
X247884855Y-96796140D01*
X247901676Y-96781428D01*
X247918449Y-96766246D01*
X247935047Y-96750654D01*
X247951348Y-96734715D01*
X247967227Y-96718491D01*
X247982561Y-96702043D01*
X247997224Y-96685434D01*
X248012601Y-96666682D01*
X248027767Y-96647731D01*
X248042710Y-96628582D01*
X248057417Y-96609234D01*
X248071876Y-96589688D01*
X248086074Y-96569943D01*
X248100000Y-96550000D01*
X248113641Y-96529859D01*
X248123578Y-96514505D01*
X248133164Y-96499008D01*
X248151360Y-96467599D01*
X248168391Y-96435669D01*
X248184417Y-96403255D01*
X248199599Y-96370395D01*
X248214099Y-96337126D01*
X248228079Y-96303485D01*
X248241699Y-96269509D01*
X248247793Y-96255551D01*
X248254547Y-96242430D01*
X248261933Y-96230115D01*
X248269922Y-96218574D01*
X248278487Y-96207777D01*
X248287598Y-96197692D01*
X248297228Y-96188288D01*
X248307349Y-96179534D01*
X248317931Y-96171398D01*
X248328947Y-96163850D01*
X248340368Y-96156858D01*
X248352167Y-96150390D01*
X248376782Y-96138906D01*
X248402566Y-96129147D01*
X248429292Y-96120864D01*
X248456735Y-96113808D01*
X248484668Y-96107728D01*
X248512864Y-96102375D01*
X248623757Y-96083242D01*
X248711268Y-96067351D01*
X248799176Y-96052947D01*
X248887481Y-96039933D01*
X248976183Y-96028209D01*
X249105035Y-96002147D01*
X249147852Y-95995291D01*
X249169231Y-95992690D01*
X249190198Y-95990853D01*
X249210457Y-95989940D01*
X249229715Y-95990111D01*
X249247678Y-95991525D01*
X249264049Y-95994342D01*
X249265107Y-95991172D01*
X249270028Y-95992460D01*
X249274670Y-95993939D01*
X249279035Y-95995601D01*
X249283124Y-95997437D01*
X249286936Y-95999440D01*
X249290473Y-96001602D01*
X249293736Y-96003914D01*
X249296725Y-96006369D01*
X249299441Y-96008959D01*
X249301885Y-96011676D01*
X249304058Y-96014512D01*
X249305960Y-96017459D01*
X249307593Y-96020509D01*
X249308957Y-96023654D01*
X249310052Y-96026886D01*
X249310880Y-96030198D01*
X249311441Y-96033581D01*
X249311737Y-96037027D01*
X249311767Y-96040529D01*
X249311533Y-96044078D01*
X249311036Y-96047667D01*
X249310275Y-96051288D01*
X249309253Y-96054932D01*
X249307970Y-96058591D01*
X249306426Y-96062259D01*
X249304622Y-96065926D01*
X249302560Y-96069585D01*
X249300239Y-96073228D01*
X249297661Y-96076847D01*
X249294826Y-96080434D01*
X249291736Y-96083981D01*
X249288391Y-96087480D01*
X249278893Y-96096632D01*
X249269061Y-96105425D01*
X249258911Y-96113849D01*
X249248455Y-96121893D01*
X249237707Y-96129546D01*
X249226683Y-96136798D01*
X249215394Y-96143638D01*
X249203856Y-96150054D01*
X249192082Y-96156037D01*
X249180087Y-96161574D01*
X249167884Y-96166655D01*
X249155487Y-96171270D01*
X249142910Y-96175408D01*
X249130168Y-96179057D01*
X249117273Y-96182207D01*
X249104241Y-96184847D01*
X249093490Y-96186678D01*
X249082677Y-96188237D01*
X249060915Y-96190734D01*
X249017193Y-96194636D01*
X248995431Y-96196836D01*
X248973867Y-96199730D01*
X248963191Y-96201561D01*
X248952601Y-96203715D01*
X248942111Y-96206241D01*
X248931732Y-96209188D01*
X248921572Y-96212657D01*
X248911914Y-96216694D01*
X248902742Y-96221275D01*
X248894038Y-96226372D01*
X248885782Y-96231960D01*
X248877959Y-96238012D01*
X248870549Y-96244503D01*
X248863536Y-96251406D01*
X248856901Y-96258695D01*
X248850626Y-96266344D01*
X248839087Y-96282617D01*
X248828775Y-96300015D01*
X248819549Y-96318329D01*
X248811265Y-96337351D01*
X248803782Y-96356870D01*
X248796955Y-96376677D01*
X248790643Y-96396563D01*
X248767691Y-96472714D01*
X248760302Y-96494876D01*
X248752436Y-96516910D01*
X248744111Y-96538810D01*
X248735345Y-96560572D01*
X248716568Y-96603664D01*
X248696253Y-96646148D01*
X248674549Y-96687987D01*
X248651605Y-96729145D01*
X248627569Y-96769583D01*
X248602591Y-96809264D01*
X248596686Y-96819351D01*
X248591665Y-96829738D01*
X248587518Y-96840376D01*
X248584236Y-96851217D01*
X248581809Y-96862213D01*
X248580230Y-96873316D01*
X248579487Y-96884478D01*
X248579572Y-96895650D01*
X248580476Y-96906786D01*
X248582189Y-96917836D01*
X248584702Y-96928753D01*
X248588006Y-96939489D01*
X248592091Y-96949995D01*
X248596948Y-96960223D01*
X248602567Y-96970126D01*
X248608940Y-96979656D01*
X248698899Y-97104539D01*
X248704886Y-97111166D01*
X248710543Y-97117940D01*
X248715869Y-97124849D01*
X248720863Y-97131878D01*
X248725524Y-97139014D01*
X248729850Y-97146243D01*
X248733841Y-97153552D01*
X248737495Y-97160928D01*
X248740811Y-97168356D01*
X248743788Y-97175824D01*
X248746424Y-97183317D01*
X248748719Y-97190822D01*
X248750672Y-97198325D01*
X248752280Y-97205813D01*
X248753544Y-97213273D01*
X248754461Y-97220690D01*
X248755032Y-97228052D01*
X248755254Y-97235344D01*
X248755126Y-97242554D01*
X248754647Y-97249666D01*
X248753817Y-97256669D01*
X248752634Y-97263548D01*
X248751096Y-97270290D01*
X248749203Y-97276881D01*
X248746953Y-97283308D01*
X248744346Y-97289557D01*
X248741379Y-97295614D01*
X248738053Y-97301467D01*
X248734365Y-97307101D01*
X248730315Y-97312502D01*
X248725902Y-97317658D01*
X248721124Y-97322555D01*
X248335890Y-97685563D01*
X248330615Y-97690227D01*
X248325117Y-97694496D01*
X248319409Y-97698374D01*
X248313502Y-97701862D01*
X248307411Y-97704963D01*
X248301146Y-97707681D01*
X248294722Y-97710016D01*
X248288150Y-97711972D01*
X248281443Y-97713552D01*
X248274614Y-97714757D01*
X248267675Y-97715590D01*
X248260639Y-97716055D01*
X248253519Y-97716152D01*
X248246327Y-97715886D01*
X248239075Y-97715258D01*
X248231777Y-97714271D01*
X248224445Y-97712927D01*
X248217091Y-97711230D01*
X248209728Y-97709180D01*
X248202369Y-97706782D01*
X248195026Y-97704037D01*
X248187712Y-97700949D01*
X248180440Y-97697518D01*
X248173221Y-97693749D01*
X248166070Y-97689644D01*
X248158997Y-97685204D01*
X248152017Y-97680434D01*
X248145140Y-97675334D01*
X248138381Y-97669908D01*
X248131752Y-97664158D01*
X248125265Y-97658087D01*
X248118932Y-97651697D01*
X247997224Y-97554331D01*
X247988055Y-97547548D01*
X247978440Y-97541494D01*
X247968433Y-97536178D01*
X247958082Y-97531609D01*
X247947440Y-97527797D01*
X247936558Y-97524751D01*
X247925486Y-97522480D01*
X247914277Y-97520993D01*
X247902981Y-97520300D01*
X247891649Y-97520410D01*
X247880333Y-97521333D01*
X247869083Y-97523077D01*
X247857951Y-97525652D01*
X247846988Y-97529067D01*
X247836245Y-97533332D01*
X247825774Y-97538456D01*
X247765352Y-97569348D01*
X247703950Y-97598466D01*
X247641581Y-97625724D01*
X247578256Y-97651035D01*
X247513989Y-97674313D01*
X247448792Y-97695469D01*
X247382678Y-97714418D01*
X247315657Y-97731072D01*
X247304339Y-97734254D01*
X247293420Y-97738220D01*
X247282929Y-97742936D01*
X247272894Y-97748369D01*
X247263343Y-97754484D01*
X247254303Y-97761247D01*
X247245802Y-97768624D01*
X247237870Y-97776580D01*
X247230532Y-97785083D01*
X247223818Y-97794097D01*
X247217755Y-97803588D01*
X247212370Y-97813523D01*
X247207693Y-97823867D01*
X247203751Y-97834586D01*
X247200571Y-97845647D01*
X247198182Y-97857014D01*
X247170666Y-98010472D01*
X247170199Y-98019437D01*
X247169399Y-98028268D01*
X247168275Y-98036954D01*
X247166835Y-98045485D01*
X247165088Y-98053852D01*
X247163040Y-98062043D01*
X247160702Y-98070048D01*
X247158081Y-98077858D01*
X247155186Y-98085461D01*
X247152025Y-98092848D01*
X247148605Y-98100008D01*
X247144937Y-98106931D01*
X247141027Y-98113606D01*
X247136885Y-98120025D01*
X247132518Y-98126175D01*
X247127935Y-98132047D01*
X247123145Y-98137631D01*
X247118155Y-98142917D01*
X247112974Y-98147893D01*
X247107610Y-98152551D01*
X247102072Y-98156878D01*
X247096368Y-98160867D01*
X247090505Y-98164505D01*
X247084494Y-98167783D01*
X247078342Y-98170690D01*
X247072056Y-98173217D01*
X247065647Y-98175353D01*
X247059121Y-98177087D01*
X247052487Y-98178410D01*
X247045755Y-98179310D01*
X247038931Y-98179779D01*
X247032024Y-98179805D01*
X246499682Y-98162871D01*
X246492881Y-98162349D01*
X246486175Y-98161386D01*
X246479572Y-98159993D01*
X246473081Y-98158183D01*
X246466711Y-98155967D01*
X246460469Y-98153356D01*
X246454363Y-98150362D01*
X246448403Y-98146996D01*
X246442596Y-98143271D01*
X246436951Y-98139198D01*
X246431476Y-98134789D01*
X246426180Y-98130055D01*
X246421070Y-98125007D01*
X246416156Y-98119658D01*
X246406946Y-98108103D01*
X246398616Y-98095480D01*
X246391234Y-98081884D01*
X246384866Y-98067407D01*
X246379578Y-98052143D01*
X246375437Y-98036184D01*
X246372511Y-98019624D01*
X246370865Y-98002555D01*
X246370566Y-97985071D01*
X246353632Y-97830555D01*
X246351850Y-97818964D01*
X246349296Y-97807635D01*
X246345991Y-97796603D01*
X246341958Y-97785906D01*
X246337217Y-97775581D01*
X246331792Y-97765665D01*
X246325703Y-97756196D01*
X246318972Y-97747210D01*
X246315373Y-97742911D01*
X246311621Y-97738746D01*
X246307720Y-97734720D01*
X246303672Y-97730839D01*
X246299479Y-97727107D01*
X246295146Y-97723528D01*
X246290673Y-97720107D01*
X246286064Y-97716849D01*
X246281323Y-97713759D01*
X246276450Y-97710841D01*
X246271450Y-97708099D01*
X246266324Y-97705539D01*
X246261076Y-97703164D01*
X246255708Y-97700981D01*
X246250223Y-97698992D01*
X246244624Y-97697204D01*
X246179498Y-97676277D01*
X246115127Y-97653217D01*
X246051576Y-97628073D01*
X245988905Y-97600896D01*
X245927176Y-97571734D01*
X245866452Y-97540637D01*
X245806795Y-97507655D01*
X245748266Y-97472837D01*
X245738179Y-97466932D01*
X245727792Y-97461911D01*
X245717154Y-97457764D01*
X245706313Y-97454482D01*
X245695317Y-97452056D01*
X245684214Y-97450476D01*
X245673052Y-97449734D01*
X245661880Y-97449819D01*
X245650744Y-97450723D01*
X245639694Y-97452436D01*
X245628777Y-97454949D01*
X245618041Y-97458252D01*
X245607535Y-97462337D01*
X245597307Y-97467194D01*
X245587404Y-97472814D01*
X245577874Y-97479187D01*
X245449816Y-97569146D01*
X245443285Y-97575036D01*
X245436601Y-97580603D01*
X245429777Y-97585845D01*
X245422827Y-97590761D01*
X245415764Y-97595348D01*
X245408602Y-97599606D01*
X245401356Y-97603534D01*
X245394039Y-97607130D01*
X245386664Y-97610392D01*
X245379246Y-97613320D01*
X245371797Y-97615911D01*
X245364333Y-97618166D01*
X245356866Y-97620081D01*
X245349411Y-97621657D01*
X245341981Y-97622891D01*
X245334590Y-97623782D01*
X245327252Y-97624329D01*
X245319980Y-97624530D01*
X245312788Y-97624385D01*
X245305691Y-97623891D01*
X245298701Y-97623048D01*
X245291832Y-97621854D01*
X245285099Y-97620307D01*
X245278515Y-97618407D01*
X245272094Y-97616152D01*
X245265849Y-97613541D01*
X245259794Y-97610571D01*
X245253944Y-97607243D01*
X245248311Y-97603554D01*
X245242910Y-97599504D01*
X245237754Y-97595090D01*
X245232858Y-97590312D01*
X245027541Y-97372296D01*
X244776716Y-97106653D01*
X244772149Y-97101570D01*
X244767970Y-97096253D01*
X244764177Y-97090713D01*
X244760767Y-97084964D01*
X244757739Y-97079019D01*
X244755090Y-97072890D01*
X244752818Y-97066592D01*
X244750920Y-97060136D01*
X244749394Y-97053537D01*
X244748238Y-97046806D01*
X244747449Y-97039957D01*
X244747025Y-97033002D01*
X244746964Y-97025956D01*
X244747264Y-97018830D01*
X244747922Y-97011637D01*
X244748935Y-97004392D01*
X244750302Y-96997106D01*
X244752020Y-96989793D01*
X244754087Y-96982466D01*
X244756501Y-96975137D01*
X244759258Y-96967820D01*
X244762358Y-96960527D01*
X244765797Y-96953272D01*
X244769573Y-96946068D01*
X244773684Y-96938927D01*
X244778127Y-96931863D01*
X244782901Y-96924888D01*
X244788003Y-96918016D01*
X244793430Y-96911259D01*
X244799180Y-96904631D01*
X244805251Y-96898144D01*
X244811641Y-96891812D01*
X244909008Y-96770104D01*
X244914875Y-96762034D01*
X244920172Y-96753714D01*
X244924902Y-96745168D01*
X244929067Y-96736419D01*
X244932667Y-96727490D01*
X244935704Y-96718405D01*
X244938180Y-96709186D01*
X244940097Y-96699857D01*
X244941455Y-96690441D01*
X244942257Y-96680962D01*
X244942503Y-96671442D01*
X244942197Y-96661906D01*
X244941338Y-96652375D01*
X244939929Y-96642874D01*
X244937971Y-96633426D01*
X244935466Y-96624054D01*
X244934623Y-96620835D01*
X244933680Y-96617555D01*
X244932639Y-96614250D01*
X244931498Y-96610957D01*
X244930257Y-96607714D01*
X244928918Y-96604558D01*
X244928211Y-96603024D01*
X244927479Y-96601525D01*
X244926723Y-96600067D01*
X244925941Y-96598654D01*
X244894396Y-96538490D01*
X244864872Y-96477111D01*
X244837407Y-96414591D01*
X244812038Y-96351004D01*
X244788802Y-96286425D01*
X244767737Y-96220928D01*
X244748879Y-96154588D01*
X244732266Y-96087479D01*
X244729085Y-96076160D01*
X244725119Y-96065241D01*
X244720402Y-96054751D01*
X244714969Y-96044715D01*
X244708854Y-96035164D01*
X244702091Y-96026124D01*
X244694715Y-96017624D01*
X244686758Y-96009691D01*
X244678256Y-96002354D01*
X244669242Y-95995639D01*
X244659750Y-95989576D01*
X244649816Y-95984192D01*
X244639471Y-95979515D01*
X244628752Y-95975572D01*
X244617692Y-95972393D01*
X244606325Y-95970004D01*
X244452866Y-95942487D01*
X244450894Y-95942638D01*
X244448947Y-95942700D01*
X244447025Y-95942685D01*
X244445127Y-95942603D01*
X244443254Y-95942465D01*
X244441406Y-95942283D01*
X244437785Y-95941826D01*
X244430840Y-95940850D01*
X244429165Y-95940657D01*
X244427516Y-95940505D01*
X244425891Y-95940406D01*
X244424291Y-95940371D01*
X244416613Y-95938958D01*
X244409060Y-95937302D01*
X244401642Y-95935411D01*
X244394366Y-95933289D01*
X244387242Y-95930942D01*
X244380278Y-95928376D01*
X244373481Y-95925597D01*
X244366860Y-95922610D01*
X244360424Y-95919422D01*
X244354181Y-95916039D01*
X244348138Y-95912465D01*
X244342306Y-95908707D01*
X244336691Y-95904771D01*
X244331302Y-95900663D01*
X244326147Y-95896388D01*
X244321236Y-95891952D01*
X244316576Y-95887361D01*
X244312175Y-95882621D01*
X244308042Y-95877737D01*
X244304185Y-95872716D01*
X244300612Y-95867563D01*
X244297333Y-95862284D01*
X244294354Y-95856885D01*
X244291685Y-95851371D01*
X244289334Y-95845749D01*
X244287309Y-95840025D01*
X244285619Y-95834203D01*
X244284271Y-95828291D01*
X244283274Y-95822293D01*
X244282637Y-95816215D01*
X244282368Y-95810064D01*
X244282475Y-95803846D01*
X244297291Y-95272562D01*
X244297515Y-95269225D01*
X244297791Y-95265962D01*
X244298124Y-95262770D01*
X244298515Y-95259647D01*
X244298968Y-95256593D01*
X244299486Y-95253605D01*
X244300073Y-95250682D01*
X244300731Y-95247823D01*
X244301463Y-95245026D01*
X244302273Y-95242290D01*
X244303163Y-95239612D01*
X244304137Y-95236992D01*
X244305198Y-95234428D01*
X244306349Y-95231918D01*
X244307593Y-95229460D01*
X244308933Y-95227054D01*
X244314334Y-95217534D01*
X244320587Y-95208442D01*
X244327653Y-95199809D01*
X244335491Y-95191666D01*
X244344060Y-95184043D01*
X244353321Y-95176973D01*
X244363233Y-95170486D01*
X244373756Y-95164612D01*
X244384849Y-95159383D01*
X244396473Y-95154831D01*
X244408586Y-95150985D01*
X244421149Y-95147877D01*
X244434122Y-95145538D01*
X244447463Y-95143999D01*
X244461133Y-95143292D01*
X244475091Y-95143446D01*
X244629608Y-95126512D01*
X244641198Y-95124730D01*
X244652527Y-95122175D01*
X244663559Y-95118871D01*
X244674256Y-95114837D01*
X244684581Y-95110097D01*
X244694497Y-95104672D01*
X244703966Y-95098582D01*
X244712952Y-95091852D01*
X244717251Y-95088252D01*
X244721416Y-95084501D01*
X244725442Y-95080599D01*
X244729323Y-95076551D01*
X244733055Y-95072359D01*
X244736634Y-95068025D01*
X244740055Y-95063553D01*
X244743313Y-95058944D01*
X244746403Y-95054202D01*
X244749321Y-95049330D01*
X244752063Y-95044329D01*
X244754623Y-95039204D01*
X244756998Y-95033956D01*
X244759181Y-95028588D01*
X244761170Y-95023103D01*
X244762958Y-95017504D01*
X244771447Y-94989032D01*
X244780271Y-94960784D01*
X244789468Y-94932783D01*
X244799073Y-94905056D01*
X244809125Y-94877626D01*
X244819661Y-94850519D01*
X244830718Y-94823758D01*
X244842333Y-94797370D01*
X244858156Y-94761013D01*
X244874662Y-94724990D01*
X244891837Y-94689340D01*
X244909669Y-94654099D01*
X244928147Y-94619304D01*
X244947257Y-94584993D01*
X244966987Y-94551202D01*
X244987324Y-94517970D01*
X244993229Y-94507883D01*
X244998251Y-94497496D01*
X245002398Y-94486858D01*
X245005680Y-94476017D01*
X245008106Y-94465021D01*
X245009686Y-94453919D01*
X245010429Y-94442757D01*
X245010343Y-94431584D01*
X245009440Y-94420449D01*
X245007726Y-94409398D01*
X245005213Y-94398481D01*
X245001910Y-94387746D01*
X244997825Y-94377240D01*
X244992968Y-94367011D01*
X244987348Y-94357108D01*
X244980974Y-94347579D01*
X244891016Y-94222695D01*
X244885029Y-94216069D01*
X244879372Y-94209294D01*
X244874046Y-94202386D01*
X244869052Y-94195357D01*
X244864391Y-94188220D01*
X244860065Y-94180991D01*
X244856074Y-94173682D01*
X244852420Y-94166306D01*
X244849104Y-94158878D01*
X244846128Y-94151410D01*
X244843491Y-94143917D01*
X244841196Y-94136412D01*
X244839244Y-94128909D01*
X244837635Y-94121420D01*
X244836371Y-94113961D01*
X244835454Y-94106543D01*
X244834883Y-94099182D01*
X244834662Y-94091889D01*
X244834789Y-94084680D01*
X244835268Y-94077567D01*
X244836098Y-94070564D01*
X244837282Y-94063685D01*
X244838819Y-94056943D01*
X244840712Y-94050352D01*
X244842962Y-94043926D01*
X244845569Y-94037677D01*
X244848536Y-94031619D01*
X244851862Y-94025767D01*
X244855550Y-94020133D01*
X244859600Y-94014731D01*
X244864013Y-94009575D01*
X244868791Y-94004679D01*
X245254024Y-93641670D01*
X245259299Y-93637006D01*
X245264798Y-93632737D01*
X245270506Y-93628860D01*
X245276413Y-93625371D01*
X245282504Y-93622270D01*
X245288769Y-93619553D01*
X245295193Y-93617217D01*
X245301765Y-93615261D01*
X245308472Y-93613682D01*
X245315301Y-93612477D01*
X245322240Y-93611643D01*
X245329276Y-93611179D01*
X245336396Y-93611081D01*
X245343588Y-93611348D01*
X245350840Y-93611976D01*
X245358138Y-93612963D01*
X245365470Y-93614306D01*
X245372824Y-93616004D01*
X245380187Y-93618053D01*
X245387546Y-93620452D01*
X245394889Y-93623197D01*
X245402203Y-93626285D01*
X245409475Y-93629715D01*
X245416694Y-93633485D01*
X245423845Y-93637590D01*
X245430918Y-93642030D01*
X245437898Y-93646800D01*
X245444774Y-93651900D01*
X245451534Y-93657326D01*
X245458163Y-93663076D01*
X245464650Y-93669147D01*
X245470983Y-93675537D01*
X245592691Y-93772903D01*
X245601860Y-93779686D01*
X245611475Y-93785740D01*
X245621483Y-93791056D01*
X245631833Y-93795624D01*
X245642475Y-93799437D01*
X245653357Y-93802483D01*
X245664429Y-93804754D01*
X245675638Y-93806241D01*
X245686934Y-93806934D01*
X245698266Y-93806824D01*
X245709583Y-93805901D01*
X245720832Y-93804157D01*
X245731964Y-93801582D01*
X245742927Y-93798167D01*
X245753670Y-93793902D01*
X245764141Y-93788779D01*
X245824563Y-93757886D01*
X245885965Y-93728768D01*
X245948335Y-93701509D01*
X246011659Y-93676198D01*
X246075926Y-93652921D01*
X246141123Y-93631765D01*
X246207238Y-93612816D01*
X246274258Y-93596162D01*
X246285577Y-93592980D01*
X246296495Y-93589014D01*
X246306986Y-93584298D01*
X246317021Y-93578865D01*
X246326573Y-93572750D01*
X246335612Y-93565987D01*
X246344113Y-93558610D01*
X246352045Y-93550654D01*
X246359383Y-93542151D01*
X246366097Y-93533137D01*
X246372160Y-93523646D01*
X246377545Y-93513711D01*
X246382222Y-93503367D01*
X246386164Y-93492648D01*
X246389344Y-93481587D01*
X246391733Y-93470220D01*
X246419249Y-93316762D01*
X246419716Y-93307797D01*
X246420516Y-93298966D01*
X246421640Y-93290279D01*
X246423080Y-93281748D01*
X246424827Y-93273382D01*
X246426874Y-93265191D01*
X246429213Y-93257185D01*
X246431834Y-93249376D01*
X246434729Y-93241773D01*
X246437890Y-93234386D01*
X246441310Y-93227226D01*
X246444978Y-93220303D01*
X246448888Y-93213627D01*
X246453030Y-93207209D01*
X246457397Y-93201058D01*
X246461980Y-93195186D01*
X246466770Y-93189602D01*
X246471760Y-93184317D01*
X246476941Y-93179340D01*
X246482305Y-93174683D01*
X246487843Y-93170355D01*
X246493547Y-93166367D01*
X246499409Y-93162729D01*
X246505421Y-93159451D01*
X246511573Y-93156543D01*
X246517859Y-93154017D01*
X246524268Y-93151881D01*
X246530794Y-93150147D01*
X246537427Y-93148824D01*
X246544160Y-93147924D01*
X246550984Y-93147455D01*
X246557891Y-93147429D01*
X247090233Y-93164362D01*
G37*
G36*
X250616863Y-93949113D02*
G01*
X250615871Y-93953445D01*
X250614482Y-93959167D01*
X250455695Y-94080970D01*
X250290930Y-94210885D01*
X249950907Y-94487011D01*
X249609297Y-94771471D01*
X249280982Y-95048192D01*
X248946549Y-95329708D01*
X248974347Y-95261349D01*
X249004426Y-95181889D01*
X249035399Y-95092830D01*
X249065876Y-94995672D01*
X249094467Y-94891916D01*
X249119785Y-94783063D01*
X249130781Y-94727194D01*
X249140439Y-94670613D01*
X249148583Y-94613508D01*
X249155040Y-94556067D01*
X249279425Y-94480492D01*
X249405975Y-94410108D01*
X249533285Y-94344871D01*
X249659948Y-94284737D01*
X249784559Y-94229663D01*
X249905711Y-94179606D01*
X250021998Y-94134523D01*
X250132014Y-94094369D01*
X250234354Y-94059102D01*
X250327610Y-94028678D01*
X250481248Y-93982186D01*
X250617657Y-93945409D01*
X250616863Y-93949113D01*
G37*
D12*
X245180898Y-102859783D02*
X245514231Y-102859783D01*
X245114231Y-103059783D02*
X245347565Y-102359783D01*
X245347565Y-102359783D02*
X245580898Y-103059783D01*
X245647565Y-103126450D02*
X246180898Y-103126450D01*
X246480898Y-102359783D02*
X246547564Y-102359783D01*
X246547564Y-102359783D02*
X246614231Y-102393116D01*
X246614231Y-102393116D02*
X246647564Y-102426450D01*
X246647564Y-102426450D02*
X246680898Y-102493116D01*
X246680898Y-102493116D02*
X246714231Y-102626450D01*
X246714231Y-102626450D02*
X246714231Y-102793116D01*
X246714231Y-102793116D02*
X246680898Y-102926450D01*
X246680898Y-102926450D02*
X246647564Y-102993116D01*
X246647564Y-102993116D02*
X246614231Y-103026450D01*
X246614231Y-103026450D02*
X246547564Y-103059783D01*
X246547564Y-103059783D02*
X246480898Y-103059783D01*
X246480898Y-103059783D02*
X246414231Y-103026450D01*
X246414231Y-103026450D02*
X246380898Y-102993116D01*
X246380898Y-102993116D02*
X246347564Y-102926450D01*
X246347564Y-102926450D02*
X246314231Y-102793116D01*
X246314231Y-102793116D02*
X246314231Y-102626450D01*
X246314231Y-102626450D02*
X246347564Y-102493116D01*
X246347564Y-102493116D02*
X246380898Y-102426450D01*
X246380898Y-102426450D02*
X246414231Y-102393116D01*
X246414231Y-102393116D02*
X246480898Y-102359783D01*
X255032822Y-114292435D02*
X255732822Y-114125768D01*
X255732822Y-114125768D02*
X255232822Y-113992435D01*
X255232822Y-113992435D02*
X255732822Y-113859101D01*
X255732822Y-113859101D02*
X255032822Y-113692435D01*
X255732822Y-113425768D02*
X255266155Y-113425768D01*
X255032822Y-113425768D02*
X255066155Y-113459101D01*
X255066155Y-113459101D02*
X255099489Y-113425768D01*
X255099489Y-113425768D02*
X255066155Y-113392435D01*
X255066155Y-113392435D02*
X255032822Y-113425768D01*
X255032822Y-113425768D02*
X255099489Y-113425768D01*
X255732822Y-113092435D02*
X255032822Y-113092435D01*
X255466155Y-113025768D02*
X255732822Y-112825768D01*
X255266155Y-112825768D02*
X255532822Y-113092435D01*
X255266155Y-112625768D02*
X255266155Y-112359101D01*
X255032822Y-112525768D02*
X255632822Y-112525768D01*
X255632822Y-112525768D02*
X255699489Y-112492435D01*
X255699489Y-112492435D02*
X255732822Y-112425768D01*
X255732822Y-112425768D02*
X255732822Y-112359101D01*
X255732822Y-112025768D02*
X255699489Y-112092435D01*
X255699489Y-112092435D02*
X255666155Y-112125768D01*
X255666155Y-112125768D02*
X255599489Y-112159101D01*
X255599489Y-112159101D02*
X255399489Y-112159101D01*
X255399489Y-112159101D02*
X255332822Y-112125768D01*
X255332822Y-112125768D02*
X255299489Y-112092435D01*
X255299489Y-112092435D02*
X255266155Y-112025768D01*
X255266155Y-112025768D02*
X255266155Y-111925768D01*
X255266155Y-111925768D02*
X255299489Y-111859101D01*
X255299489Y-111859101D02*
X255332822Y-111825768D01*
X255332822Y-111825768D02*
X255399489Y-111792435D01*
X255399489Y-111792435D02*
X255599489Y-111792435D01*
X255599489Y-111792435D02*
X255666155Y-111825768D01*
X255666155Y-111825768D02*
X255699489Y-111859101D01*
X255699489Y-111859101D02*
X255732822Y-111925768D01*
X255732822Y-111925768D02*
X255732822Y-112025768D01*
X255732822Y-111492435D02*
X255266155Y-111492435D01*
X255399489Y-111492435D02*
X255332822Y-111459102D01*
X255332822Y-111459102D02*
X255299489Y-111425768D01*
X255299489Y-111425768D02*
X255266155Y-111359102D01*
X255266155Y-111359102D02*
X255266155Y-111292435D01*
X255066155Y-110159102D02*
X255032822Y-110225769D01*
X255032822Y-110225769D02*
X255032822Y-110325769D01*
X255032822Y-110325769D02*
X255066155Y-110425769D01*
X255066155Y-110425769D02*
X255132822Y-110492436D01*
X255132822Y-110492436D02*
X255199489Y-110525769D01*
X255199489Y-110525769D02*
X255332822Y-110559102D01*
X255332822Y-110559102D02*
X255432822Y-110559102D01*
X255432822Y-110559102D02*
X255566155Y-110525769D01*
X255566155Y-110525769D02*
X255632822Y-110492436D01*
X255632822Y-110492436D02*
X255699489Y-110425769D01*
X255699489Y-110425769D02*
X255732822Y-110325769D01*
X255732822Y-110325769D02*
X255732822Y-110259102D01*
X255732822Y-110259102D02*
X255699489Y-110159102D01*
X255699489Y-110159102D02*
X255666155Y-110125769D01*
X255666155Y-110125769D02*
X255432822Y-110125769D01*
X255432822Y-110125769D02*
X255432822Y-110259102D01*
X255732822Y-109825769D02*
X255266155Y-109825769D01*
X255399489Y-109825769D02*
X255332822Y-109792436D01*
X255332822Y-109792436D02*
X255299489Y-109759102D01*
X255299489Y-109759102D02*
X255266155Y-109692436D01*
X255266155Y-109692436D02*
X255266155Y-109625769D01*
X255732822Y-109092436D02*
X255366155Y-109092436D01*
X255366155Y-109092436D02*
X255299489Y-109125769D01*
X255299489Y-109125769D02*
X255266155Y-109192436D01*
X255266155Y-109192436D02*
X255266155Y-109325769D01*
X255266155Y-109325769D02*
X255299489Y-109392436D01*
X255699489Y-109092436D02*
X255732822Y-109159103D01*
X255732822Y-109159103D02*
X255732822Y-109325769D01*
X255732822Y-109325769D02*
X255699489Y-109392436D01*
X255699489Y-109392436D02*
X255632822Y-109425769D01*
X255632822Y-109425769D02*
X255566155Y-109425769D01*
X255566155Y-109425769D02*
X255499489Y-109392436D01*
X255499489Y-109392436D02*
X255466155Y-109325769D01*
X255466155Y-109325769D02*
X255466155Y-109159103D01*
X255466155Y-109159103D02*
X255432822Y-109092436D01*
X255732822Y-108759103D02*
X255032822Y-108759103D01*
X255299489Y-108759103D02*
X255266155Y-108692436D01*
X255266155Y-108692436D02*
X255266155Y-108559103D01*
X255266155Y-108559103D02*
X255299489Y-108492436D01*
X255299489Y-108492436D02*
X255332822Y-108459103D01*
X255332822Y-108459103D02*
X255399489Y-108425770D01*
X255399489Y-108425770D02*
X255599489Y-108425770D01*
X255599489Y-108425770D02*
X255666155Y-108459103D01*
X255666155Y-108459103D02*
X255699489Y-108492436D01*
X255699489Y-108492436D02*
X255732822Y-108559103D01*
X255732822Y-108559103D02*
X255732822Y-108692436D01*
X255732822Y-108692436D02*
X255699489Y-108759103D01*
X255732822Y-108025770D02*
X255699489Y-108092437D01*
X255699489Y-108092437D02*
X255666155Y-108125770D01*
X255666155Y-108125770D02*
X255599489Y-108159103D01*
X255599489Y-108159103D02*
X255399489Y-108159103D01*
X255399489Y-108159103D02*
X255332822Y-108125770D01*
X255332822Y-108125770D02*
X255299489Y-108092437D01*
X255299489Y-108092437D02*
X255266155Y-108025770D01*
X255266155Y-108025770D02*
X255266155Y-107925770D01*
X255266155Y-107925770D02*
X255299489Y-107859103D01*
X255299489Y-107859103D02*
X255332822Y-107825770D01*
X255332822Y-107825770D02*
X255399489Y-107792437D01*
X255399489Y-107792437D02*
X255599489Y-107792437D01*
X255599489Y-107792437D02*
X255666155Y-107825770D01*
X255666155Y-107825770D02*
X255699489Y-107859103D01*
X255699489Y-107859103D02*
X255732822Y-107925770D01*
X255732822Y-107925770D02*
X255732822Y-108025770D01*
X255266155Y-107559104D02*
X255732822Y-107425770D01*
X255732822Y-107425770D02*
X255399489Y-107292437D01*
X255399489Y-107292437D02*
X255732822Y-107159104D01*
X255732822Y-107159104D02*
X255266155Y-107025770D01*
X255699489Y-106792437D02*
X255732822Y-106725771D01*
X255732822Y-106725771D02*
X255732822Y-106592437D01*
X255732822Y-106592437D02*
X255699489Y-106525771D01*
X255699489Y-106525771D02*
X255632822Y-106492437D01*
X255632822Y-106492437D02*
X255599489Y-106492437D01*
X255599489Y-106492437D02*
X255532822Y-106525771D01*
X255532822Y-106525771D02*
X255499489Y-106592437D01*
X255499489Y-106592437D02*
X255499489Y-106692437D01*
X255499489Y-106692437D02*
X255466155Y-106759104D01*
X255466155Y-106759104D02*
X255399489Y-106792437D01*
X255399489Y-106792437D02*
X255366155Y-106792437D01*
X255366155Y-106792437D02*
X255299489Y-106759104D01*
X255299489Y-106759104D02*
X255266155Y-106692437D01*
X255266155Y-106692437D02*
X255266155Y-106592437D01*
X255266155Y-106592437D02*
X255299489Y-106525771D01*
X255732822Y-106192437D02*
X255032822Y-106192437D01*
X255466155Y-106125770D02*
X255732822Y-105925770D01*
X255266155Y-105925770D02*
X255532822Y-106192437D01*
X255732822Y-105625770D02*
X255266155Y-105625770D01*
X255032822Y-105625770D02*
X255066155Y-105659103D01*
X255066155Y-105659103D02*
X255099489Y-105625770D01*
X255099489Y-105625770D02*
X255066155Y-105592437D01*
X255066155Y-105592437D02*
X255032822Y-105625770D01*
X255032822Y-105625770D02*
X255099489Y-105625770D01*
X256859783Y-113859101D02*
X256859783Y-114259101D01*
X256859783Y-114059101D02*
X256159783Y-114059101D01*
X256159783Y-114059101D02*
X256259783Y-114125768D01*
X256259783Y-114125768D02*
X256326450Y-114192435D01*
X256326450Y-114192435D02*
X256359783Y-114259101D01*
X256159783Y-113425768D02*
X256159783Y-113359101D01*
X256159783Y-113359101D02*
X256193116Y-113292434D01*
X256193116Y-113292434D02*
X256226450Y-113259101D01*
X256226450Y-113259101D02*
X256293116Y-113225768D01*
X256293116Y-113225768D02*
X256426450Y-113192434D01*
X256426450Y-113192434D02*
X256593116Y-113192434D01*
X256593116Y-113192434D02*
X256726450Y-113225768D01*
X256726450Y-113225768D02*
X256793116Y-113259101D01*
X256793116Y-113259101D02*
X256826450Y-113292434D01*
X256826450Y-113292434D02*
X256859783Y-113359101D01*
X256859783Y-113359101D02*
X256859783Y-113425768D01*
X256859783Y-113425768D02*
X256826450Y-113492434D01*
X256826450Y-113492434D02*
X256793116Y-113525768D01*
X256793116Y-113525768D02*
X256726450Y-113559101D01*
X256726450Y-113559101D02*
X256593116Y-113592434D01*
X256593116Y-113592434D02*
X256426450Y-113592434D01*
X256426450Y-113592434D02*
X256293116Y-113559101D01*
X256293116Y-113559101D02*
X256226450Y-113525768D01*
X256226450Y-113525768D02*
X256193116Y-113492434D01*
X256193116Y-113492434D02*
X256159783Y-113425768D01*
X256793116Y-112892434D02*
X256826450Y-112859101D01*
X256826450Y-112859101D02*
X256859783Y-112892434D01*
X256859783Y-112892434D02*
X256826450Y-112925767D01*
X256826450Y-112925767D02*
X256793116Y-112892434D01*
X256793116Y-112892434D02*
X256859783Y-112892434D01*
X256159783Y-112425768D02*
X256159783Y-112359101D01*
X256159783Y-112359101D02*
X256193116Y-112292434D01*
X256193116Y-112292434D02*
X256226450Y-112259101D01*
X256226450Y-112259101D02*
X256293116Y-112225768D01*
X256293116Y-112225768D02*
X256426450Y-112192434D01*
X256426450Y-112192434D02*
X256593116Y-112192434D01*
X256593116Y-112192434D02*
X256726450Y-112225768D01*
X256726450Y-112225768D02*
X256793116Y-112259101D01*
X256793116Y-112259101D02*
X256826450Y-112292434D01*
X256826450Y-112292434D02*
X256859783Y-112359101D01*
X256859783Y-112359101D02*
X256859783Y-112425768D01*
X256859783Y-112425768D02*
X256826450Y-112492434D01*
X256826450Y-112492434D02*
X256793116Y-112525768D01*
X256793116Y-112525768D02*
X256726450Y-112559101D01*
X256726450Y-112559101D02*
X256593116Y-112592434D01*
X256593116Y-112592434D02*
X256426450Y-112592434D01*
X256426450Y-112592434D02*
X256293116Y-112559101D01*
X256293116Y-112559101D02*
X256226450Y-112525768D01*
X256226450Y-112525768D02*
X256193116Y-112492434D01*
X256193116Y-112492434D02*
X256159783Y-112425768D01*
X256393116Y-111592434D02*
X256859783Y-111592434D01*
X256126450Y-111759101D02*
X256626450Y-111925767D01*
X256626450Y-111925767D02*
X256626450Y-111492434D01*
X256793116Y-111225767D02*
X256826450Y-111192434D01*
X256826450Y-111192434D02*
X256859783Y-111225767D01*
X256859783Y-111225767D02*
X256826450Y-111259100D01*
X256826450Y-111259100D02*
X256793116Y-111225767D01*
X256793116Y-111225767D02*
X256859783Y-111225767D01*
X256226450Y-110925767D02*
X256193116Y-110892434D01*
X256193116Y-110892434D02*
X256159783Y-110825767D01*
X256159783Y-110825767D02*
X256159783Y-110659101D01*
X256159783Y-110659101D02*
X256193116Y-110592434D01*
X256193116Y-110592434D02*
X256226450Y-110559101D01*
X256226450Y-110559101D02*
X256293116Y-110525767D01*
X256293116Y-110525767D02*
X256359783Y-110525767D01*
X256359783Y-110525767D02*
X256459783Y-110559101D01*
X256459783Y-110559101D02*
X256859783Y-110959101D01*
X256859783Y-110959101D02*
X256859783Y-110525767D01*
X256159783Y-110092434D02*
X256159783Y-110025767D01*
X256159783Y-110025767D02*
X256193116Y-109959100D01*
X256193116Y-109959100D02*
X256226450Y-109925767D01*
X256226450Y-109925767D02*
X256293116Y-109892434D01*
X256293116Y-109892434D02*
X256426450Y-109859100D01*
X256426450Y-109859100D02*
X256593116Y-109859100D01*
X256593116Y-109859100D02*
X256726450Y-109892434D01*
X256726450Y-109892434D02*
X256793116Y-109925767D01*
X256793116Y-109925767D02*
X256826450Y-109959100D01*
X256826450Y-109959100D02*
X256859783Y-110025767D01*
X256859783Y-110025767D02*
X256859783Y-110092434D01*
X256859783Y-110092434D02*
X256826450Y-110159100D01*
X256826450Y-110159100D02*
X256793116Y-110192434D01*
X256793116Y-110192434D02*
X256726450Y-110225767D01*
X256726450Y-110225767D02*
X256593116Y-110259100D01*
X256593116Y-110259100D02*
X256426450Y-110259100D01*
X256426450Y-110259100D02*
X256293116Y-110225767D01*
X256293116Y-110225767D02*
X256226450Y-110192434D01*
X256226450Y-110192434D02*
X256193116Y-110159100D01*
X256193116Y-110159100D02*
X256159783Y-110092434D01*
X256226450Y-109592433D02*
X256193116Y-109559100D01*
X256193116Y-109559100D02*
X256159783Y-109492433D01*
X256159783Y-109492433D02*
X256159783Y-109325767D01*
X256159783Y-109325767D02*
X256193116Y-109259100D01*
X256193116Y-109259100D02*
X256226450Y-109225767D01*
X256226450Y-109225767D02*
X256293116Y-109192433D01*
X256293116Y-109192433D02*
X256359783Y-109192433D01*
X256359783Y-109192433D02*
X256459783Y-109225767D01*
X256459783Y-109225767D02*
X256859783Y-109625767D01*
X256859783Y-109625767D02*
X256859783Y-109192433D01*
X256159783Y-108559100D02*
X256159783Y-108892433D01*
X256159783Y-108892433D02*
X256493116Y-108925766D01*
X256493116Y-108925766D02*
X256459783Y-108892433D01*
X256459783Y-108892433D02*
X256426450Y-108825766D01*
X256426450Y-108825766D02*
X256426450Y-108659100D01*
X256426450Y-108659100D02*
X256459783Y-108592433D01*
X256459783Y-108592433D02*
X256493116Y-108559100D01*
X256493116Y-108559100D02*
X256559783Y-108525766D01*
X256559783Y-108525766D02*
X256726450Y-108525766D01*
X256726450Y-108525766D02*
X256793116Y-108559100D01*
X256793116Y-108559100D02*
X256826450Y-108592433D01*
X256826450Y-108592433D02*
X256859783Y-108659100D01*
X256859783Y-108659100D02*
X256859783Y-108825766D01*
X256859783Y-108825766D02*
X256826450Y-108892433D01*
X256826450Y-108892433D02*
X256793116Y-108925766D01*
D13*
X235566265Y-100906895D02*
X235566265Y-100106895D01*
X235566265Y-100106895D02*
X235756741Y-100106895D01*
X235756741Y-100106895D02*
X235871027Y-100144990D01*
X235871027Y-100144990D02*
X235947217Y-100221180D01*
X235947217Y-100221180D02*
X235985312Y-100297371D01*
X235985312Y-100297371D02*
X236023408Y-100449752D01*
X236023408Y-100449752D02*
X236023408Y-100564038D01*
X236023408Y-100564038D02*
X235985312Y-100716419D01*
X235985312Y-100716419D02*
X235947217Y-100792609D01*
X235947217Y-100792609D02*
X235871027Y-100868800D01*
X235871027Y-100868800D02*
X235756741Y-100906895D01*
X235756741Y-100906895D02*
X235566265Y-100906895D01*
X236366265Y-100906895D02*
X236366265Y-100106895D01*
X236366265Y-100106895D02*
X236823408Y-100906895D01*
X236823408Y-100906895D02*
X236823408Y-100106895D01*
X237623407Y-100144990D02*
X237547217Y-100106895D01*
X237547217Y-100106895D02*
X237432931Y-100106895D01*
X237432931Y-100106895D02*
X237318645Y-100144990D01*
X237318645Y-100144990D02*
X237242455Y-100221180D01*
X237242455Y-100221180D02*
X237204360Y-100297371D01*
X237204360Y-100297371D02*
X237166264Y-100449752D01*
X237166264Y-100449752D02*
X237166264Y-100564038D01*
X237166264Y-100564038D02*
X237204360Y-100716419D01*
X237204360Y-100716419D02*
X237242455Y-100792609D01*
X237242455Y-100792609D02*
X237318645Y-100868800D01*
X237318645Y-100868800D02*
X237432931Y-100906895D01*
X237432931Y-100906895D02*
X237509122Y-100906895D01*
X237509122Y-100906895D02*
X237623407Y-100868800D01*
X237623407Y-100868800D02*
X237661503Y-100830704D01*
X237661503Y-100830704D02*
X237661503Y-100564038D01*
X237661503Y-100564038D02*
X237509122Y-100564038D01*
X238004360Y-100602133D02*
X238613884Y-100602133D01*
X239413883Y-100906895D02*
X238956740Y-100906895D01*
X239185312Y-100906895D02*
X239185312Y-100106895D01*
X239185312Y-100106895D02*
X239109121Y-100221180D01*
X239109121Y-100221180D02*
X239032931Y-100297371D01*
X239032931Y-100297371D02*
X238956740Y-100335466D01*
X239680550Y-100106895D02*
X240213884Y-100106895D01*
X240213884Y-100106895D02*
X239871026Y-100906895D01*
X240556741Y-100906895D02*
X240709122Y-100906895D01*
X240709122Y-100906895D02*
X240785312Y-100868800D01*
X240785312Y-100868800D02*
X240823408Y-100830704D01*
X240823408Y-100830704D02*
X240899598Y-100716419D01*
X240899598Y-100716419D02*
X240937693Y-100564038D01*
X240937693Y-100564038D02*
X240937693Y-100259276D01*
X240937693Y-100259276D02*
X240899598Y-100183085D01*
X240899598Y-100183085D02*
X240861503Y-100144990D01*
X240861503Y-100144990D02*
X240785312Y-100106895D01*
X240785312Y-100106895D02*
X240632931Y-100106895D01*
X240632931Y-100106895D02*
X240556741Y-100144990D01*
X240556741Y-100144990D02*
X240518646Y-100183085D01*
X240518646Y-100183085D02*
X240480550Y-100259276D01*
X240480550Y-100259276D02*
X240480550Y-100449752D01*
X240480550Y-100449752D02*
X240518646Y-100525942D01*
X240518646Y-100525942D02*
X240556741Y-100564038D01*
X240556741Y-100564038D02*
X240632931Y-100602133D01*
X240632931Y-100602133D02*
X240785312Y-100602133D01*
X240785312Y-100602133D02*
X240861503Y-100564038D01*
X240861503Y-100564038D02*
X240899598Y-100525942D01*
X240899598Y-100525942D02*
X240937693Y-100449752D01*
X241242455Y-100183085D02*
X241280551Y-100144990D01*
X241280551Y-100144990D02*
X241356741Y-100106895D01*
X241356741Y-100106895D02*
X241547217Y-100106895D01*
X241547217Y-100106895D02*
X241623408Y-100144990D01*
X241623408Y-100144990D02*
X241661503Y-100183085D01*
X241661503Y-100183085D02*
X241699598Y-100259276D01*
X241699598Y-100259276D02*
X241699598Y-100335466D01*
X241699598Y-100335466D02*
X241661503Y-100449752D01*
X241661503Y-100449752D02*
X241204360Y-100906895D01*
X241204360Y-100906895D02*
X241699598Y-100906895D01*
X242194837Y-100106895D02*
X242271027Y-100106895D01*
X242271027Y-100106895D02*
X242347218Y-100144990D01*
X242347218Y-100144990D02*
X242385313Y-100183085D01*
X242385313Y-100183085D02*
X242423408Y-100259276D01*
X242423408Y-100259276D02*
X242461503Y-100411657D01*
X242461503Y-100411657D02*
X242461503Y-100602133D01*
X242461503Y-100602133D02*
X242423408Y-100754514D01*
X242423408Y-100754514D02*
X242385313Y-100830704D01*
X242385313Y-100830704D02*
X242347218Y-100868800D01*
X242347218Y-100868800D02*
X242271027Y-100906895D01*
X242271027Y-100906895D02*
X242194837Y-100906895D01*
X242194837Y-100906895D02*
X242118646Y-100868800D01*
X242118646Y-100868800D02*
X242080551Y-100830704D01*
X242080551Y-100830704D02*
X242042456Y-100754514D01*
X242042456Y-100754514D02*
X242004360Y-100602133D01*
X242004360Y-100602133D02*
X242004360Y-100411657D01*
X242004360Y-100411657D02*
X242042456Y-100259276D01*
X242042456Y-100259276D02*
X242080551Y-100183085D01*
X242080551Y-100183085D02*
X242118646Y-100144990D01*
X242118646Y-100144990D02*
X242194837Y-100106895D01*
D12*
X249950898Y-112346450D02*
X249984231Y-112313116D01*
X249984231Y-112313116D02*
X250050898Y-112279783D01*
X250050898Y-112279783D02*
X250217565Y-112279783D01*
X250217565Y-112279783D02*
X250284231Y-112313116D01*
X250284231Y-112313116D02*
X250317565Y-112346450D01*
X250317565Y-112346450D02*
X250350898Y-112413116D01*
X250350898Y-112413116D02*
X250350898Y-112479783D01*
X250350898Y-112479783D02*
X250317565Y-112579783D01*
X250317565Y-112579783D02*
X249917565Y-112979783D01*
X249917565Y-112979783D02*
X250350898Y-112979783D01*
X250950898Y-112513116D02*
X250950898Y-112979783D01*
X250784232Y-112246450D02*
X250617565Y-112746450D01*
X250617565Y-112746450D02*
X251050898Y-112746450D01*
X251317565Y-112913116D02*
X251350899Y-112946450D01*
X251350899Y-112946450D02*
X251317565Y-112979783D01*
X251317565Y-112979783D02*
X251284232Y-112946450D01*
X251284232Y-112946450D02*
X251317565Y-112913116D01*
X251317565Y-112913116D02*
X251317565Y-112979783D01*
X249890898Y-114156450D02*
X249924231Y-114123116D01*
X249924231Y-114123116D02*
X249990898Y-114089783D01*
X249990898Y-114089783D02*
X250157565Y-114089783D01*
X250157565Y-114089783D02*
X250224231Y-114123116D01*
X250224231Y-114123116D02*
X250257565Y-114156450D01*
X250257565Y-114156450D02*
X250290898Y-114223116D01*
X250290898Y-114223116D02*
X250290898Y-114289783D01*
X250290898Y-114289783D02*
X250257565Y-114389783D01*
X250257565Y-114389783D02*
X249857565Y-114789783D01*
X249857565Y-114789783D02*
X250290898Y-114789783D01*
X250524232Y-114089783D02*
X250957565Y-114089783D01*
X250957565Y-114089783D02*
X250724232Y-114356450D01*
X250724232Y-114356450D02*
X250824232Y-114356450D01*
X250824232Y-114356450D02*
X250890898Y-114389783D01*
X250890898Y-114389783D02*
X250924232Y-114423116D01*
X250924232Y-114423116D02*
X250957565Y-114489783D01*
X250957565Y-114489783D02*
X250957565Y-114656450D01*
X250957565Y-114656450D02*
X250924232Y-114723116D01*
X250924232Y-114723116D02*
X250890898Y-114756450D01*
X250890898Y-114756450D02*
X250824232Y-114789783D01*
X250824232Y-114789783D02*
X250624232Y-114789783D01*
X250624232Y-114789783D02*
X250557565Y-114756450D01*
X250557565Y-114756450D02*
X250524232Y-114723116D01*
X251257565Y-114723116D02*
X251290899Y-114756450D01*
X251290899Y-114756450D02*
X251257565Y-114789783D01*
X251257565Y-114789783D02*
X251224232Y-114756450D01*
X251224232Y-114756450D02*
X251257565Y-114723116D01*
X251257565Y-114723116D02*
X251257565Y-114789783D01*
X245280898Y-101979783D02*
X245614231Y-101979783D01*
X245214231Y-102179783D02*
X245447565Y-101479783D01*
X245447565Y-101479783D02*
X245680898Y-102179783D01*
X245747565Y-102246450D02*
X246280898Y-102246450D01*
X246814231Y-102179783D02*
X246414231Y-102179783D01*
X246614231Y-102179783D02*
X246614231Y-101479783D01*
X246614231Y-101479783D02*
X246547564Y-101579783D01*
X246547564Y-101579783D02*
X246480898Y-101646450D01*
X246480898Y-101646450D02*
X246414231Y-101679783D01*
X246010898Y-114376450D02*
X246044231Y-114343116D01*
X246044231Y-114343116D02*
X246110898Y-114309783D01*
X246110898Y-114309783D02*
X246277565Y-114309783D01*
X246277565Y-114309783D02*
X246344231Y-114343116D01*
X246344231Y-114343116D02*
X246377565Y-114376450D01*
X246377565Y-114376450D02*
X246410898Y-114443116D01*
X246410898Y-114443116D02*
X246410898Y-114509783D01*
X246410898Y-114509783D02*
X246377565Y-114609783D01*
X246377565Y-114609783D02*
X245977565Y-115009783D01*
X245977565Y-115009783D02*
X246410898Y-115009783D01*
X246677565Y-114376450D02*
X246710898Y-114343116D01*
X246710898Y-114343116D02*
X246777565Y-114309783D01*
X246777565Y-114309783D02*
X246944232Y-114309783D01*
X246944232Y-114309783D02*
X247010898Y-114343116D01*
X247010898Y-114343116D02*
X247044232Y-114376450D01*
X247044232Y-114376450D02*
X247077565Y-114443116D01*
X247077565Y-114443116D02*
X247077565Y-114509783D01*
X247077565Y-114509783D02*
X247044232Y-114609783D01*
X247044232Y-114609783D02*
X246644232Y-115009783D01*
X246644232Y-115009783D02*
X247077565Y-115009783D01*
X247377565Y-114943116D02*
X247410899Y-114976450D01*
X247410899Y-114976450D02*
X247377565Y-115009783D01*
X247377565Y-115009783D02*
X247344232Y-114976450D01*
X247344232Y-114976450D02*
X247377565Y-114943116D01*
X247377565Y-114943116D02*
X247377565Y-115009783D01*
X253389783Y-110665768D02*
X252689783Y-110665768D01*
X252689783Y-110665768D02*
X253389783Y-110265768D01*
X253389783Y-110265768D02*
X252689783Y-110265768D01*
X253023116Y-109699102D02*
X253023116Y-109932435D01*
X253389783Y-109932435D02*
X252689783Y-109932435D01*
X252689783Y-109932435D02*
X252689783Y-109599102D01*
X253323116Y-108932435D02*
X253356450Y-108965768D01*
X253356450Y-108965768D02*
X253389783Y-109065768D01*
X253389783Y-109065768D02*
X253389783Y-109132435D01*
X253389783Y-109132435D02*
X253356450Y-109232435D01*
X253356450Y-109232435D02*
X253289783Y-109299102D01*
X253289783Y-109299102D02*
X253223116Y-109332435D01*
X253223116Y-109332435D02*
X253089783Y-109365768D01*
X253089783Y-109365768D02*
X252989783Y-109365768D01*
X252989783Y-109365768D02*
X252856450Y-109332435D01*
X252856450Y-109332435D02*
X252789783Y-109299102D01*
X252789783Y-109299102D02*
X252723116Y-109232435D01*
X252723116Y-109232435D02*
X252689783Y-109132435D01*
X252689783Y-109132435D02*
X252689783Y-109065768D01*
X252689783Y-109065768D02*
X252723116Y-108965768D01*
X252723116Y-108965768D02*
X252756450Y-108932435D01*
X246860898Y-112116450D02*
X246894231Y-112083116D01*
X246894231Y-112083116D02*
X246960898Y-112049783D01*
X246960898Y-112049783D02*
X247127565Y-112049783D01*
X247127565Y-112049783D02*
X247194231Y-112083116D01*
X247194231Y-112083116D02*
X247227565Y-112116450D01*
X247227565Y-112116450D02*
X247260898Y-112183116D01*
X247260898Y-112183116D02*
X247260898Y-112249783D01*
X247260898Y-112249783D02*
X247227565Y-112349783D01*
X247227565Y-112349783D02*
X246827565Y-112749783D01*
X246827565Y-112749783D02*
X247260898Y-112749783D01*
X247927565Y-112749783D02*
X247527565Y-112749783D01*
X247727565Y-112749783D02*
X247727565Y-112049783D01*
X247727565Y-112049783D02*
X247660898Y-112149783D01*
X247660898Y-112149783D02*
X247594232Y-112216450D01*
X247594232Y-112216450D02*
X247527565Y-112249783D01*
X248227565Y-112683116D02*
X248260899Y-112716450D01*
X248260899Y-112716450D02*
X248227565Y-112749783D01*
X248227565Y-112749783D02*
X248194232Y-112716450D01*
X248194232Y-112716450D02*
X248227565Y-112683116D01*
X248227565Y-112683116D02*
X248227565Y-112749783D01*
D13*
X240648490Y-108883333D02*
X240672300Y-108907142D01*
X240672300Y-108907142D02*
X240696109Y-108978571D01*
X240696109Y-108978571D02*
X240696109Y-109026190D01*
X240696109Y-109026190D02*
X240672300Y-109097618D01*
X240672300Y-109097618D02*
X240624680Y-109145237D01*
X240624680Y-109145237D02*
X240577061Y-109169047D01*
X240577061Y-109169047D02*
X240481823Y-109192856D01*
X240481823Y-109192856D02*
X240410395Y-109192856D01*
X240410395Y-109192856D02*
X240315157Y-109169047D01*
X240315157Y-109169047D02*
X240267538Y-109145237D01*
X240267538Y-109145237D02*
X240219919Y-109097618D01*
X240219919Y-109097618D02*
X240196109Y-109026190D01*
X240196109Y-109026190D02*
X240196109Y-108978571D01*
X240196109Y-108978571D02*
X240219919Y-108907142D01*
X240219919Y-108907142D02*
X240243728Y-108883333D01*
X240196109Y-108716666D02*
X240196109Y-108407142D01*
X240196109Y-108407142D02*
X240386585Y-108573809D01*
X240386585Y-108573809D02*
X240386585Y-108502380D01*
X240386585Y-108502380D02*
X240410395Y-108454761D01*
X240410395Y-108454761D02*
X240434204Y-108430952D01*
X240434204Y-108430952D02*
X240481823Y-108407142D01*
X240481823Y-108407142D02*
X240600871Y-108407142D01*
X240600871Y-108407142D02*
X240648490Y-108430952D01*
X240648490Y-108430952D02*
X240672300Y-108454761D01*
X240672300Y-108454761D02*
X240696109Y-108502380D01*
X240696109Y-108502380D02*
X240696109Y-108645237D01*
X240696109Y-108645237D02*
X240672300Y-108692856D01*
X240672300Y-108692856D02*
X240648490Y-108716666D01*
X244466666Y-102218490D02*
X244442857Y-102242300D01*
X244442857Y-102242300D02*
X244371428Y-102266109D01*
X244371428Y-102266109D02*
X244323809Y-102266109D01*
X244323809Y-102266109D02*
X244252381Y-102242300D01*
X244252381Y-102242300D02*
X244204762Y-102194680D01*
X244204762Y-102194680D02*
X244180952Y-102147061D01*
X244180952Y-102147061D02*
X244157143Y-102051823D01*
X244157143Y-102051823D02*
X244157143Y-101980395D01*
X244157143Y-101980395D02*
X244180952Y-101885157D01*
X244180952Y-101885157D02*
X244204762Y-101837538D01*
X244204762Y-101837538D02*
X244252381Y-101789919D01*
X244252381Y-101789919D02*
X244323809Y-101766109D01*
X244323809Y-101766109D02*
X244371428Y-101766109D01*
X244371428Y-101766109D02*
X244442857Y-101789919D01*
X244442857Y-101789919D02*
X244466666Y-101813728D01*
X244752381Y-101980395D02*
X244704762Y-101956585D01*
X244704762Y-101956585D02*
X244680952Y-101932776D01*
X244680952Y-101932776D02*
X244657143Y-101885157D01*
X244657143Y-101885157D02*
X244657143Y-101861347D01*
X244657143Y-101861347D02*
X244680952Y-101813728D01*
X244680952Y-101813728D02*
X244704762Y-101789919D01*
X244704762Y-101789919D02*
X244752381Y-101766109D01*
X244752381Y-101766109D02*
X244847619Y-101766109D01*
X244847619Y-101766109D02*
X244895238Y-101789919D01*
X244895238Y-101789919D02*
X244919047Y-101813728D01*
X244919047Y-101813728D02*
X244942857Y-101861347D01*
X244942857Y-101861347D02*
X244942857Y-101885157D01*
X244942857Y-101885157D02*
X244919047Y-101932776D01*
X244919047Y-101932776D02*
X244895238Y-101956585D01*
X244895238Y-101956585D02*
X244847619Y-101980395D01*
X244847619Y-101980395D02*
X244752381Y-101980395D01*
X244752381Y-101980395D02*
X244704762Y-102004204D01*
X244704762Y-102004204D02*
X244680952Y-102028014D01*
X244680952Y-102028014D02*
X244657143Y-102075633D01*
X244657143Y-102075633D02*
X244657143Y-102170871D01*
X244657143Y-102170871D02*
X244680952Y-102218490D01*
X244680952Y-102218490D02*
X244704762Y-102242300D01*
X244704762Y-102242300D02*
X244752381Y-102266109D01*
X244752381Y-102266109D02*
X244847619Y-102266109D01*
X244847619Y-102266109D02*
X244895238Y-102242300D01*
X244895238Y-102242300D02*
X244919047Y-102218490D01*
X244919047Y-102218490D02*
X244942857Y-102170871D01*
X244942857Y-102170871D02*
X244942857Y-102075633D01*
X244942857Y-102075633D02*
X244919047Y-102028014D01*
X244919047Y-102028014D02*
X244895238Y-102004204D01*
X244895238Y-102004204D02*
X244847619Y-101980395D01*
D14*
X252521666Y-113854819D02*
X252521666Y-114569104D01*
X252521666Y-114569104D02*
X252474047Y-114711961D01*
X252474047Y-114711961D02*
X252378809Y-114807200D01*
X252378809Y-114807200D02*
X252235952Y-114854819D01*
X252235952Y-114854819D02*
X252140714Y-114854819D01*
X252950238Y-113950057D02*
X252997857Y-113902438D01*
X252997857Y-113902438D02*
X253093095Y-113854819D01*
X253093095Y-113854819D02*
X253331190Y-113854819D01*
X253331190Y-113854819D02*
X253426428Y-113902438D01*
X253426428Y-113902438D02*
X253474047Y-113950057D01*
X253474047Y-113950057D02*
X253521666Y-114045295D01*
X253521666Y-114045295D02*
X253521666Y-114140533D01*
X253521666Y-114140533D02*
X253474047Y-114283390D01*
X253474047Y-114283390D02*
X252902619Y-114854819D01*
X252902619Y-114854819D02*
X253521666Y-114854819D01*
D15*
X242214761Y-121824857D02*
X242119523Y-121777238D01*
X242119523Y-121777238D02*
X242024285Y-121682000D01*
X242024285Y-121682000D02*
X241881428Y-121539142D01*
X241881428Y-121539142D02*
X241786190Y-121491523D01*
X241786190Y-121491523D02*
X241690952Y-121491523D01*
X241738571Y-121729619D02*
X241643333Y-121682000D01*
X241643333Y-121682000D02*
X241548095Y-121586761D01*
X241548095Y-121586761D02*
X241500476Y-121396285D01*
X241500476Y-121396285D02*
X241500476Y-121062952D01*
X241500476Y-121062952D02*
X241548095Y-120872476D01*
X241548095Y-120872476D02*
X241643333Y-120777238D01*
X241643333Y-120777238D02*
X241738571Y-120729619D01*
X241738571Y-120729619D02*
X241929047Y-120729619D01*
X241929047Y-120729619D02*
X242024285Y-120777238D01*
X242024285Y-120777238D02*
X242119523Y-120872476D01*
X242119523Y-120872476D02*
X242167142Y-121062952D01*
X242167142Y-121062952D02*
X242167142Y-121396285D01*
X242167142Y-121396285D02*
X242119523Y-121586761D01*
X242119523Y-121586761D02*
X242024285Y-121682000D01*
X242024285Y-121682000D02*
X241929047Y-121729619D01*
X241929047Y-121729619D02*
X241738571Y-121729619D01*
X242500476Y-120729619D02*
X243119523Y-120729619D01*
X243119523Y-120729619D02*
X242786190Y-121110571D01*
X242786190Y-121110571D02*
X242929047Y-121110571D01*
X242929047Y-121110571D02*
X243024285Y-121158190D01*
X243024285Y-121158190D02*
X243071904Y-121205809D01*
X243071904Y-121205809D02*
X243119523Y-121301047D01*
X243119523Y-121301047D02*
X243119523Y-121539142D01*
X243119523Y-121539142D02*
X243071904Y-121634380D01*
X243071904Y-121634380D02*
X243024285Y-121682000D01*
X243024285Y-121682000D02*
X242929047Y-121729619D01*
X242929047Y-121729619D02*
X242643333Y-121729619D01*
X242643333Y-121729619D02*
X242548095Y-121682000D01*
X242548095Y-121682000D02*
X242500476Y-121634380D01*
D13*
X246196666Y-99168490D02*
X246172857Y-99192300D01*
X246172857Y-99192300D02*
X246101428Y-99216109D01*
X246101428Y-99216109D02*
X246053809Y-99216109D01*
X246053809Y-99216109D02*
X245982381Y-99192300D01*
X245982381Y-99192300D02*
X245934762Y-99144680D01*
X245934762Y-99144680D02*
X245910952Y-99097061D01*
X245910952Y-99097061D02*
X245887143Y-99001823D01*
X245887143Y-99001823D02*
X245887143Y-98930395D01*
X245887143Y-98930395D02*
X245910952Y-98835157D01*
X245910952Y-98835157D02*
X245934762Y-98787538D01*
X245934762Y-98787538D02*
X245982381Y-98739919D01*
X245982381Y-98739919D02*
X246053809Y-98716109D01*
X246053809Y-98716109D02*
X246101428Y-98716109D01*
X246101428Y-98716109D02*
X246172857Y-98739919D01*
X246172857Y-98739919D02*
X246196666Y-98763728D01*
X246434762Y-99216109D02*
X246530000Y-99216109D01*
X246530000Y-99216109D02*
X246577619Y-99192300D01*
X246577619Y-99192300D02*
X246601428Y-99168490D01*
X246601428Y-99168490D02*
X246649047Y-99097061D01*
X246649047Y-99097061D02*
X246672857Y-99001823D01*
X246672857Y-99001823D02*
X246672857Y-98811347D01*
X246672857Y-98811347D02*
X246649047Y-98763728D01*
X246649047Y-98763728D02*
X246625238Y-98739919D01*
X246625238Y-98739919D02*
X246577619Y-98716109D01*
X246577619Y-98716109D02*
X246482381Y-98716109D01*
X246482381Y-98716109D02*
X246434762Y-98739919D01*
X246434762Y-98739919D02*
X246410952Y-98763728D01*
X246410952Y-98763728D02*
X246387143Y-98811347D01*
X246387143Y-98811347D02*
X246387143Y-98930395D01*
X246387143Y-98930395D02*
X246410952Y-98978014D01*
X246410952Y-98978014D02*
X246434762Y-99001823D01*
X246434762Y-99001823D02*
X246482381Y-99025633D01*
X246482381Y-99025633D02*
X246577619Y-99025633D01*
X246577619Y-99025633D02*
X246625238Y-99001823D01*
X246625238Y-99001823D02*
X246649047Y-98978014D01*
X246649047Y-98978014D02*
X246672857Y-98930395D01*
D16*
X253069048Y-97630822D02*
X253069048Y-98011775D01*
X252802381Y-97211775D02*
X253069048Y-97630822D01*
X253069048Y-97630822D02*
X253335714Y-97211775D01*
X253564285Y-97287965D02*
X253602381Y-97249870D01*
X253602381Y-97249870D02*
X253678571Y-97211775D01*
X253678571Y-97211775D02*
X253869047Y-97211775D01*
X253869047Y-97211775D02*
X253945238Y-97249870D01*
X253945238Y-97249870D02*
X253983333Y-97287965D01*
X253983333Y-97287965D02*
X254021428Y-97364156D01*
X254021428Y-97364156D02*
X254021428Y-97440346D01*
X254021428Y-97440346D02*
X253983333Y-97554632D01*
X253983333Y-97554632D02*
X253526190Y-98011775D01*
X253526190Y-98011775D02*
X254021428Y-98011775D01*
D13*
X251578571Y-108008490D02*
X251554762Y-108032300D01*
X251554762Y-108032300D02*
X251483333Y-108056109D01*
X251483333Y-108056109D02*
X251435714Y-108056109D01*
X251435714Y-108056109D02*
X251364286Y-108032300D01*
X251364286Y-108032300D02*
X251316667Y-107984680D01*
X251316667Y-107984680D02*
X251292857Y-107937061D01*
X251292857Y-107937061D02*
X251269048Y-107841823D01*
X251269048Y-107841823D02*
X251269048Y-107770395D01*
X251269048Y-107770395D02*
X251292857Y-107675157D01*
X251292857Y-107675157D02*
X251316667Y-107627538D01*
X251316667Y-107627538D02*
X251364286Y-107579919D01*
X251364286Y-107579919D02*
X251435714Y-107556109D01*
X251435714Y-107556109D02*
X251483333Y-107556109D01*
X251483333Y-107556109D02*
X251554762Y-107579919D01*
X251554762Y-107579919D02*
X251578571Y-107603728D01*
X252054762Y-108056109D02*
X251769048Y-108056109D01*
X251911905Y-108056109D02*
X251911905Y-107556109D01*
X251911905Y-107556109D02*
X251864286Y-107627538D01*
X251864286Y-107627538D02*
X251816667Y-107675157D01*
X251816667Y-107675157D02*
X251769048Y-107698966D01*
X252507142Y-107556109D02*
X252269047Y-107556109D01*
X252269047Y-107556109D02*
X252245238Y-107794204D01*
X252245238Y-107794204D02*
X252269047Y-107770395D01*
X252269047Y-107770395D02*
X252316666Y-107746585D01*
X252316666Y-107746585D02*
X252435714Y-107746585D01*
X252435714Y-107746585D02*
X252483333Y-107770395D01*
X252483333Y-107770395D02*
X252507142Y-107794204D01*
X252507142Y-107794204D02*
X252530952Y-107841823D01*
X252530952Y-107841823D02*
X252530952Y-107960871D01*
X252530952Y-107960871D02*
X252507142Y-108008490D01*
X252507142Y-108008490D02*
X252483333Y-108032300D01*
X252483333Y-108032300D02*
X252435714Y-108056109D01*
X252435714Y-108056109D02*
X252316666Y-108056109D01*
X252316666Y-108056109D02*
X252269047Y-108032300D01*
X252269047Y-108032300D02*
X252245238Y-108008490D01*
D14*
X261799104Y-109476666D02*
X261799104Y-109000476D01*
X262084819Y-109571904D02*
X261084819Y-109238571D01*
X261084819Y-109238571D02*
X262084819Y-108905238D01*
X261561009Y-108571904D02*
X261561009Y-108238571D01*
X262084819Y-108095714D02*
X262084819Y-108571904D01*
X262084819Y-108571904D02*
X261084819Y-108571904D01*
X261084819Y-108571904D02*
X261084819Y-108095714D01*
X262084819Y-107143333D02*
X262084819Y-107714761D01*
X262084819Y-107429047D02*
X261084819Y-107429047D01*
X261084819Y-107429047D02*
X261227676Y-107524285D01*
X261227676Y-107524285D02*
X261322914Y-107619523D01*
X261322914Y-107619523D02*
X261370533Y-107714761D01*
D13*
X251058571Y-106068490D02*
X251034762Y-106092300D01*
X251034762Y-106092300D02*
X250963333Y-106116109D01*
X250963333Y-106116109D02*
X250915714Y-106116109D01*
X250915714Y-106116109D02*
X250844286Y-106092300D01*
X250844286Y-106092300D02*
X250796667Y-106044680D01*
X250796667Y-106044680D02*
X250772857Y-105997061D01*
X250772857Y-105997061D02*
X250749048Y-105901823D01*
X250749048Y-105901823D02*
X250749048Y-105830395D01*
X250749048Y-105830395D02*
X250772857Y-105735157D01*
X250772857Y-105735157D02*
X250796667Y-105687538D01*
X250796667Y-105687538D02*
X250844286Y-105639919D01*
X250844286Y-105639919D02*
X250915714Y-105616109D01*
X250915714Y-105616109D02*
X250963333Y-105616109D01*
X250963333Y-105616109D02*
X251034762Y-105639919D01*
X251034762Y-105639919D02*
X251058571Y-105663728D01*
X251534762Y-106116109D02*
X251249048Y-106116109D01*
X251391905Y-106116109D02*
X251391905Y-105616109D01*
X251391905Y-105616109D02*
X251344286Y-105687538D01*
X251344286Y-105687538D02*
X251296667Y-105735157D01*
X251296667Y-105735157D02*
X251249048Y-105758966D01*
X251701428Y-105616109D02*
X252010952Y-105616109D01*
X252010952Y-105616109D02*
X251844285Y-105806585D01*
X251844285Y-105806585D02*
X251915714Y-105806585D01*
X251915714Y-105806585D02*
X251963333Y-105830395D01*
X251963333Y-105830395D02*
X251987142Y-105854204D01*
X251987142Y-105854204D02*
X252010952Y-105901823D01*
X252010952Y-105901823D02*
X252010952Y-106020871D01*
X252010952Y-106020871D02*
X251987142Y-106068490D01*
X251987142Y-106068490D02*
X251963333Y-106092300D01*
X251963333Y-106092300D02*
X251915714Y-106116109D01*
X251915714Y-106116109D02*
X251772857Y-106116109D01*
X251772857Y-106116109D02*
X251725238Y-106092300D01*
X251725238Y-106092300D02*
X251701428Y-106068490D01*
X232120200Y-106676667D02*
X232072580Y-106819524D01*
X232072580Y-106819524D02*
X232072580Y-107057619D01*
X232072580Y-107057619D02*
X232120200Y-107152857D01*
X232120200Y-107152857D02*
X232167819Y-107200476D01*
X232167819Y-107200476D02*
X232263057Y-107248095D01*
X232263057Y-107248095D02*
X232358295Y-107248095D01*
X232358295Y-107248095D02*
X232453533Y-107200476D01*
X232453533Y-107200476D02*
X232501152Y-107152857D01*
X232501152Y-107152857D02*
X232548771Y-107057619D01*
X232548771Y-107057619D02*
X232596390Y-106867143D01*
X232596390Y-106867143D02*
X232644009Y-106771905D01*
X232644009Y-106771905D02*
X232691628Y-106724286D01*
X232691628Y-106724286D02*
X232786866Y-106676667D01*
X232786866Y-106676667D02*
X232882104Y-106676667D01*
X232882104Y-106676667D02*
X232977342Y-106724286D01*
X232977342Y-106724286D02*
X233024961Y-106771905D01*
X233024961Y-106771905D02*
X233072580Y-106867143D01*
X233072580Y-106867143D02*
X233072580Y-107105238D01*
X233072580Y-107105238D02*
X233024961Y-107248095D01*
X233072580Y-107581429D02*
X232072580Y-107819524D01*
X232072580Y-107819524D02*
X232786866Y-108010000D01*
X232786866Y-108010000D02*
X232072580Y-108200476D01*
X232072580Y-108200476D02*
X233072580Y-108438572D01*
X232072580Y-109343333D02*
X232072580Y-108771905D01*
X232072580Y-109057619D02*
X233072580Y-109057619D01*
X233072580Y-109057619D02*
X232929723Y-108962381D01*
X232929723Y-108962381D02*
X232834485Y-108867143D01*
X232834485Y-108867143D02*
X232786866Y-108771905D01*
D14*
X233397619Y-112754819D02*
X233397619Y-111754819D01*
X233397619Y-111754819D02*
X233730952Y-112469104D01*
X233730952Y-112469104D02*
X234064285Y-111754819D01*
X234064285Y-111754819D02*
X234064285Y-112754819D01*
X234540476Y-112373866D02*
X235302381Y-112373866D01*
X234921428Y-112754819D02*
X234921428Y-111992914D01*
D13*
X252596666Y-105516109D02*
X252358571Y-105516109D01*
X252358571Y-105516109D02*
X252358571Y-105016109D01*
X252715714Y-105016109D02*
X253025238Y-105016109D01*
X253025238Y-105016109D02*
X252858571Y-105206585D01*
X252858571Y-105206585D02*
X252930000Y-105206585D01*
X252930000Y-105206585D02*
X252977619Y-105230395D01*
X252977619Y-105230395D02*
X253001428Y-105254204D01*
X253001428Y-105254204D02*
X253025238Y-105301823D01*
X253025238Y-105301823D02*
X253025238Y-105420871D01*
X253025238Y-105420871D02*
X253001428Y-105468490D01*
X253001428Y-105468490D02*
X252977619Y-105492300D01*
X252977619Y-105492300D02*
X252930000Y-105516109D01*
X252930000Y-105516109D02*
X252787143Y-105516109D01*
X252787143Y-105516109D02*
X252739524Y-105492300D01*
X252739524Y-105492300D02*
X252715714Y-105468490D01*
X245228490Y-113833333D02*
X245252300Y-113857142D01*
X245252300Y-113857142D02*
X245276109Y-113928571D01*
X245276109Y-113928571D02*
X245276109Y-113976190D01*
X245276109Y-113976190D02*
X245252300Y-114047618D01*
X245252300Y-114047618D02*
X245204680Y-114095237D01*
X245204680Y-114095237D02*
X245157061Y-114119047D01*
X245157061Y-114119047D02*
X245061823Y-114142856D01*
X245061823Y-114142856D02*
X244990395Y-114142856D01*
X244990395Y-114142856D02*
X244895157Y-114119047D01*
X244895157Y-114119047D02*
X244847538Y-114095237D01*
X244847538Y-114095237D02*
X244799919Y-114047618D01*
X244799919Y-114047618D02*
X244776109Y-113976190D01*
X244776109Y-113976190D02*
X244776109Y-113928571D01*
X244776109Y-113928571D02*
X244799919Y-113857142D01*
X244799919Y-113857142D02*
X244823728Y-113833333D01*
X244776109Y-113380952D02*
X244776109Y-113619047D01*
X244776109Y-113619047D02*
X245014204Y-113642856D01*
X245014204Y-113642856D02*
X244990395Y-113619047D01*
X244990395Y-113619047D02*
X244966585Y-113571428D01*
X244966585Y-113571428D02*
X244966585Y-113452380D01*
X244966585Y-113452380D02*
X244990395Y-113404761D01*
X244990395Y-113404761D02*
X245014204Y-113380952D01*
X245014204Y-113380952D02*
X245061823Y-113357142D01*
X245061823Y-113357142D02*
X245180871Y-113357142D01*
X245180871Y-113357142D02*
X245228490Y-113380952D01*
X245228490Y-113380952D02*
X245252300Y-113404761D01*
X245252300Y-113404761D02*
X245276109Y-113452380D01*
X245276109Y-113452380D02*
X245276109Y-113571428D01*
X245276109Y-113571428D02*
X245252300Y-113619047D01*
X245252300Y-113619047D02*
X245228490Y-113642856D01*
D15*
X237559619Y-115228094D02*
X236559619Y-115228094D01*
X236559619Y-115228094D02*
X236559619Y-114989999D01*
X236559619Y-114989999D02*
X236607238Y-114847142D01*
X236607238Y-114847142D02*
X236702476Y-114751904D01*
X236702476Y-114751904D02*
X236797714Y-114704285D01*
X236797714Y-114704285D02*
X236988190Y-114656666D01*
X236988190Y-114656666D02*
X237131047Y-114656666D01*
X237131047Y-114656666D02*
X237321523Y-114704285D01*
X237321523Y-114704285D02*
X237416761Y-114751904D01*
X237416761Y-114751904D02*
X237512000Y-114847142D01*
X237512000Y-114847142D02*
X237559619Y-114989999D01*
X237559619Y-114989999D02*
X237559619Y-115228094D01*
X237559619Y-113704285D02*
X237559619Y-114275713D01*
X237559619Y-113989999D02*
X236559619Y-113989999D01*
X236559619Y-113989999D02*
X236702476Y-114085237D01*
X236702476Y-114085237D02*
X236797714Y-114180475D01*
X236797714Y-114180475D02*
X236845333Y-114275713D01*
D13*
X249628490Y-102421428D02*
X249652300Y-102445237D01*
X249652300Y-102445237D02*
X249676109Y-102516666D01*
X249676109Y-102516666D02*
X249676109Y-102564285D01*
X249676109Y-102564285D02*
X249652300Y-102635713D01*
X249652300Y-102635713D02*
X249604680Y-102683332D01*
X249604680Y-102683332D02*
X249557061Y-102707142D01*
X249557061Y-102707142D02*
X249461823Y-102730951D01*
X249461823Y-102730951D02*
X249390395Y-102730951D01*
X249390395Y-102730951D02*
X249295157Y-102707142D01*
X249295157Y-102707142D02*
X249247538Y-102683332D01*
X249247538Y-102683332D02*
X249199919Y-102635713D01*
X249199919Y-102635713D02*
X249176109Y-102564285D01*
X249176109Y-102564285D02*
X249176109Y-102516666D01*
X249176109Y-102516666D02*
X249199919Y-102445237D01*
X249199919Y-102445237D02*
X249223728Y-102421428D01*
X249676109Y-101945237D02*
X249676109Y-102230951D01*
X249676109Y-102088094D02*
X249176109Y-102088094D01*
X249176109Y-102088094D02*
X249247538Y-102135713D01*
X249247538Y-102135713D02*
X249295157Y-102183332D01*
X249295157Y-102183332D02*
X249318966Y-102230951D01*
X249676109Y-101469047D02*
X249676109Y-101754761D01*
X249676109Y-101611904D02*
X249176109Y-101611904D01*
X249176109Y-101611904D02*
X249247538Y-101659523D01*
X249247538Y-101659523D02*
X249295157Y-101707142D01*
X249295157Y-101707142D02*
X249318966Y-101754761D01*
X254016666Y-101136109D02*
X253778571Y-101136109D01*
X253778571Y-101136109D02*
X253778571Y-100636109D01*
X254397619Y-100802776D02*
X254397619Y-101136109D01*
X254278571Y-100612300D02*
X254159524Y-100969442D01*
X254159524Y-100969442D02*
X254469047Y-100969442D01*
X240748490Y-107043333D02*
X240772300Y-107067142D01*
X240772300Y-107067142D02*
X240796109Y-107138571D01*
X240796109Y-107138571D02*
X240796109Y-107186190D01*
X240796109Y-107186190D02*
X240772300Y-107257618D01*
X240772300Y-107257618D02*
X240724680Y-107305237D01*
X240724680Y-107305237D02*
X240677061Y-107329047D01*
X240677061Y-107329047D02*
X240581823Y-107352856D01*
X240581823Y-107352856D02*
X240510395Y-107352856D01*
X240510395Y-107352856D02*
X240415157Y-107329047D01*
X240415157Y-107329047D02*
X240367538Y-107305237D01*
X240367538Y-107305237D02*
X240319919Y-107257618D01*
X240319919Y-107257618D02*
X240296109Y-107186190D01*
X240296109Y-107186190D02*
X240296109Y-107138571D01*
X240296109Y-107138571D02*
X240319919Y-107067142D01*
X240319919Y-107067142D02*
X240343728Y-107043333D01*
X240343728Y-106852856D02*
X240319919Y-106829047D01*
X240319919Y-106829047D02*
X240296109Y-106781428D01*
X240296109Y-106781428D02*
X240296109Y-106662380D01*
X240296109Y-106662380D02*
X240319919Y-106614761D01*
X240319919Y-106614761D02*
X240343728Y-106590952D01*
X240343728Y-106590952D02*
X240391347Y-106567142D01*
X240391347Y-106567142D02*
X240438966Y-106567142D01*
X240438966Y-106567142D02*
X240510395Y-106590952D01*
X240510395Y-106590952D02*
X240796109Y-106876666D01*
X240796109Y-106876666D02*
X240796109Y-106567142D01*
X247428571Y-99158490D02*
X247404762Y-99182300D01*
X247404762Y-99182300D02*
X247333333Y-99206109D01*
X247333333Y-99206109D02*
X247285714Y-99206109D01*
X247285714Y-99206109D02*
X247214286Y-99182300D01*
X247214286Y-99182300D02*
X247166667Y-99134680D01*
X247166667Y-99134680D02*
X247142857Y-99087061D01*
X247142857Y-99087061D02*
X247119048Y-98991823D01*
X247119048Y-98991823D02*
X247119048Y-98920395D01*
X247119048Y-98920395D02*
X247142857Y-98825157D01*
X247142857Y-98825157D02*
X247166667Y-98777538D01*
X247166667Y-98777538D02*
X247214286Y-98729919D01*
X247214286Y-98729919D02*
X247285714Y-98706109D01*
X247285714Y-98706109D02*
X247333333Y-98706109D01*
X247333333Y-98706109D02*
X247404762Y-98729919D01*
X247404762Y-98729919D02*
X247428571Y-98753728D01*
X247904762Y-99206109D02*
X247619048Y-99206109D01*
X247761905Y-99206109D02*
X247761905Y-98706109D01*
X247761905Y-98706109D02*
X247714286Y-98777538D01*
X247714286Y-98777538D02*
X247666667Y-98825157D01*
X247666667Y-98825157D02*
X247619048Y-98848966D01*
X248214285Y-98706109D02*
X248261904Y-98706109D01*
X248261904Y-98706109D02*
X248309523Y-98729919D01*
X248309523Y-98729919D02*
X248333333Y-98753728D01*
X248333333Y-98753728D02*
X248357142Y-98801347D01*
X248357142Y-98801347D02*
X248380952Y-98896585D01*
X248380952Y-98896585D02*
X248380952Y-99015633D01*
X248380952Y-99015633D02*
X248357142Y-99110871D01*
X248357142Y-99110871D02*
X248333333Y-99158490D01*
X248333333Y-99158490D02*
X248309523Y-99182300D01*
X248309523Y-99182300D02*
X248261904Y-99206109D01*
X248261904Y-99206109D02*
X248214285Y-99206109D01*
X248214285Y-99206109D02*
X248166666Y-99182300D01*
X248166666Y-99182300D02*
X248142857Y-99158490D01*
X248142857Y-99158490D02*
X248119047Y-99110871D01*
X248119047Y-99110871D02*
X248095238Y-99015633D01*
X248095238Y-99015633D02*
X248095238Y-98896585D01*
X248095238Y-98896585D02*
X248119047Y-98801347D01*
X248119047Y-98801347D02*
X248142857Y-98753728D01*
X248142857Y-98753728D02*
X248166666Y-98729919D01*
X248166666Y-98729919D02*
X248214285Y-98706109D01*
X247206109Y-121075497D02*
X246968014Y-121242163D01*
X247206109Y-121361211D02*
X246706109Y-121361211D01*
X246706109Y-121361211D02*
X246706109Y-121170735D01*
X246706109Y-121170735D02*
X246729919Y-121123116D01*
X246729919Y-121123116D02*
X246753728Y-121099306D01*
X246753728Y-121099306D02*
X246801347Y-121075497D01*
X246801347Y-121075497D02*
X246872776Y-121075497D01*
X246872776Y-121075497D02*
X246920395Y-121099306D01*
X246920395Y-121099306D02*
X246944204Y-121123116D01*
X246944204Y-121123116D02*
X246968014Y-121170735D01*
X246968014Y-121170735D02*
X246968014Y-121361211D01*
X247206109Y-120599306D02*
X247206109Y-120885020D01*
X247206109Y-120742163D02*
X246706109Y-120742163D01*
X246706109Y-120742163D02*
X246777538Y-120789782D01*
X246777538Y-120789782D02*
X246825157Y-120837401D01*
X246825157Y-120837401D02*
X246848966Y-120885020D01*
X241728490Y-111743333D02*
X241752300Y-111767142D01*
X241752300Y-111767142D02*
X241776109Y-111838571D01*
X241776109Y-111838571D02*
X241776109Y-111886190D01*
X241776109Y-111886190D02*
X241752300Y-111957618D01*
X241752300Y-111957618D02*
X241704680Y-112005237D01*
X241704680Y-112005237D02*
X241657061Y-112029047D01*
X241657061Y-112029047D02*
X241561823Y-112052856D01*
X241561823Y-112052856D02*
X241490395Y-112052856D01*
X241490395Y-112052856D02*
X241395157Y-112029047D01*
X241395157Y-112029047D02*
X241347538Y-112005237D01*
X241347538Y-112005237D02*
X241299919Y-111957618D01*
X241299919Y-111957618D02*
X241276109Y-111886190D01*
X241276109Y-111886190D02*
X241276109Y-111838571D01*
X241276109Y-111838571D02*
X241299919Y-111767142D01*
X241299919Y-111767142D02*
X241323728Y-111743333D01*
X241442776Y-111314761D02*
X241776109Y-111314761D01*
X241252300Y-111433809D02*
X241609442Y-111552856D01*
X241609442Y-111552856D02*
X241609442Y-111243333D01*
X251808571Y-104058490D02*
X251784762Y-104082300D01*
X251784762Y-104082300D02*
X251713333Y-104106109D01*
X251713333Y-104106109D02*
X251665714Y-104106109D01*
X251665714Y-104106109D02*
X251594286Y-104082300D01*
X251594286Y-104082300D02*
X251546667Y-104034680D01*
X251546667Y-104034680D02*
X251522857Y-103987061D01*
X251522857Y-103987061D02*
X251499048Y-103891823D01*
X251499048Y-103891823D02*
X251499048Y-103820395D01*
X251499048Y-103820395D02*
X251522857Y-103725157D01*
X251522857Y-103725157D02*
X251546667Y-103677538D01*
X251546667Y-103677538D02*
X251594286Y-103629919D01*
X251594286Y-103629919D02*
X251665714Y-103606109D01*
X251665714Y-103606109D02*
X251713333Y-103606109D01*
X251713333Y-103606109D02*
X251784762Y-103629919D01*
X251784762Y-103629919D02*
X251808571Y-103653728D01*
X252284762Y-104106109D02*
X251999048Y-104106109D01*
X252141905Y-104106109D02*
X252141905Y-103606109D01*
X252141905Y-103606109D02*
X252094286Y-103677538D01*
X252094286Y-103677538D02*
X252046667Y-103725157D01*
X252046667Y-103725157D02*
X251999048Y-103748966D01*
X252713333Y-103606109D02*
X252618095Y-103606109D01*
X252618095Y-103606109D02*
X252570476Y-103629919D01*
X252570476Y-103629919D02*
X252546666Y-103653728D01*
X252546666Y-103653728D02*
X252499047Y-103725157D01*
X252499047Y-103725157D02*
X252475238Y-103820395D01*
X252475238Y-103820395D02*
X252475238Y-104010871D01*
X252475238Y-104010871D02*
X252499047Y-104058490D01*
X252499047Y-104058490D02*
X252522857Y-104082300D01*
X252522857Y-104082300D02*
X252570476Y-104106109D01*
X252570476Y-104106109D02*
X252665714Y-104106109D01*
X252665714Y-104106109D02*
X252713333Y-104082300D01*
X252713333Y-104082300D02*
X252737142Y-104058490D01*
X252737142Y-104058490D02*
X252760952Y-104010871D01*
X252760952Y-104010871D02*
X252760952Y-103891823D01*
X252760952Y-103891823D02*
X252737142Y-103844204D01*
X252737142Y-103844204D02*
X252713333Y-103820395D01*
X252713333Y-103820395D02*
X252665714Y-103796585D01*
X252665714Y-103796585D02*
X252570476Y-103796585D01*
X252570476Y-103796585D02*
X252522857Y-103820395D01*
X252522857Y-103820395D02*
X252499047Y-103844204D01*
X252499047Y-103844204D02*
X252475238Y-103891823D01*
X245566109Y-115163333D02*
X245328014Y-115329999D01*
X245566109Y-115449047D02*
X245066109Y-115449047D01*
X245066109Y-115449047D02*
X245066109Y-115258571D01*
X245066109Y-115258571D02*
X245089919Y-115210952D01*
X245089919Y-115210952D02*
X245113728Y-115187142D01*
X245113728Y-115187142D02*
X245161347Y-115163333D01*
X245161347Y-115163333D02*
X245232776Y-115163333D01*
X245232776Y-115163333D02*
X245280395Y-115187142D01*
X245280395Y-115187142D02*
X245304204Y-115210952D01*
X245304204Y-115210952D02*
X245328014Y-115258571D01*
X245328014Y-115258571D02*
X245328014Y-115449047D01*
X245113728Y-114972856D02*
X245089919Y-114949047D01*
X245089919Y-114949047D02*
X245066109Y-114901428D01*
X245066109Y-114901428D02*
X245066109Y-114782380D01*
X245066109Y-114782380D02*
X245089919Y-114734761D01*
X245089919Y-114734761D02*
X245113728Y-114710952D01*
X245113728Y-114710952D02*
X245161347Y-114687142D01*
X245161347Y-114687142D02*
X245208966Y-114687142D01*
X245208966Y-114687142D02*
X245280395Y-114710952D01*
X245280395Y-114710952D02*
X245566109Y-114996666D01*
X245566109Y-114996666D02*
X245566109Y-114687142D01*
X251088490Y-111903333D02*
X251112300Y-111927142D01*
X251112300Y-111927142D02*
X251136109Y-111998571D01*
X251136109Y-111998571D02*
X251136109Y-112046190D01*
X251136109Y-112046190D02*
X251112300Y-112117618D01*
X251112300Y-112117618D02*
X251064680Y-112165237D01*
X251064680Y-112165237D02*
X251017061Y-112189047D01*
X251017061Y-112189047D02*
X250921823Y-112212856D01*
X250921823Y-112212856D02*
X250850395Y-112212856D01*
X250850395Y-112212856D02*
X250755157Y-112189047D01*
X250755157Y-112189047D02*
X250707538Y-112165237D01*
X250707538Y-112165237D02*
X250659919Y-112117618D01*
X250659919Y-112117618D02*
X250636109Y-112046190D01*
X250636109Y-112046190D02*
X250636109Y-111998571D01*
X250636109Y-111998571D02*
X250659919Y-111927142D01*
X250659919Y-111927142D02*
X250683728Y-111903333D01*
X250636109Y-111474761D02*
X250636109Y-111569999D01*
X250636109Y-111569999D02*
X250659919Y-111617618D01*
X250659919Y-111617618D02*
X250683728Y-111641428D01*
X250683728Y-111641428D02*
X250755157Y-111689047D01*
X250755157Y-111689047D02*
X250850395Y-111712856D01*
X250850395Y-111712856D02*
X251040871Y-111712856D01*
X251040871Y-111712856D02*
X251088490Y-111689047D01*
X251088490Y-111689047D02*
X251112300Y-111665237D01*
X251112300Y-111665237D02*
X251136109Y-111617618D01*
X251136109Y-111617618D02*
X251136109Y-111522380D01*
X251136109Y-111522380D02*
X251112300Y-111474761D01*
X251112300Y-111474761D02*
X251088490Y-111450952D01*
X251088490Y-111450952D02*
X251040871Y-111427142D01*
X251040871Y-111427142D02*
X250921823Y-111427142D01*
X250921823Y-111427142D02*
X250874204Y-111450952D01*
X250874204Y-111450952D02*
X250850395Y-111474761D01*
X250850395Y-111474761D02*
X250826585Y-111522380D01*
X250826585Y-111522380D02*
X250826585Y-111617618D01*
X250826585Y-111617618D02*
X250850395Y-111665237D01*
X250850395Y-111665237D02*
X250874204Y-111689047D01*
X250874204Y-111689047D02*
X250921823Y-111712856D01*
X252158490Y-102261428D02*
X252182300Y-102285237D01*
X252182300Y-102285237D02*
X252206109Y-102356666D01*
X252206109Y-102356666D02*
X252206109Y-102404285D01*
X252206109Y-102404285D02*
X252182300Y-102475713D01*
X252182300Y-102475713D02*
X252134680Y-102523332D01*
X252134680Y-102523332D02*
X252087061Y-102547142D01*
X252087061Y-102547142D02*
X251991823Y-102570951D01*
X251991823Y-102570951D02*
X251920395Y-102570951D01*
X251920395Y-102570951D02*
X251825157Y-102547142D01*
X251825157Y-102547142D02*
X251777538Y-102523332D01*
X251777538Y-102523332D02*
X251729919Y-102475713D01*
X251729919Y-102475713D02*
X251706109Y-102404285D01*
X251706109Y-102404285D02*
X251706109Y-102356666D01*
X251706109Y-102356666D02*
X251729919Y-102285237D01*
X251729919Y-102285237D02*
X251753728Y-102261428D01*
X252206109Y-101785237D02*
X252206109Y-102070951D01*
X252206109Y-101928094D02*
X251706109Y-101928094D01*
X251706109Y-101928094D02*
X251777538Y-101975713D01*
X251777538Y-101975713D02*
X251825157Y-102023332D01*
X251825157Y-102023332D02*
X251848966Y-102070951D01*
X251753728Y-101594761D02*
X251729919Y-101570952D01*
X251729919Y-101570952D02*
X251706109Y-101523333D01*
X251706109Y-101523333D02*
X251706109Y-101404285D01*
X251706109Y-101404285D02*
X251729919Y-101356666D01*
X251729919Y-101356666D02*
X251753728Y-101332857D01*
X251753728Y-101332857D02*
X251801347Y-101309047D01*
X251801347Y-101309047D02*
X251848966Y-101309047D01*
X251848966Y-101309047D02*
X251920395Y-101332857D01*
X251920395Y-101332857D02*
X252206109Y-101618571D01*
X252206109Y-101618571D02*
X252206109Y-101309047D01*
X245566109Y-119483333D02*
X245328014Y-119649999D01*
X245566109Y-119769047D02*
X245066109Y-119769047D01*
X245066109Y-119769047D02*
X245066109Y-119578571D01*
X245066109Y-119578571D02*
X245089919Y-119530952D01*
X245089919Y-119530952D02*
X245113728Y-119507142D01*
X245113728Y-119507142D02*
X245161347Y-119483333D01*
X245161347Y-119483333D02*
X245232776Y-119483333D01*
X245232776Y-119483333D02*
X245280395Y-119507142D01*
X245280395Y-119507142D02*
X245304204Y-119530952D01*
X245304204Y-119530952D02*
X245328014Y-119578571D01*
X245328014Y-119578571D02*
X245328014Y-119769047D01*
X245066109Y-119316666D02*
X245066109Y-119007142D01*
X245066109Y-119007142D02*
X245256585Y-119173809D01*
X245256585Y-119173809D02*
X245256585Y-119102380D01*
X245256585Y-119102380D02*
X245280395Y-119054761D01*
X245280395Y-119054761D02*
X245304204Y-119030952D01*
X245304204Y-119030952D02*
X245351823Y-119007142D01*
X245351823Y-119007142D02*
X245470871Y-119007142D01*
X245470871Y-119007142D02*
X245518490Y-119030952D01*
X245518490Y-119030952D02*
X245542300Y-119054761D01*
X245542300Y-119054761D02*
X245566109Y-119102380D01*
X245566109Y-119102380D02*
X245566109Y-119245237D01*
X245566109Y-119245237D02*
X245542300Y-119292856D01*
X245542300Y-119292856D02*
X245518490Y-119316666D01*
D14*
X238047619Y-120554819D02*
X238047619Y-119554819D01*
X238047619Y-119554819D02*
X238380952Y-120269104D01*
X238380952Y-120269104D02*
X238714285Y-119554819D01*
X238714285Y-119554819D02*
X238714285Y-120554819D01*
X239190476Y-120173866D02*
X239952381Y-120173866D01*
D17*
X236119556Y-111204761D02*
X236724318Y-111204761D01*
X235454318Y-111628094D02*
X236119556Y-111204761D01*
X236119556Y-111204761D02*
X235454318Y-110781427D01*
X235877651Y-109813809D02*
X236724318Y-109813809D01*
X235393842Y-110116190D02*
X236300984Y-110418571D01*
X236300984Y-110418571D02*
X236300984Y-109632380D01*
D13*
X240436109Y-111183333D02*
X240198014Y-111349999D01*
X240436109Y-111469047D02*
X239936109Y-111469047D01*
X239936109Y-111469047D02*
X239936109Y-111278571D01*
X239936109Y-111278571D02*
X239959919Y-111230952D01*
X239959919Y-111230952D02*
X239983728Y-111207142D01*
X239983728Y-111207142D02*
X240031347Y-111183333D01*
X240031347Y-111183333D02*
X240102776Y-111183333D01*
X240102776Y-111183333D02*
X240150395Y-111207142D01*
X240150395Y-111207142D02*
X240174204Y-111230952D01*
X240174204Y-111230952D02*
X240198014Y-111278571D01*
X240198014Y-111278571D02*
X240198014Y-111469047D01*
X240102776Y-110754761D02*
X240436109Y-110754761D01*
X239912300Y-110873809D02*
X240269442Y-110992856D01*
X240269442Y-110992856D02*
X240269442Y-110683333D01*
X246570952Y-117896109D02*
X246570952Y-117396109D01*
X246570952Y-117396109D02*
X246690000Y-117396109D01*
X246690000Y-117396109D02*
X246761428Y-117419919D01*
X246761428Y-117419919D02*
X246809047Y-117467538D01*
X246809047Y-117467538D02*
X246832857Y-117515157D01*
X246832857Y-117515157D02*
X246856666Y-117610395D01*
X246856666Y-117610395D02*
X246856666Y-117681823D01*
X246856666Y-117681823D02*
X246832857Y-117777061D01*
X246832857Y-117777061D02*
X246809047Y-117824680D01*
X246809047Y-117824680D02*
X246761428Y-117872300D01*
X246761428Y-117872300D02*
X246690000Y-117896109D01*
X246690000Y-117896109D02*
X246570952Y-117896109D01*
X247023333Y-117396109D02*
X247332857Y-117396109D01*
X247332857Y-117396109D02*
X247166190Y-117586585D01*
X247166190Y-117586585D02*
X247237619Y-117586585D01*
X247237619Y-117586585D02*
X247285238Y-117610395D01*
X247285238Y-117610395D02*
X247309047Y-117634204D01*
X247309047Y-117634204D02*
X247332857Y-117681823D01*
X247332857Y-117681823D02*
X247332857Y-117800871D01*
X247332857Y-117800871D02*
X247309047Y-117848490D01*
X247309047Y-117848490D02*
X247285238Y-117872300D01*
X247285238Y-117872300D02*
X247237619Y-117896109D01*
X247237619Y-117896109D02*
X247094762Y-117896109D01*
X247094762Y-117896109D02*
X247047143Y-117872300D01*
X247047143Y-117872300D02*
X247023333Y-117848490D01*
X242446666Y-105288490D02*
X242422857Y-105312300D01*
X242422857Y-105312300D02*
X242351428Y-105336109D01*
X242351428Y-105336109D02*
X242303809Y-105336109D01*
X242303809Y-105336109D02*
X242232381Y-105312300D01*
X242232381Y-105312300D02*
X242184762Y-105264680D01*
X242184762Y-105264680D02*
X242160952Y-105217061D01*
X242160952Y-105217061D02*
X242137143Y-105121823D01*
X242137143Y-105121823D02*
X242137143Y-105050395D01*
X242137143Y-105050395D02*
X242160952Y-104955157D01*
X242160952Y-104955157D02*
X242184762Y-104907538D01*
X242184762Y-104907538D02*
X242232381Y-104859919D01*
X242232381Y-104859919D02*
X242303809Y-104836109D01*
X242303809Y-104836109D02*
X242351428Y-104836109D01*
X242351428Y-104836109D02*
X242422857Y-104859919D01*
X242422857Y-104859919D02*
X242446666Y-104883728D01*
X242922857Y-105336109D02*
X242637143Y-105336109D01*
X242780000Y-105336109D02*
X242780000Y-104836109D01*
X242780000Y-104836109D02*
X242732381Y-104907538D01*
X242732381Y-104907538D02*
X242684762Y-104955157D01*
X242684762Y-104955157D02*
X242637143Y-104978966D01*
X250568490Y-103691169D02*
X250592300Y-103714978D01*
X250592300Y-103714978D02*
X250616109Y-103786407D01*
X250616109Y-103786407D02*
X250616109Y-103834026D01*
X250616109Y-103834026D02*
X250592300Y-103905454D01*
X250592300Y-103905454D02*
X250544680Y-103953073D01*
X250544680Y-103953073D02*
X250497061Y-103976883D01*
X250497061Y-103976883D02*
X250401823Y-104000692D01*
X250401823Y-104000692D02*
X250330395Y-104000692D01*
X250330395Y-104000692D02*
X250235157Y-103976883D01*
X250235157Y-103976883D02*
X250187538Y-103953073D01*
X250187538Y-103953073D02*
X250139919Y-103905454D01*
X250139919Y-103905454D02*
X250116109Y-103834026D01*
X250116109Y-103834026D02*
X250116109Y-103786407D01*
X250116109Y-103786407D02*
X250139919Y-103714978D01*
X250139919Y-103714978D02*
X250163728Y-103691169D01*
X250116109Y-103524502D02*
X250116109Y-103191169D01*
X250116109Y-103191169D02*
X250616109Y-103405454D01*
D18*
X238940000Y-108907836D02*
X238940000Y-108692164D01*
X239660000Y-108907836D02*
X239660000Y-108692164D01*
X244170000Y-103267164D02*
X244170000Y-103482836D01*
X244890000Y-103267164D02*
X244890000Y-103482836D01*
X251600000Y-116615000D02*
X252235000Y-116615000D01*
X251600000Y-117250000D02*
X251600000Y-116615000D01*
D13*
X241250000Y-120480000D02*
X241250000Y-120480000D01*
X241250000Y-120580000D02*
X241250000Y-120580000D01*
X241250000Y-120480000D02*
G75*
G02*
X241250000Y-120580000I0J-50000D01*
G01*
X241250000Y-120580000D02*
G75*
G02*
X241250000Y-120480000I0J50000D01*
G01*
D18*
X245990000Y-100232164D02*
X245990000Y-100447836D01*
X246710000Y-100232164D02*
X246710000Y-100447836D01*
D13*
X252675000Y-99385000D02*
X252675000Y-99385000D01*
X252675000Y-99485000D02*
X252675000Y-99485000D01*
X252675000Y-99385000D02*
G75*
G02*
X252675000Y-99485000I0J-50000D01*
G01*
X252675000Y-99485000D02*
G75*
G02*
X252675000Y-99385000I0J50000D01*
G01*
D18*
X253592164Y-107510000D02*
X253807836Y-107510000D01*
X253592164Y-108230000D02*
X253807836Y-108230000D01*
X251982164Y-106350000D02*
X252197836Y-106350000D01*
X251982164Y-107070000D02*
X252197836Y-107070000D01*
X232700000Y-112950000D02*
X234100000Y-112950000D01*
X232700000Y-114350000D02*
X232700000Y-112950000D01*
X234100000Y-112950000D02*
X234100000Y-114350000D01*
X234100000Y-114350000D02*
X232700000Y-114350000D01*
X253250000Y-105517836D02*
X253250000Y-105302164D01*
X253970000Y-105517836D02*
X253970000Y-105302164D01*
X245690000Y-112912164D02*
X245690000Y-113127836D01*
X246410000Y-112912164D02*
X246410000Y-113127836D01*
D11*
X234940000Y-115600000D02*
X238500000Y-115600000D01*
X235700000Y-117400000D02*
X238500000Y-117400000D01*
D18*
X249900000Y-101817836D02*
X249900000Y-101602164D01*
X250620000Y-101817836D02*
X250620000Y-101602164D01*
X253740000Y-102347836D02*
X253740000Y-102132164D01*
X254460000Y-102347836D02*
X254460000Y-102132164D01*
X239140000Y-106582164D02*
X239140000Y-106797836D01*
X239860000Y-106582164D02*
X239860000Y-106797836D01*
X247510000Y-100202164D02*
X247510000Y-100417836D01*
X248230000Y-100202164D02*
X248230000Y-100417836D01*
X247740000Y-121032164D02*
X247740000Y-121247836D01*
X248460000Y-121032164D02*
X248460000Y-121247836D01*
D11*
X243525000Y-105300000D02*
G75*
G02*
X243325000Y-105300000I-100000J0D01*
G01*
X243325000Y-105300000D02*
G75*
G02*
X243525000Y-105300000I100000J0D01*
G01*
D18*
X242310000Y-110712164D02*
X242310000Y-110927836D01*
X243030000Y-110712164D02*
X243030000Y-110927836D01*
X253672164Y-103540000D02*
X253887836Y-103540000D01*
X253672164Y-104260000D02*
X253887836Y-104260000D01*
X245340000Y-116962164D02*
X245340000Y-117177836D01*
X246060000Y-116962164D02*
X246060000Y-117177836D01*
X251360000Y-111182164D02*
X251360000Y-111397836D01*
X252080000Y-111182164D02*
X252080000Y-111397836D01*
X252440000Y-101897836D02*
X252440000Y-101682164D01*
X253160000Y-101897836D02*
X253160000Y-101682164D01*
X245340000Y-120982164D02*
X245340000Y-121197836D01*
X246060000Y-120982164D02*
X246060000Y-121197836D01*
X237800000Y-117950000D02*
X239200000Y-117950000D01*
X237800000Y-119350000D02*
X237800000Y-117950000D01*
X239200000Y-117950000D02*
X239200000Y-119350000D01*
X239200000Y-119350000D02*
X237800000Y-119350000D01*
D13*
X234850000Y-107400000D02*
X234850000Y-107400000D01*
X234950000Y-107400000D02*
X234950000Y-107400000D01*
D11*
X235450000Y-108400000D02*
X235450000Y-112800000D01*
X236850000Y-108400000D02*
X236850000Y-112800000D01*
D13*
X234850000Y-107400000D02*
G75*
G02*
X234950000Y-107400000I50000J0D01*
G01*
X234950000Y-107400000D02*
G75*
G02*
X234850000Y-107400000I-50000J0D01*
G01*
D18*
X238970000Y-111253641D02*
X238970000Y-110946359D01*
X239730000Y-111253641D02*
X239730000Y-110946359D01*
X247595000Y-116160000D02*
X247595000Y-120045000D01*
X247595000Y-120045000D02*
X249865000Y-120045000D01*
X249865000Y-120045000D02*
X249865000Y-116160000D01*
X241962164Y-105530000D02*
X242177836Y-105530000D01*
X241962164Y-106250000D02*
X242177836Y-106250000D01*
X248630000Y-103392164D02*
X248630000Y-103607836D01*
X249350000Y-103392164D02*
X249350000Y-103607836D01*
%LPC*%
D19*
X239300000Y-109280000D03*
X239300000Y-108320000D03*
D20*
X244530000Y-102895000D03*
X244530000Y-103855000D03*
D21*
X252870000Y-115980000D03*
X253886000Y-121060000D03*
X251854000Y-121060000D03*
D22*
X252235000Y-117250000D03*
X253505000Y-117250000D03*
X252235000Y-118520000D03*
X253505000Y-118520000D03*
X252235000Y-119790000D03*
X253505000Y-119790000D03*
D23*
X241250000Y-119750000D03*
X241900000Y-119750000D03*
X242550000Y-119750000D03*
X243200000Y-119750000D03*
D24*
X240767000Y-118315000D03*
D25*
X241250000Y-116715000D03*
X241900000Y-116715000D03*
D26*
X242225000Y-117865000D03*
D25*
X242550000Y-116715000D03*
X243200000Y-116715000D03*
D24*
X243683000Y-118315000D03*
D20*
X246350000Y-99860000D03*
X246350000Y-100820000D03*
D27*
X252050000Y-99210000D03*
X252050000Y-98160000D03*
X251300000Y-98160000D03*
X251300000Y-99210000D03*
D28*
X253220000Y-107870000D03*
X254180000Y-107870000D03*
D29*
X255210000Y-101375000D03*
D28*
X251610000Y-106710000D03*
X252570000Y-106710000D03*
D30*
X232530000Y-110510000D03*
X232530000Y-105510000D03*
D31*
X233400000Y-113650000D03*
D19*
X253610000Y-105890000D03*
X253610000Y-104930000D03*
D20*
X246050000Y-112540000D03*
X246050000Y-113500000D03*
D32*
X235500000Y-116500000D03*
X238700000Y-116500000D03*
D19*
X250260000Y-102190000D03*
X250260000Y-101230000D03*
X254100000Y-102720000D03*
X254100000Y-101760000D03*
D20*
X239500000Y-106210000D03*
X239500000Y-107170000D03*
X247870000Y-99830000D03*
X247870000Y-100790000D03*
X248100000Y-120660000D03*
X248100000Y-121620000D03*
D33*
X243850000Y-105900000D03*
X243850000Y-106300000D03*
X243850000Y-106700000D03*
X243850000Y-107100000D03*
X243850000Y-107500000D03*
X243850000Y-107900000D03*
X243850000Y-108300000D03*
X243850000Y-108700000D03*
X243850000Y-109100000D03*
X243850000Y-109500000D03*
X243850000Y-109900000D03*
X243850000Y-110300000D03*
D34*
X244600000Y-111050000D03*
X245000000Y-111050000D03*
X245400000Y-111050000D03*
X245800000Y-111050000D03*
X246200000Y-111050000D03*
X246600000Y-111050000D03*
X247000000Y-111050000D03*
X247400000Y-111050000D03*
X247800000Y-111050000D03*
X248200000Y-111050000D03*
X248600000Y-111050000D03*
X249000000Y-111050000D03*
D33*
X249750000Y-110300000D03*
X249750000Y-109900000D03*
X249750000Y-109500000D03*
X249750000Y-109100000D03*
X249750000Y-108700000D03*
X249750000Y-108300000D03*
X249750000Y-107900000D03*
X249750000Y-107500000D03*
X249750000Y-107100000D03*
X249750000Y-106700000D03*
X249750000Y-106300000D03*
X249750000Y-105900000D03*
D34*
X249000000Y-105150000D03*
X248600000Y-105150000D03*
X248200000Y-105150000D03*
X247800000Y-105150000D03*
X247400000Y-105150000D03*
X247000000Y-105150000D03*
X246600000Y-105150000D03*
X246200000Y-105150000D03*
X245800000Y-105150000D03*
X245400000Y-105150000D03*
X245000000Y-105150000D03*
X244600000Y-105150000D03*
D35*
X246800000Y-108100000D03*
D20*
X242670000Y-110340000D03*
X242670000Y-111300000D03*
D28*
X253300000Y-103900000D03*
X254260000Y-103900000D03*
D20*
X245700000Y-116590000D03*
X245700000Y-117550000D03*
X251720000Y-110810000D03*
X251720000Y-111770000D03*
D19*
X252800000Y-102270000D03*
X252800000Y-101310000D03*
D20*
X245700000Y-120610000D03*
X245700000Y-121570000D03*
D31*
X238500000Y-118650000D03*
D36*
X235700000Y-107450000D03*
X235700000Y-113750000D03*
X236600000Y-113750000D03*
X236600000Y-107450000D03*
D37*
X239350000Y-111610000D03*
X239350000Y-110590000D03*
D38*
X248730000Y-119160000D03*
X248730000Y-116360000D03*
D28*
X241590000Y-105890000D03*
X242550000Y-105890000D03*
D20*
X248990000Y-103020000D03*
X248990000Y-103980000D03*
%LPD*%
M02*
