M48
; DRILL file {KiCad 9.0.0} date 2025-04-18T11:45:20+0200
; FORMAT={-:-/ absolute / metric / decimal}
; #@! TF.CreationDate,2025-04-18T11:45:20+02:00
; #@! TF.GenerationSoftware,Kicad,Pcbnew,9.0.0
; #@! TF.FileFunction,Plated,1,2,PTH
FMAT,2
METRIC
; #@! TA.AperFunction,Plated,PTH,ViaDrill
T1C0.300
; #@! TA.AperFunction,Plated,PTH,ViaDrill
T2C0.400
; #@! TA.AperFunction,Plated,PTH,ViaDrill
T3C0.600
; #@! TA.AperFunction,Plated,PTH,ViaDrill
T4C0.800
%
G90
G05
T1
X245.55Y-103.5
X246.09Y-101.68
X249.46Y-101.24
X251.37Y-102.87
X252.45Y-106.01
X254.49Y-106.79
T2
X238.42Y-110.41
X239.51Y-104.43
X239.69Y-113.18
X240.6Y-105.89
X240.9Y-110.4
X241.25Y-113.2
X242.65Y-102.55
X242.85Y-108.7
X242.86Y-113.1
X243.56Y-103.88
X244.6Y-100.36
X245.09Y-112.49
X246.93Y-103.15
X247.02Y-113.29
X247.13Y-101.77
X247.72Y-114.51
X248.16Y-102.37
X249.14Y-114.23
X249.25Y-113.03
X250.09Y-117.94
X251.53Y-122.22
X251.77Y-113.41
X251.95Y-94.5
X253.74Y-108.74
X253.8Y-96.05
X253.85Y-110.99
X254.3Y-98.9
X255.1Y-96.15
X255.3Y-98.9
X255.3Y-117.1
X255.3Y-119.78
X256.3Y-98.9
X256.3Y-117.1
X257.3Y-98.9
X257.3Y-117.1
X258.3Y-98.9
X258.3Y-117.1
T3
X232.75Y-111.65
X234.2Y-115.1
T4
X245.27Y-106.73
X245.31Y-108.15
X245.33Y-109.47
X246.78Y-106.69
X246.8Y-108.1
X246.82Y-109.49
X248.23Y-109.5
X248.3Y-106.7
X248.35Y-108.15
M30
